<?xml version="1.0" encoding="UTF-8" standalone="no"?>
<!-- Created with Inkscape (http://www.inkscape.org/) -->

<svg
   xmlns:dc="http://purl.org/dc/elements/1.1/"
   xmlns:cc="http://creativecommons.org/ns#"
   xmlns:rdf="http://www.w3.org/1999/02/22-rdf-syntax-ns#"
   xmlns:svg="http://www.w3.org/2000/svg"
   xmlns="http://www.w3.org/2000/svg"
   xmlns:sodipodi="http://sodipodi.sourceforge.net/DTD/sodipodi-0.dtd"
   xmlns:inkscape="http://www.inkscape.org/namespaces/inkscape"
   width="45"
   height="44"
   viewBox="0 0 11.90625 11.641666"
   version="1.1"
   id="svg4534"
   inkscape:version="0.92.1 r15371"
   sodipodi:docname="pinterest.svg">
  <defs
     id="defs4528" />
  <sodipodi:namedview
     id="base"
     pagecolor="#ffffff"
     bordercolor="#666666"
     borderopacity="1.0"
     inkscape:pageopacity="0.0"
     inkscape:pageshadow="2"
     inkscape:zoom="3.959798"
     inkscape:cx="-16.369555"
     inkscape:cy="33.108715"
     inkscape:document-units="mm"
     inkscape:current-layer="layer1"
     showgrid="false"
     units="px"
     inkscape:window-width="1366"
     inkscape:window-height="706"
     inkscape:window-x="-8"
     inkscape:window-y="-8"
     inkscape:window-maximized="1" />
  <metadata
     id="metadata4531">
    <rdf:RDF>
      <cc:Work
         rdf:about="">
        <dc:format>image/svg+xml</dc:format>
        <dc:type
           rdf:resource="http://purl.org/dc/dcmitype/StillImage" />
        <dc:title />
      </cc:Work>
    </rdf:RDF>
  </metadata>
  <g
     inkscape:label="Layer 1"
     inkscape:groupmode="layer"
     id="layer1"
     transform="translate(0,-285.35835)">
    <path
       style="fill:#ffffff;fill-opacity:1;stroke:none;stroke-width:0.23908392"
       d="m 6.018783,285.54854 c -3.1142069,0 -5.63980582,2.52561 -5.63980582,5.63981 0,2.31535 1.39684302,4.30226 3.39262722,5.17055 -0.031074,-0.43251 -0.036568,-0.94658 0.055379,-1.34073 0.1082452,-0.46649 0.6995094,-2.97292 0.6995094,-2.97292 0,0 -0.1807068,-0.35944 -0.1807068,-0.88896 0,-0.8319 0.4843744,-1.45148 1.0842408,-1.45148 0.5102553,0 0.7548883,0.3823 0.7548883,0.84232 0,0.51198 -0.3262634,1.28032 -0.4954871,1.99069 -0.1408395,0.59644 0.2988047,1.08133 0.8860475,1.08133 1.0635123,0 1.879936,-1.12181 1.879936,-2.73976 0,-1.43181 -1.0279676,-2.43079 -2.4978365,-2.43079 -1.7009769,0 -2.6989467,1.27544 -2.6989467,2.59401 0,0.51368 0.1971343,1.06556 0.4430249,1.36405 0.049342,0.0597 0.058583,0.11153 0.043719,0.17196 -0.045065,0.18936 -0.1461305,0.59577 -0.1661345,0.67911 -0.025778,0.10928 -0.08739,0.13162 -0.2011079,0.0787 -0.7470799,-0.34748 -1.2124855,-1.43771 -1.2124855,-2.31421 0,-1.88774 1.3683228,-3.61997 3.9493198,-3.61997 2.0747489,0 3.6870036,1.47784 3.6870036,3.45383 0,2.06022 -1.3006946,3.71906 -3.1040787,3.71906 -0.6060132,0 -1.1738661,-0.31589 -1.3698744,-0.68784 0,0 -0.298446,1.14279 -0.3701569,1.42233 -0.1058161,0.40573 -0.3522447,0.89058 -0.5712671,1.27369 0.5169927,0.1562 1.064239,0.24192 1.6321925,0.24192 3.1142042,0 5.6398029,-2.52268 5.6398029,-5.63689 0,-3.11421 -2.5255987,-5.63981 -5.639803,-5.63981 z"
       id="path4173"
       inkscape:connector-curvature="0" />
  </g>
</svg>
