<?xml version="1.0" encoding="UTF-8" standalone="no"?>
<!-- Created with Inkscape (http://www.inkscape.org/) -->

<svg
   xmlns:dc="http://purl.org/dc/elements/1.1/"
   xmlns:cc="http://creativecommons.org/ns#"
   xmlns:rdf="http://www.w3.org/1999/02/22-rdf-syntax-ns#"
   xmlns:svg="http://www.w3.org/2000/svg"
   xmlns="http://www.w3.org/2000/svg"
   xmlns:sodipodi="http://sodipodi.sourceforge.net/DTD/sodipodi-0.dtd"
   xmlns:inkscape="http://www.inkscape.org/namespaces/inkscape"
   version="1.1"
   id="svg2"
   width="50"
   height="50"
   viewBox="0 0 50 50"
   sodipodi:docname="categories-icon.svg"
   inkscape:version="0.92.1 r15371">
  <metadata
     id="metadata8">
    <rdf:RDF>
      <cc:Work
         rdf:about="">
        <dc:format>image/svg+xml</dc:format>
        <dc:type
           rdf:resource="http://purl.org/dc/dcmitype/StillImage" />
        <dc:title></dc:title>
      </cc:Work>
    </rdf:RDF>
  </metadata>
  <defs
     id="defs6" />
  <sodipodi:namedview
     pagecolor="#ffffff"
     bordercolor="#666666"
     borderopacity="1"
     objecttolerance="10"
     gridtolerance="10"
     guidetolerance="10"
     inkscape:pageopacity="0"
     inkscape:pageshadow="2"
     inkscape:window-width="1366"
     inkscape:window-height="706"
     id="namedview4"
     showgrid="false"
     inkscape:zoom="3.337544"
     inkscape:cx="87.5191"
     inkscape:cy="-11.448871"
     inkscape:window-x="-8"
     inkscape:window-y="-8"
     inkscape:window-maximized="1"
     inkscape:current-layer="svg2" />
  <path
     style="fill:#ff0000;stroke-width:1"
     d="M 23.702821,49.257049 C 22.847987,49.006077 1.2903645,38.797721 1.1537378,38.579192 0.86019488,38.109698 1.2432766,37.822461 3.7249534,36.65124 6.0749219,35.542182 6.15299,35.517462 7.2620514,35.531584 l 1.1340924,0.01442 7.4677202,3.508654 c 4.107246,1.929753 7.791237,3.583318 8.186651,3.674595 0.53141,0.122662 0.900751,0.120161 1.415988,-0.0096 0.383381,-0.09654 4.048306,-1.750108 8.144282,-3.674595 l 7.447215,-3.499071 1.134095,-0.01442 c 1.109064,-0.01408 1.187128,0.01061 3.537096,1.119647 2.481682,1.171221 2.864761,1.458467 2.571217,1.927961 -0.091,0.145538 -5.160041,2.602357 -11.264539,5.459603 -10.528242,4.927782 -11.149649,5.197596 -12.081977,5.245978 -0.540583,0.02808 -1.103567,0.01561 -1.251071,-0.02773 z m 0.04137,-13.117704 C 22.413962,35.747289 1.2280183,25.74532 1.1399334,25.467789 c -0.04645,-0.146345 -0.045777,-0.366873 0.00149,-0.490064 0.047272,-0.123191 1.1506453,-0.727514 2.4519386,-1.34294 2.1461289,-1.014979 2.4679613,-1.124109 3.4633613,-1.174374 l 1.0973726,-0.05541 7.6816321,3.605278 7.681631,3.605276 h 1.209698 1.209698 l 7.687054,-3.607807 7.687057,-3.607808 1.158867,0.07647 c 0.915803,0.06043 1.38087,0.185681 2.217347,0.597149 0.582172,0.28637 1.616006,0.779621 2.29742,1.096114 1.721104,0.799396 1.829861,1.251153 0.461982,1.918969 -0.4365,0.213106 -5.488783,2.570577 -11.227288,5.238826 -7.053275,3.279577 -10.65411,4.877456 -11.114106,4.931897 -0.37616,0.04454 -0.984752,-0.0091 -1.360912,-0.120017 z M 23.73156,23.102857 C 22.868007,22.83885 1.280893,12.618718 1.1506336,12.412215 1.0346137,12.228286 1.03555,12.07992 1.1538881,11.892277 1.2967308,11.665825 3.6572507,10.510825 9.1569378,7.9763963 9.9028215,7.6326677 13.473072,5.9657919 17.090827,4.2722244 l 6.577737,-3.0792132 h 1.058486 1.058485 l 6.577738,3.0792132 c 3.617751,1.6935675 7.188004,3.3604433 7.93389,3.7041719 5.499686,2.5344287 7.860207,3.6894287 8.00305,3.9158807 0.117517,0.186303 0.11894,0.336575 0.0051,0.517367 -0.0884,0.140139 -5.157442,2.595517 -11.264545,5.456394 -10.501312,4.919347 -11.157153,5.204535 -12.0867,5.255808 -0.540584,0.02981 -1.090631,0.02127 -1.222327,-0.01899 z"
     id="path4487"
     inkscape:connector-curvature="0" />
</svg>
