<?xml version="1.0" encoding="UTF-8" standalone="no"?>
<!-- Created with Inkscape (http://www.inkscape.org/) -->

<svg
   xmlns:dc="http://purl.org/dc/elements/1.1/"
   xmlns:cc="http://creativecommons.org/ns#"
   xmlns:rdf="http://www.w3.org/1999/02/22-rdf-syntax-ns#"
   xmlns:svg="http://www.w3.org/2000/svg"
   xmlns="http://www.w3.org/2000/svg"
   xmlns:sodipodi="http://sodipodi.sourceforge.net/DTD/sodipodi-0.dtd"
   xmlns:inkscape="http://www.inkscape.org/namespaces/inkscape"
   version="1.1"
   id="svg2"
   width="50"
   height="50"
   viewBox="0 0 50 50"
   sodipodi:docname="email.svg"
   inkscape:version="0.92.1 r15371">
  <metadata
     id="metadata8">
    <rdf:RDF>
      <cc:Work
         rdf:about="">
        <dc:format>image/svg+xml</dc:format>
        <dc:type
           rdf:resource="http://purl.org/dc/dcmitype/StillImage" />
        <dc:title />
      </cc:Work>
    </rdf:RDF>
  </metadata>
  <defs
     id="defs6" />
  <sodipodi:namedview
     pagecolor="#ffffff"
     bordercolor="#666666"
     borderopacity="1"
     objecttolerance="10"
     gridtolerance="10"
     guidetolerance="10"
     inkscape:pageopacity="0"
     inkscape:pageshadow="2"
     inkscape:window-width="1366"
     inkscape:window-height="706"
     id="namedview4"
     showgrid="false"
     inkscape:zoom="5.5625734"
     inkscape:cx="43.401673"
     inkscape:cy="11.823704"
     inkscape:window-x="-8"
     inkscape:window-y="-8"
     inkscape:window-maximized="1"
     inkscape:current-layer="svg2" />
  <g
     style="stroke:#ff0000;stroke-width:2.93591022;stroke-miterlimit:4;stroke-dasharray:none;stroke-opacity:1"
     transform="matrix(0.11869878,0,0,0.11869878,95.291709,26.890066)"
     id="g4704">
    <path
       id="path4658"
       d="m -1036.1265,81.30135 c 4.4,-1.15294 11.7125,-3.87095 16.25,-6.04002 6.8814,-3.28952 8.25,-4.33444 8.25,-6.29872 0,-1.29522 -0.5625,-3.11345 -1.25,-4.04051 -1.1602,-1.56444 -1.6811,-1.51139 -7.25,0.73819 -15.16,6.124 -41.9046,7.34216 -57,2.59622 -19.9403,-6.26917 -33.6795,-19.67467 -40.9069,-39.91336 -2.9652,-8.30341 -3.0773,-9.2196 -3.0726,-25.11775 0,-14.20628 0.3233,-17.60588 2.2954,-24.45516 6.6088,-22.95268 20.1301,-39.96468 39.5082,-49.70781 33.8715,-17.030216 76.4658,-7.269636 90.17136,20.66297 4.43839,9.04562 5.80905,16.77024 5.2345,29.5 -0.99073,21.9508 -8.98601,37.02868 -23.54786,44.40775 -6.8048,3.44821 -13.3544,4.27703 -15.651,1.98051 -1.5146,-1.51464 -1.6981,-2.88471 -1.1904,-8.89041 0.5709,-6.75415 6.2149,-35.26801 10.5835,-53.46912 1.1183,-4.6592 1.7053,-8.77325 1.3045,-9.14233 -1.769,-1.62902 -20.7358,-4.13396 -27.1987,-3.59213 -8.3332,0.69862 -22.4304,5.85538 -30.2813,11.07684 -17.3658,11.5497 -29.7584,34.69024 -29.7431,55.53885 0.01,9.78796 1.3491,14.41531 5.4909,18.93446 3.0128,3.28729 3.8206,3.63773 8.0179,3.47842 8.8267,-0.33502 24.163,-10.30362 35.1872,-22.87175 2.8483,-3.24722 5.4617,-5.62118 5.8074,-5.27545 0.3457,0.34572 0.1476,3.23028 -0.4402,6.41013 -1.8255,9.87521 -1.4144,16.15954 1.2303,18.8042 6.3936,6.39358 32.0986,2.60483 46.29984,-6.82429 19.83919,-13.17248 30.90875,-36.88707 28.41421,-60.87248 -1.53065,-14.7174 -6.79685,-26.21445 -16.94286,-36.98924 -24.91999,-26.464386 -72.92089,-29.924956 -110.39439,-7.958766 -10.9624,6.425956 -25.5578,20.982666 -31.854,31.769566 -11.1369,19.08029 -15.3499,43.79568 -11.3534,66.60425 5.4988,31.38227 26.8382,52.69249 59.9863,59.90438 11.9437,2.59852 32.1733,2.16337 44.0452,-0.94744 z"
       style="fill:#ff0000;stroke:#ff0000;stroke-width:2.93591022;stroke-miterlimit:4;stroke-dasharray:none;stroke-opacity:1"
       inkscape:connector-curvature="0" />
    <path
       id="path4656"
       d="m -1073.2949,16.47669 c -3.0362,-7.26675 -0.173,-25.59113 6.0661,-38.8231 4.0387,-8.56523 9.1124,-13.75112 15.0916,-15.4252 5.2617,-1.47319 12.519,-0.63 15.5082,1.80182 l 2.0838,1.69519 -2.5216,9.68905 c -3.3499,12.87213 -5.5703,18.50912 -9.6129,24.40502 -7.1903,10.48673 -18.4646,20.40593 -23.1936,20.40593 -1.1985,0 -2.4097,-1.327 -3.4216,-3.74871 z"
       style="fill:#ffffff;stroke:#ff0000;stroke-width:2.93591022;stroke-miterlimit:4;stroke-dasharray:none;stroke-opacity:1"
       inkscape:connector-curvature="0" />
  </g>
  <g
     id="g4754"
     transform="matrix(0.79275382,0,0,0.79275382,-165.24128,73.058056)">
    <path
       style="fill:#ff0000;stroke:#ff0000;stroke-width:0.354;stroke-miterlimit:4;stroke-dasharray:none;stroke-opacity:1"
       d="m 101.18106,37.635582 c 0.3912,-0.148266 4.67166,-4.349274 4.92876,-4.837272 0.218,-0.413788 0.21581,-0.629434 -0.0113,-1.107967 -0.24668,-0.519835 -0.808,-0.840829 -1.30676,-0.747262 -0.52766,0.09899 -5.252919,4.812485 -5.274043,5.260919 -0.03627,0.769814 0.15813,1.108988 0.797323,1.391135 0.44736,0.197469 0.45122,0.197649 0.86599,0.04045 z"
       id="path4735"
       inkscape:connector-curvature="0" />
    <path
       style="fill:#ff0000;stroke:#ff0000;stroke-width:0.354;stroke-miterlimit:4;stroke-dasharray:none;stroke-opacity:1"
       d="m 91.74528,36.496312 c 0.212218,-0.100703 2.343415,-2.148202 4.735992,-4.549999 4.738618,-4.756878 4.720428,-4.733151 4.295468,-5.602834 -0.2882,-0.589791 -0.935944,-0.838061 -1.522653,-0.583606 -0.213793,0.09272 -2.357563,2.146629 -4.81485,4.613014 -4.214064,4.22967 -4.429469,4.467394 -4.429469,4.888409 0,0.621156 0.233975,1.064247 0.659992,1.249863 0.474862,0.206897 0.612227,0.205001 1.07552,-0.01485 z"
       id="path4733"
       inkscape:connector-curvature="0" />
    <path
       style="fill:#ff0000;stroke:#ff0000;stroke-width:0.354;stroke-miterlimit:4;stroke-dasharray:none;stroke-opacity:1"
       d="M 82.392242,35.301556 C 82.967299,34.996673 95.531114,22.3103 95.62012,21.944642 c 0.2453,-1.007748 -0.842851,-1.954663 -1.714468,-1.491941 -0.187141,0.09935 -3.26913,3.113209 -6.848864,6.697467 l -6.50861,6.516836 v 0.551851 c 0,0.471003 0.05767,0.603382 0.393621,0.903556 0.44069,0.393755 0.93135,0.454356 1.450443,0.179145 z"
       id="path4731"
       inkscape:connector-curvature="0" />
    <path
       style="fill:#ff0000;stroke:#ff0000;stroke-width:0.354;stroke-miterlimit:4;stroke-dasharray:none;stroke-opacity:1"
       d="m 114.59785,31.95504 c 0.60994,-0.177246 26.06405,-25.5759435 26.42985,-26.3723198 0.33047,-0.7194677 0.33308,-1.8013548 0.006,-2.5311256 -0.33196,-0.7409131 -15.40392,-15.8402986 -16.13067,-16.1600296 -0.8065,-0.354812 -1.538,-0.407308 -2.25683,-0.161962 -0.59528,0.203176 -1.45706,1.036652 -13.49604,13.05285744 C 97.445254,11.465333 96.261298,12.682501 95.969262,13.333248 c -0.25414,0.566297 -0.304506,0.818532 -0.242213,1.213015 0.218673,1.384814 -0.168339,0.944144 8.190651,9.326277 6.89951,6.918613 7.90781,7.885091 8.38737,8.039495 0.94287,0.303573 1.36863,0.311558 2.29278,0.04301 z"
       id="path4729"
       inkscape:connector-curvature="0" />
    <path
       style="fill:#ffffff;stroke:#ff0000;stroke-width:0.354;stroke-miterlimit:4;stroke-dasharray:none;stroke-opacity:1"
       d="m 106.18952,22.54492 c -3.92701,-3.92907 -7.140016,-7.201167 -7.140016,-7.271326 0,-0.07016 0.772897,-0.304484 1.717546,-0.52072 3.68633,-0.84382 4.30237,-0.983933 5.87583,-1.336419 1.90139,-0.425947 4.26817,-0.961667 6.38808,-1.445939 1.64395,-0.375542 4.54608,-1.027349 5.45258,-1.224627 0.65088,-0.141648 1.14452,-0.483059 1.30366,-0.9016416 0.06,-0.1578219 0.41104,-1.6558147 0.78009,-3.328874 0.36904,-1.6730582 0.72019,-3.2317595 0.78034,-3.4637788 0.0602,-0.2320205 0.27067,-1.1540738 0.46782,-2.0490068 0.19716,-0.89493424 0.55335,-2.4949677 0.79154,-3.5556303 0.23819,-1.0606614 0.5728,-2.5522173 0.74358,-3.3145697 0.73863,-3.2971078 0.9233,-4.0444686 1.02669,-4.1550758 0.11305,-0.12093 14.44708,14.106543 14.44708,14.3396804 0,0.1587335 -25.21437,25.3716896 -25.37311,25.3716896 -0.0669,0 -3.3347,-3.214693 -7.26171,-7.143762 z"
       id="path4727"
       inkscape:connector-curvature="0" />
    <path
       style="fill:#ffffff;stroke:#ff0000;stroke-width:0.354;stroke-miterlimit:4;stroke-dasharray:none;stroke-opacity:1"
       d="m 100.61639,12.0026 c 0,-0.128067 20.40696,-20.5218681 20.53511,-20.5218681 0.15614,0 0.0617,0.4966784 -0.89344,4.7006628 -0.47445,2.0881798 -0.9124,4.04045183 -0.97322,4.33838695 -0.0608,0.29793276 -0.24192,1.11150845 -0.40245,1.80794625 -0.16053,0.6964378 -0.49037,2.1611843 -0.73298,3.2549923 -0.6415,2.8922074 -0.57113,2.7284458 -1.2372,2.8792229 -0.31168,0.070553 -1.2989,0.2928097 -2.19383,0.4939045 -2.60072,0.5843873 -4.76813,1.0750534 -6.38808,1.4461594 -0.82864,0.189829 -2.26596,0.515174 -3.19404,0.722991 -0.92808,0.207815 -2.26073,0.510254 -2.96145,0.672089 -1.37424,0.317386 -1.55842,0.341674 -1.55842,0.205513 z"
       id="path4719"
       inkscape:connector-curvature="0" />
  </g>
  <g
     style="stroke-width:8.91338539"
     id="g4676"
     transform="matrix(0.09774315,0,0,0.09774315,73.192809,-23.822431)">
    <path
       inkscape:connector-curvature="0"
       id="path4664"
       d="m -837.68721,245.145 c 2.77075,-0.59422 6.0554,-1.92229 7.29922,-2.95127 l 2.2615,-1.87088 -72.72138,-72.76924 -72.72137,-72.76925 -26.27863,26.06249 c -15.11733,14.99296 -28.35013,27.26345 -31.15583,28.89007 -9.9645,5.77702 -23.2436,7.82215 -34.8236,5.36322 -11.8393,-2.51401 -15.5211,-5.32664 -43.9486,-33.57309 -22.8927,-22.74693 -26.9103,-26.33761 -28.5,-25.47184 -3.409,1.85657 -143.3506,142.86879 -143.3506,144.44729 0,1.42901 5.1647,3.91903 10.5,5.06232 1.1,0.23572 97.9403,0.48078 215.2008,0.54458 149.34948,0.0813 214.70951,-0.20757 218.23849,-0.9644 z"
       style="fill:#ff0000;stroke-width:8.91338539" />
    <path
       inkscape:connector-curvature="0"
       id="path4662"
       d="m -1220.8927,156.98477 c 39.7464,-39.73234 72.2662,-72.69367 72.2662,-73.24739 0,-1.42799 -142.2442,-143.51198 -143.6738,-143.51198 -0.6485,0 -2.4497,2.5875 -4.0027,5.75 l -2.8235,5.75 -0.2681,131.932 c -0.2415,118.90833 -0.1088,132.48164 1.3446,137.5 1.5521,5.3594 2.9889,8.068 4.2798,8.068 0.3362,0 33.1311,-32.50828 72.8775,-72.24063 z"
       style="fill:#ff0000;stroke-width:8.91338539" />
    <path
       inkscape:connector-curvature="0"
       id="path4660"
       d="m -812.67234,219.94416 c 0.75351,-3.63109 1.00127,-45.22413 0.81441,-136.71876 l -0.26856,-131.5 -2.28888,-4.96501 c -1.25888,-2.73076 -2.83388,-5.30807 -3.5,-5.72737 -1.30492,-0.8214 -143.71112,140.73187 -143.71112,142.85038 0,0.63978 32.49473,33.64808 72.2105,73.35178 71.37872,71.357 72.23037,72.16399 73.93559,70.05814 0.9488,-1.17172 2.21242,-4.47884 2.80806,-7.34916 z"
       style="fill:#ff0000;stroke-width:8.91338539" />
    <path
       inkscape:connector-curvature="0"
       id="path4648"
       d="m -1202.6265,-44.57826 v -49.803646 l 2.6285,-5.27463 c 3.1254,-6.271894 9.8679,-11.963574 18.1194,-15.295434 l 5.7521,-2.32263 117.4756,-0.27407 c 78.81232,-0.18386 119.1292,0.0696 122.5,0.77022 11.67698,2.42696 21.25595,9.08483 25.1731,17.496574 l 2.33177,5.00728 0.01,49.749996 c 0.008,39.23386 0.27505,49.75 1.26477,49.75 1.57891,0 75.745,-74.09252 75.745,-75.66987 0,-0.638 -2.15887,-2.885776 -4.79749,-4.995056 -2.63863,-2.10929 -16.47613,-13.80341 -30.75,-25.986944 -24.85389,-21.21393 -54.38674,-46.36959 -96.45274,-82.15683 -29.94988,-25.47957 -45.35841,-38.61579 -58.81591,-50.14246 -6.7738,-5.80186 -14.1042,-11.75289 -16.2899,-13.22451 -9.954,-6.70223 -24.7136,-6.10022 -35.2252,1.43677 -2.4844,1.7814 -20.6388,16.98269 -40.3431,33.78065 -95.2599,81.20949 -126.477,107.7623 -144.5574,122.958254 -10.7976,9.075 -19.908,17.152396 -20.2455,17.949776 -0.4171,0.98563 11.3248,13.39133 36.6767,38.75 20.5097,20.51512 37.855,37.30022 38.5453,37.30022 0.9899,0 1.255,-10.52157 1.255,-49.80366 z"
       style="fill:#ff0000;stroke-width:8.91338539" />
  </g>
  <path
     style="fill:#ff0000;stroke-width:0.1958809"
     d="m 1.1318462,13.068524 c -0.09704,0 -0.1779108,0.265995 -0.2448408,0.860912 -0.066929,0.594916 -0.119829,1.518617 -0.1605812,2.835512 -0.081505,2.633793 -0.1144029,6.83902 -0.1147875,13.123101 l -5.836e-4,10.649046 0.5312002,0.9757 c 0.2374713,0.436312 0.6257121,0.896966 1.0611808,1.288926 0.4354687,0.391961 0.9181201,0.715707 1.3457081,0.878007 0.1615997,0.06133 9.7508788,0.118494 21.3097028,0.126999 10.191329,0.0075 15.451066,0.0081 18.252545,-0.03846 1.40074,-0.02332 2.18732,-0.05824 2.668208,-0.110514 0.480894,-0.05228 0.656427,-0.121539 0.83588,-0.213092 0.236655,-0.120731 0.484609,-0.289462 0.727809,-0.48785 0.243196,-0.198386 0.481098,-0.42652 0.697885,-0.666136 0.216787,-0.239618 0.412247,-0.490711 0.569667,-0.735133 0.157426,-0.244425 0.276818,-0.482033 0.341925,-0.694836 0.06094,-0.199187 0.123469,-1.398969 0.178898,-3.329469 0.05542,-1.9305 0.104163,-4.591907 0.138602,-7.714622 0.06296,-5.709929 0.172091,-11.770034 0.242395,-13.466853 0.05977,-1.442441 0.08597,-2.213583 0.05618,-2.624254 -0.01493,-0.205335 -0.04404,-0.320814 -0.08975,-0.384662 -0.04573,-0.06385 -0.108286,-0.07632 -0.190501,-0.07632 -0.193448,0 -1.286334,0.498017 -2.42887,1.106974 -3.749173,1.998253 -7.245229,3.909496 -10.366961,5.66553 -3.121738,1.756034 -5.869276,3.357086 -8.123096,4.735624 -0.742762,0.454302 -1.4483,0.856023 -1.986203,1.136892 -0.53791,0.280867 -0.90843,0.440907 -0.981809,0.412749 C 25.254886,26.265969 19.794043,23.261011 13.265844,19.644423 6.7376119,16.027837 1.2770026,13.068524 1.1318462,13.068524 Z"
     id="path4787"
     inkscape:connector-curvature="0" />
  <path
     style="fill:#ff0000;stroke-width:0.1958809"
     d="M 25.096323,6.0291984 C 15.13962,6.0275923 9.9153309,6.0303762 7.0867904,6.0774359 5.6725183,6.1009711 4.8568847,6.1358348 4.3483581,6.1861175 3.8398315,6.2364108 3.6384031,6.3020738 3.4514227,6.3888285 3.020487,6.5887759 2.3631576,7.0728357 1.9909263,7.4640531 1.6959966,7.7740259 1.5357447,7.9608426 1.480485,8.100272 c -0.055256,0.1394294 -0.00579,0.2315164 0.1184519,0.3523018 0.2432393,0.2365415 6.1367819,3.5401012 12.0179601,6.7859372 5.881176,3.245834 11.750458,6.433894 11.945298,6.43913 0.202367,0.0055 1.259659,-0.549085 2.350103,-1.232142 1.882648,-1.179284 4.512572,-2.720377 7.728665,-4.532303 3.216099,-1.811925 7.018536,-3.894706 11.2468,-6.1582627 0.642562,-0.343989 1.119867,-0.6271929 1.436691,-0.8529755 0.316818,-0.2257815 0.473194,-0.3940645 0.473194,-0.5079981 0,-0.1128137 -0.08109,-0.275108 -0.216145,-0.4609846 C 48.446442,7.7470975 48.257539,7.5377981 48.041756,7.3309476 47.610189,6.9172449 47.07134,6.5134333 46.642924,6.3283822 46.493577,6.2638693 46.208405,6.2132408 45.580522,6.1732952 c -0.627879,-0.03995 -1.598293,-0.069235 -3.118209,-0.090361 -3.03982,-0.042252 -8.277075,-0.052264 -17.36599,-0.053731 z"
     id="path4785"
     inkscape:connector-curvature="0" />
</svg>
