<?xml version="1.0" encoding="UTF-8" standalone="no"?>
<!-- Created with Inkscape (http://www.inkscape.org/) -->

<svg
   xmlns:dc="http://purl.org/dc/elements/1.1/"
   xmlns:cc="http://creativecommons.org/ns#"
   xmlns:rdf="http://www.w3.org/1999/02/22-rdf-syntax-ns#"
   xmlns:svg="http://www.w3.org/2000/svg"
   xmlns="http://www.w3.org/2000/svg"
   xmlns:sodipodi="http://sodipodi.sourceforge.net/DTD/sodipodi-0.dtd"
   xmlns:inkscape="http://www.inkscape.org/namespaces/inkscape"
   width="100"
   height="100"
   viewBox="0 0 26.458333 26.458334"
   version="1.1"
   id="svg8"
   inkscape:version="0.92.3 (2405546, 2018-03-11)"
   sodipodi:docname="grow-10.svg">
  <defs
     id="defs2" />
  <sodipodi:namedview
     id="base"
     pagecolor="#ffffff"
     bordercolor="#666666"
     borderopacity="1.0"
     inkscape:pageopacity="0.0"
     inkscape:pageshadow="2"
     inkscape:zoom="7.919596"
     inkscape:cx="52.650602"
     inkscape:cy="50.162735"
     inkscape:document-units="mm"
     inkscape:current-layer="g4529"
     showgrid="false"
     units="px"
     inkscape:window-width="1920"
     inkscape:window-height="1186"
     inkscape:window-x="-11"
     inkscape:window-y="-11"
     inkscape:window-maximized="1" />
  <metadata
     id="metadata5">
    <rdf:RDF>
      <cc:Work
         rdf:about="">
        <dc:format>image/svg+xml</dc:format>
        <dc:type
           rdf:resource="http://purl.org/dc/dcmitype/StillImage" />
        <dc:title></dc:title>
      </cc:Work>
    </rdf:RDF>
  </metadata>
  <g
     inkscape:label="Layer 1"
     inkscape:groupmode="layer"
     id="layer1"
     transform="translate(0,-270.54165)">
    <g
       id="g4529"
       transform="translate(29.399648,9.0871644)">
      <rect
         style="opacity:1;fill:#ffffff;fill-opacity:1;fill-rule:nonzero;stroke:none;stroke-width:0.07540625;stroke-miterlimit:4;stroke-dasharray:none;stroke-opacity:1"
         id="rect4519"
         width="26.359457"
         height="26.392866"
         x="-29.299421"
         y="261.48654" />
      <g
         id="g825"
         transform="matrix(1.30144,0,0,1.30144,4.8744288,-82.800533)">
        <path
           sodipodi:nodetypes="ccccssccsscccccscccsscsssccccccscc"
           inkscape:connector-curvature="0"
           id="path4557"
           d="m -18.37404,278.27738 c 0,-0.022 0.340612,-0.3085 0.5787,-0.48677 0.624254,-0.46742 1.25925,-0.79281 1.671075,-0.8563 0.06527,-0.0101 0.129278,-0.0213 0.142243,-0.0251 0.01968,-0.006 0.02192,-0.07 0.01358,-0.38983 -0.01837,-0.70408 -0.129956,-1.35801 -0.327146,-1.91708 l -0.0654,-0.18543 -0.344877,-0.003 c -0.756409,-0.006 -1.259896,-0.15847 -1.618474,-0.49046 -0.461749,-0.42751 -0.611802,-1.09048 -0.453347,-2.00299 0.06199,-0.35702 0.200166,-0.82604 0.339462,-1.1523 l 0.03189,-0.0747 0.113075,0.11142 c 0.23696,0.23348 0.635097,0.49873 1.183512,0.78846 0.312292,0.16499 0.426894,0.24436 0.574875,0.39815 0.232513,0.24163 0.364237,0.51865 0.447768,0.94167 0.02277,0.11533 0.02998,0.23458 0.03004,0.49729 5e-5,0.19006 -0.0059,0.37497 -0.01331,0.4109 l -0.0134,0.0653 -0.08773,-0.15805 c -0.216256,-0.38955 -0.493333,-0.72551 -0.845523,-1.0252 -0.323274,-0.27509 -0.428164,-0.31373 -0.471142,-0.17357 -0.01335,0.0436 -0.0087,0.0482 0.209854,0.20978 0.178636,0.13207 0.387099,0.33982 0.571812,0.56987 0.292233,0.36396 0.438492,0.63647 0.609092,1.13486 l 0.108677,0.31748 c 0.18994,0.81512 0.161589,0.9044 0.261288,1.87248 v 0.13031 0.13032 l 0.118446,0.0196 c 0.29972,0.0495 0.767165,0.25443 1.177976,0.51642 0.245625,0.15665 0.677129,0.47566 0.831808,0.61495 0.08605,0.0775 0.09693,0.0946 0.09693,0.15208 -0.299939,0.57183 -3.938631,0.61997 -4.87175,0.0591 z"
           style="fill:#cdd0d7;fill-opacity:1;stroke-width:0.01685727" />
        <path
           inkscape:connector-curvature="0"
           id="path4531"
           d="m -15.873505,273.57291 c -0.01724,-0.0449 0.0234,-0.308 0.06767,-0.438 0.109079,-0.32031 0.341084,-0.64345 0.612107,-0.85254 0.09789,-0.0755 0.119742,-0.13791 0.05545,-0.15832 -0.04377,-0.0139 -0.165367,0.0777 -0.329779,0.24833 -0.148028,0.15365 -0.23763,0.2734 -0.323708,0.43263 l -0.06725,0.12441 -0.01233,-0.13159 c -0.01496,-0.15968 4.46e-4,-0.38235 0.03603,-0.52065 0.07562,-0.29392 0.225289,-0.4701 0.55459,-0.65282 0.234826,-0.13031 0.451635,-0.28086 0.577361,-0.40092 0.04867,-0.0465 0.08853,-0.0828 0.08856,-0.0807 3.3e-5,0.002 0.0231,0.0604 0.05127,0.12951 0.0593,0.14554 0.141761,0.44688 0.16771,0.6129 0.02747,0.17574 0.02302,0.48048 -0.0088,0.60449 -0.124463,0.48465 -0.520074,0.72108 -1.207808,0.72182 l -0.129449,1.2e-4 -0.01751,0.0885 c -0.0096,0.0487 -0.02348,0.13392 -0.03077,0.18943 -0.01,0.0762 -0.02049,0.10232 -0.04273,0.1066 -0.01621,0.003 -0.03447,-0.007 -0.04057,-0.0232 z"
           style="fill:#cdd0d7;fill-opacity:1;stroke-width:0.01685727" />
      </g>
    </g>
  </g>
</svg>
