<?xml version="1.0" encoding="UTF-8" standalone="no"?>
<!-- Created with Inkscape (http://www.inkscape.org/) -->

<svg
   xmlns:dc="http://purl.org/dc/elements/1.1/"
   xmlns:cc="http://creativecommons.org/ns#"
   xmlns:rdf="http://www.w3.org/1999/02/22-rdf-syntax-ns#"
   xmlns:svg="http://www.w3.org/2000/svg"
   xmlns="http://www.w3.org/2000/svg"
   xmlns:sodipodi="http://sodipodi.sourceforge.net/DTD/sodipodi-0.dtd"
   xmlns:inkscape="http://www.inkscape.org/namespaces/inkscape"
   version="1.1"
   id="svg2"
   width="50"
   height="50"
   viewBox="0 0 50 50"
   sodipodi:docname="linkedin.svg"
   inkscape:version="0.92.1 r15371">
  <metadata
     id="metadata8">
    <rdf:RDF>
      <cc:Work
         rdf:about="">
        <dc:format>image/svg+xml</dc:format>
        <dc:type
           rdf:resource="http://purl.org/dc/dcmitype/StillImage" />
        <dc:title />
      </cc:Work>
    </rdf:RDF>
  </metadata>
  <defs
     id="defs6" />
  <sodipodi:namedview
     pagecolor="#ffffff"
     bordercolor="#666666"
     borderopacity="1"
     objecttolerance="10"
     gridtolerance="10"
     guidetolerance="10"
     inkscape:pageopacity="0"
     inkscape:pageshadow="2"
     inkscape:window-width="1366"
     inkscape:window-height="706"
     id="namedview4"
     showgrid="false"
     inkscape:zoom="7.2407734"
     inkscape:cx="31.540919"
     inkscape:cy="30.389899"
     inkscape:window-x="-8"
     inkscape:window-y="-8"
     inkscape:window-maximized="1"
     inkscape:current-layer="svg2" />
  <g
     id="g4499"
     transform="matrix(0.4190244,0,0,0.4190244,-22.155773,15.431065)"
     style="fill:#ff0000">
    <path
       style="fill:#ff0000;stroke-width:0.5173611"
       d="m 58.754981,80.995542 c -2.246894,-0.785163 -3.644555,-2.240231 -4.321203,-4.498678 -0.866808,-2.89315 -0.844233,-104.439351 0.02367,-106.473582 0.912554,-2.138885 1.998389,-3.256074 3.962189,-4.076602 2.621637,-1.09539 104.625433,-1.09539 107.247073,0 1.9638,0.820528 3.04964,1.937717 3.96219,4.076602 0.86434,2.025864 0.89148,103.89791 0.0284,106.474845 -0.81752,2.440806 -2.21012,3.831581 -4.5337,4.527742 C 162.45783,81.82454 61.044574,81.79563 58.754981,80.995542 Z M 87.985883,36.609181 V 9.7064036 H 79.966786 71.947689 V 36.609181 63.511959 h 8.019097 8.019097 z m 26.481487,10.735243 c 0.15225,-15.137375 0.23177,-16.316964 1.24793,-18.512748 2.03584,-4.399173 6.04828,-6.521518 11.47808,-6.071238 5.14113,0.426342 7.63237,3.719196 8.41076,11.117128 0.26287,2.498306 0.48208,10.188082 0.48713,17.088386 l 0.009,12.546007 h 8.01909 8.0191 v -17.03548 c 0,-9.369513 -0.2506,-18.837227 -0.55689,-21.039364 -1.51209,-10.871509 -6.26366,-15.6040532 -16.60793,-16.5414267 -7.26167,-0.6580347 -12.96338,1.3794927 -17.37841,6.2102407 -1.44681,1.583039 -2.87073,2.878252 -3.16426,2.878252 -0.30779,0 -0.59767,-1.697223 -0.68481,-4.009548 L 113.59526,9.9650841 105.96418,9.8219132 98.333106,9.6787423 V 36.595352 63.511959 h 7.985834 7.98582 z M 85.179259,0.13980061 c 3.258919,-1.90985411 4.617388,-4.42268831 4.617388,-8.54103591 0,-2.6248497 -0.265341,-3.7896197 -1.209087,-5.3075287 -4.073602,-6.551933 -14.245544,-6.068488 -17.457401,0.829703 -1.623683,3.4872292 -1.578678,5.8036168 0.178096,9.1664671 1.069606,2.0474592 2.002846,3.04027674 3.7029,3.93928686 3.174791,1.67886994 7.213957,1.64435264 10.168104,-0.0868923 z"
       id="path4513"
       inkscape:connector-curvature="0" />
    <path
       style="fill:#ff0000;stroke-width:0.5173611"
       d="m 58.754981,80.893161 c -1.904522,-0.851245 -3.629449,-2.673857 -4.363107,-4.610195 -0.828317,-2.186166 -0.76656,-103.790865 0.06427,-105.742323 0.338853,-0.795898 1.095494,-1.991243 1.681424,-2.656324 2.43508,-2.764023 0.519842,-2.674275 56.098132,-2.628768 55.20925,0.04521 53.34941,-0.04244 55.72809,2.626048 2.34397,2.629558 2.306,1.638667 2.16138,56.402452 -0.13651,51.692545 -0.14562,52.097131 -1.20424,53.514908 -0.58668,0.785721 -1.70955,1.908591 -2.49527,2.495268 -1.41843,1.059111 -1.80056,1.067492 -53.77359,1.179672 -42.837886,0.09246 -52.626904,-0.01302 -53.897091,-0.580738 z M 88.244564,36.609181 V 9.447723 H 79.966786 71.689008 L 71.554457,36.09182 c -0.074,14.654254 -0.02083,26.941052 0.118166,27.303992 0.193363,0.504913 2.16911,0.62642 8.412329,0.517361 l 8.159612,-0.142533 z m 26.652186,10.864584 c 0.18729,-11.441079 0.46089,-16.740926 0.91827,-17.787191 1.96423,-4.493219 5.06956,-6.498397 10.09326,-6.51742 3.40886,-0.01293 5.51023,0.875825 6.98852,2.955658 2.00959,2.827321 2.28813,5.123634 2.62106,21.607633 l 0.32393,16.038195 h 8.27777 8.27778 v -18.625 c 0,-20.010457 -0.28369,-23.003826 -2.65668,-28.031593 -2.29768,-4.868205 -6.37718,-7.4666361 -13.35095,-8.5038551 -7.80291,-1.1605377 -14.17713,0.8855531 -19.21143,6.1667651 l -2.80698,2.944653 -0.008,-3.619583 c -0.004,-1.99077 -0.19669,-3.917053 -0.42742,-4.2806291 -0.31676,-0.499152 -2.31042,-0.6258574 -8.14051,-0.5173611 L 98.074425,9.447723 97.939874,36.09182 c -0.074,14.654254 -0.02083,26.941052 0.118166,27.303992 0.193363,0.504913 2.16911,0.62642 8.41233,0.517361 l 8.15961,-0.142533 z M 85.692594,0.26456328 c 3.281661,-2.22503408 4.624275,-4.85168988 4.611956,-9.02271048 -0.008,-2.7194548 -0.245341,-3.5380188 -1.573601,-5.4279018 -2.21268,-3.14826 -4.90616,-4.543339 -8.792214,-4.553898 -4.426734,-0.01203 -7.537173,1.979229 -9.380288,6.005122 -1.516943,3.3134379 -1.421473,6.0259668 0.333137,9.4652863 1.757345,3.44468128 4.817669,5.1311518 9.404754,5.1827321 2.466946,0.027741 3.298509,-0.2263139 5.396256,-1.64863012 z"
       id="path4511"
       inkscape:connector-curvature="0" />
    <path
       style="fill:#ff0000;stroke-width:0.5173611"
       d="m 58.153205,80.318766 c -1.400159,-0.839268 -2.531661,-2.071473 -3.233507,-3.521294 -1.07239,-2.215263 -1.079648,-2.575429 -1.079648,-53.578357 0,-36.94309 0.162873,-51.665117 0.580576,-52.478147 0.858282,-1.670587 3.106147,-3.966832 4.696683,-4.797766 1.175935,-0.614338 9.569094,-0.727364 53.029511,-0.714122 36.65104,0.01117 51.9327,0.181375 52.66719,0.586608 1.64817,0.909327 3.90984,3.157756 4.70244,4.674919 0.61394,1.175179 0.72985,9.550581 0.72985,52.736833 0,51.066578 -0.006,51.351696 -1.08441,53.579877 -0.72307,1.493668 -1.81567,2.668642 -3.27897,3.526189 l -2.19454,1.286092 -51.69066,-0.0049 -51.690656,-0.0049 z M 88.706573,63.210964 c 0.410201,-1.068967 0.410201,-52.1346 0,-53.203566 C 88.437888,9.3072165 87.167833,9.1890424 79.911434,9.1890424 H 71.430328 V 36.609181 64.02932 h 8.481106 c 7.256399,0 8.526454,-0.118175 8.795139,-0.818356 z m 26.385417,0 c 0.17272,-0.450094 0.31533,-7.609079 0.31692,-15.908855 0.002,-8.933579 0.22431,-15.887828 0.54558,-17.044741 0.85506,-3.079043 3.2586,-5.422125 6.54083,-6.376294 5.20851,-1.514151 8.87654,-0.163135 11.16202,4.111215 1.10243,2.061782 1.16013,2.838864 1.40831,18.964115 l 0.25878,16.814236 8.6984,0.141995 8.69841,0.142 -0.18747,-20.319084 c -0.16405,-17.780666 -0.30309,-20.674557 -1.11299,-23.164564 -1.92553,-5.919968 -5.74357,-9.955689 -10.89213,-11.5131432 -1.15503,-0.3493998 -4.7774,-0.6351259 -8.04971,-0.6349464 -5.46816,3e-4 -6.21307,0.1215509 -9.20462,1.4982421 -2.16808,0.9977355 -4.09119,2.4128695 -5.75923,4.2379745 -1.37734,1.507033 -2.64815,2.596166 -2.82402,2.420295 -0.17588,-0.175871 -0.31977,-1.91065 -0.31977,-3.855066 V 9.1890424 h -8.27778 -8.277776 V 36.609181 64.02932 h 8.481106 c 7.2564,0 8.52645,-0.118175 8.79514,-0.818356 z M 84.735314,1.2456527 c 3.750889,-1.93965971 5.837375,-5.3878017 5.837375,-9.646888 0,-3.1479617 -0.890326,-5.4321977 -2.902396,-7.4464417 -4.596956,-4.601922 -11.373802,-4.411902 -15.632358,0.438325 -2.154431,2.453761 -2.677052,3.832502 -2.677052,7.0624075 0,7.76846578 8.56627,13.1132344 15.374431,9.5925972 z"
       id="path4509"
       inkscape:connector-curvature="0" />
    <path
       style="fill:#ff0000;stroke-width:0.5173611"
       d="m 59.273495,80.808609 c -2.224645,-1.165791 -3.338116,-2.285412 -4.46113,-4.48577 -0.954397,-1.869981 -0.982507,-3.640085 -0.85033,-53.546875 l 0.136696,-51.612963 1.22,-1.625486 c 0.671,-0.894017 1.951469,-2.174486 2.845486,-2.845486 l 1.625486,-1.22 h 52.253477 52.25347 l 1.62548,1.22 c 0.89402,0.671 2.17449,1.951469 2.84549,2.845486 l 1.22,1.625486 0.1367,51.612963 c 0.13447,50.773892 0.11983,51.646018 -0.90061,53.646245 -0.57051,1.118302 -1.89432,2.687003 -2.94178,3.485995 l -1.90447,1.452713 -51.77652,0.130215 C 66.376663,81.607383 60.658112,81.534177 59.273495,80.808609 Z M 88.761925,36.609181 V 8.9303619 H 79.966786 71.171647 L 71.037142,36.09182 c -0.07398,14.938802 -0.02091,27.458129 0.117923,27.820721 0.193687,0.505845 2.271674,0.62624 8.929644,0.517362 l 8.677216,-0.141902 z m 26.658835,11.123264 c 0.29552,-17.893906 0.3695,-18.38319 3.22755,-21.346205 3.75778,-3.895776 12.04125,-3.567423 14.17664,0.561962 1.66164,3.213268 1.85467,5.081894 2.17372,21.042924 l 0.32576,16.296875 h 8.79513 8.79514 l -0.0176,-19.659722 c -0.0155,-17.258624 -0.1307,-20.070435 -0.94375,-23.02257 -2.29737,-8.341706 -6.7422,-12.2008494 -15.56365,-13.5128782 -7.61805,-1.1330425 -15.13343,1.250944 -19.4683,6.1756212 l -2.03275,2.309325 v -3.372339 c 0,-2.241555 -0.24019,-3.5716828 -0.71634,-3.9668443 -0.4886,-0.4055035 -3.24359,-0.5490008 -8.66579,-0.4513691 L 97.557064,8.9303619 97.422559,36.09182 c -0.07398,14.938802 -0.02091,27.458129 0.117923,27.820721 0.193686,0.505845 2.271674,0.62624 8.929638,0.517362 l 8.67722,-0.141902 z M 84.821971,1.4591056 c 10.483227,-5.3481434 6.792792,-20.7498166 -4.963915,-20.7164136 -9.272347,0.02634 -14.20814,10.6642326 -8.283144,17.8522802 3.050469,3.7007477 9.060205,5.0001069 13.247059,2.8641334 z"
       id="path4507"
       inkscape:connector-curvature="0" />
    <path
       style="fill:#ff0000;stroke-width:0.5173611"
       d="M 59.634744,80.758797 C 57.373246,79.638891 54.443816,76.156585 54.086151,74.163017 53.928544,73.284533 53.866898,49.86656 53.949161,22.12307 l 0.14957,-50.442708 1.393379,-1.821101 c 0.766359,-1.001605 2.163234,-2.39848 3.104167,-3.104167 l 1.710787,-1.283065 h 51.736116 51.73611 l 1.8211,1.393379 c 1.0016,0.766359 2.39848,2.163234 3.10416,3.104167 l 1.28307,1.710787 v 51.736111 51.736111 l -1.20014,1.682608 c -0.66007,0.925435 -2.03876,2.32231 -3.06375,3.104167 l -1.86363,1.421558 -51.25916,0.121611 c -46.543919,0.110426 -51.416181,0.04382 -52.966196,-0.723731 z m 29.58919,-17.030472 c 0.41021,-1.068987 0.41021,-53.169298 0,-54.2382886 -0.269701,-0.7028288 -1.584335,-0.8183551 -9.3125,-0.8183551 h -8.998467 v 27.9374997 27.9375 h 8.998467 c 7.728165,0 9.042799,-0.115526 9.3125,-0.818356 z m 26.385416,0 c 0.17272,-0.450094 0.31403,-7.748947 0.31403,-16.219669 0,-10.267865 0.19882,-15.987494 0.59649,-17.159948 1.49289,-4.401429 4.30778,-6.268792 9.52366,-6.317864 3.99573,-0.03761 5.60458,0.913402 7.1305,4.214854 1.0504,2.272601 1.13081,3.397593 1.37435,19.228067 l 0.25868,16.814236 9.18316,0.141276 9.18316,0.141281 -0.004,-19.283643 c -0.004,-16.874172 -0.12205,-19.776723 -0.9485,-23.229964 -1.60742,-6.716333 -4.29481,-10.207069 -9.80978,-12.7422436 -3.84174,-1.7660085 -11.6554,-2.2051115 -16.3975,-0.9214864 -3.46572,0.9381263 -8.59759,4.147193 -9.58621,5.994465 -0.95997,1.793701 -1.48587,1.082029 -1.64334,-2.223817 L 114.62998,8.9303619 105.96418,8.7885123 97.298383,8.6466628 V 36.596672 64.546681 h 8.998467 c 7.72816,0 9.0428,-0.115526 9.3125,-0.818356 z M 84.915084,1.5579661 c 3.825098,-1.9396598 5.775639,-4.7886847 6.070635,-8.866973 0.39207,-5.4203031 -1.666912,-9.0728551 -6.341541,-11.2496461 -1.434371,-0.66793 -3.555654,-1.216693 -4.713962,-1.219473 -3.086766,-0.0074 -7.37179,2.341862 -9.272728,5.083784 -1.401488,2.021513 -1.555285,2.639171 -1.555285,6.2461153 0,3.4998894 0.178619,4.2726769 1.421768,6.1512016 1.57309,2.37709948 3.053066,3.5057372 5.955326,4.541564 2.985596,1.0655699 5.361877,0.8721689 8.435787,-0.6865728 z"
       id="path4505"
       inkscape:connector-curvature="0" />
    <path
       style="fill:#ff0000;stroke-width:0.5173611"
       d="m 60.904234,81.258392 c -1.388781,-0.36519 -3.516609,-2.158669 -5.770781,-4.863996 -1.016588,-1.220047 -1.03742,-2.116778 -1.188645,-51.167159 -0.142556,-46.238416 -0.01505,-54.923027 0.794464,-54.11351 0.167331,0.167331 0.72977,-0.39549 1.249863,-1.250715 0.520093,-0.855225 1.704393,-2.017582 2.631777,-2.583014 0.927383,-0.565433 1.453339,-1.052137 1.168791,-1.081564 -0.284549,-0.02943 0.06467,-0.239904 0.776041,-0.467725 1.689846,-0.541183 101.265016,-0.541183 102.954866,0 0.71137,0.227821 1.06059,0.438297 0.77604,0.467725 -0.28455,0.02943 0.2414,0.516131 1.16879,1.081564 0.92738,0.565432 2.11168,1.727789 2.63177,2.583014 0.5201,0.855225 1.08253,1.418046 1.24987,1.250715 0.80951,-0.809517 0.93702,7.875094 0.79446,54.11351 -0.15123,49.050381 -0.17205,49.947112 -1.18864,51.167159 -1.3084,1.570263 -2.36154,2.623403 -3.9318,3.931799 -1.22196,1.018177 -2.05656,1.035912 -52.20188,1.10901 -28.028042,0.04087 -51.389784,-0.0387 -51.914986,-0.176813 z M 89.279286,36.609181 V 8.4130008 L 80.552563,8.270875 c -5.996879,-0.097666 -8.950422,0.043531 -9.44184,0.4513691 -0.991347,0.8227454 -1.071226,54.7440219 -0.08256,55.7326889 0.46062,0.460616 3.027015,0.594209 9.441841,0.491493 l 8.809284,-0.141064 z m 26.644094,11.381945 c 0.25759,-16.743291 0.26414,-16.824061 1.55209,-19.142361 1.83017,-3.294308 4.84493,-4.786351 9.16644,-4.53658 3.87465,0.22394 5.39623,1.390383 6.62002,5.074873 0.67341,2.02743 0.81127,5.138301 0.78531,17.720906 -0.0184,8.902895 0.18193,15.823081 0.48071,16.608932 l 0.51219,1.347146 h 8.74459 c 7.01602,0 8.86792,-0.148591 9.36846,-0.75171 0.47118,-0.567736 0.57148,-5.537497 0.40982,-20.306423 -0.17972,-16.419433 -0.35527,-20.046207 -1.0949,-22.620151 -2.4929,-8.6754 -6.94566,-12.5127477 -16.04633,-13.8285672 -7.50202,-1.0846801 -14.44431,0.8731121 -18.90164,5.3304422 l -2.11412,2.114114 v -2.423003 c 0,-4.4563175 0.0665,-4.4244238 -9.22723,-4.4244238 -5.65382,0 -8.346572,0.1904707 -8.776934,0.6208334 -0.905624,0.9056235 -0.894283,54.7737714 0.01172,55.6797794 0.46062,0.460616 3.027014,0.594209 9.441844,0.491493 l 8.80928,-0.141064 z M 86.5081,1.1527036 c 2.874634,-2.02036856 5.099311,-6.1737684 5.099311,-9.5202468 0,-3.4281928 -2.211366,-7.6067908 -5.076875,-9.5932628 -1.87827,-1.302084 -2.819807,-1.573422 -5.949653,-1.714607 -4.678166,-0.21103 -7.569909,1.152625 -10.008288,4.719591 -2.881829,4.215665 -2.881829,8.8742978 0,13.1343206 2.420847,3.5785827 5.292238,4.9280658 10.008288,4.7036501 3.133141,-0.1490916 4.065876,-0.4212452 5.927217,-1.7294451 z"
       id="path4503"
       inkscape:connector-curvature="0" />
    <path
       style="fill:#ff0000;stroke-width:0.5173611"
       d="m 60.904234,81.258392 c -2.02838,-0.533379 -5.512101,-4.010785 -5.512101,-5.502104 0,-0.990007 0.08888,-0.971185 1.422743,0.301311 0.782509,0.746505 2.078134,1.604906 2.879167,1.907557 0.993029,0.375195 17.64907,0.550275 52.349137,0.550275 34.70006,0 51.3561,-0.17508 52.34913,-0.550275 0.80103,-0.302651 2.09665,-1.161052 2.87916,-1.907557 1.33387,-1.272496 1.42275,-1.291318 1.42275,-0.301311 0,1.039223 -1.19721,2.53302 -3.66256,4.569907 -1.23226,1.018105 -2.07092,1.035918 -52.21244,1.10901 -28.028042,0.04087 -51.389784,-0.0387 -51.914986,-0.176813 z m -6.483432,-5.847127 c -0.04264,-0.426823 -0.206765,-1.358073 -0.364732,-2.069445 -0.248255,-1.117971 -0.207594,-1.168584 0.299779,-0.373141 0.322844,0.506139 0.486974,1.437389 0.364731,2.069444 -0.122242,0.63205 -0.257142,0.799965 -0.299778,0.373142 z M 169.27107,74.893904 c -0.024,-0.711372 0.18203,-1.642622 0.45787,-2.069445 0.44579,-0.689813 0.49667,-0.689813 0.45787,0 -0.024,0.426823 -0.23005,1.358073 -0.45787,2.069445 l -0.41422,1.293402 -0.0437,-1.293402 z"
       id="path4501"
       inkscape:connector-curvature="0" />
  </g>
</svg>
