<?xml version="1.0" encoding="UTF-8" standalone="no"?>
<!-- Created with Inkscape (http://www.inkscape.org/) -->

<svg
   xmlns:dc="http://purl.org/dc/elements/1.1/"
   xmlns:cc="http://creativecommons.org/ns#"
   xmlns:rdf="http://www.w3.org/1999/02/22-rdf-syntax-ns#"
   xmlns:svg="http://www.w3.org/2000/svg"
   xmlns="http://www.w3.org/2000/svg"
   xmlns:sodipodi="http://sodipodi.sourceforge.net/DTD/sodipodi-0.dtd"
   xmlns:inkscape="http://www.inkscape.org/namespaces/inkscape"
   version="1.1"
   id="svg2"
   width="50"
   height="50"
   viewBox="0 0 50 50"
   sodipodi:docname="location.svg"
   inkscape:version="0.92.1 r15371">
  <metadata
     id="metadata8">
    <rdf:RDF>
      <cc:Work
         rdf:about="">
        <dc:format>image/svg+xml</dc:format>
        <dc:type
           rdf:resource="http://purl.org/dc/dcmitype/StillImage" />
        <dc:title />
      </cc:Work>
    </rdf:RDF>
  </metadata>
  <defs
     id="defs6" />
  <sodipodi:namedview
     pagecolor="#ffffff"
     bordercolor="#666666"
     borderopacity="1"
     objecttolerance="10"
     gridtolerance="10"
     guidetolerance="10"
     inkscape:pageopacity="0"
     inkscape:pageshadow="2"
     inkscape:window-width="1366"
     inkscape:window-height="706"
     id="namedview4"
     showgrid="false"
     inkscape:zoom="5.2149125"
     inkscape:cx="-2.4549561"
     inkscape:cy="21.364708"
     inkscape:window-x="-8"
     inkscape:window-y="-8"
     inkscape:window-maximized="1"
     inkscape:current-layer="svg2" />
  <path
     style="fill:#ff0000;stroke-width:1.00000012"
     d="M 23.451129,47.032245 C 16.153367,35.849475 11.408221,26.913897 9.6261817,20.998504 8.5992398,17.589619 8.6844044,14.543127 9.9005593,11.183444 11.657384,6.3301371 15.963388,2.4474015 21.000072,1.1749824 c 1.447037,-0.36556508 2.323626,-0.46821489 3.998379,-0.46821489 0.863935,0 1.91351,0.0539406 2.332387,0.11986856 4.720742,0.74300443 8.72637,3.36615663 11.311696,7.40765103 1.574088,2.4606859 2.44192,5.4663829 2.440659,8.4531219 -0.0012,2.694371 -1.053234,6.07674 -3.512328,11.29172 -1.873765,3.973677 -5.56809,10.528713 -8.793145,15.602134 -1.660427,2.612066 -3.711449,5.711969 -3.779269,5.711969 -0.03951,0 -0.735799,-1.017444 -1.547322,-2.260987 z M 26.46613,24.873282 c 1.454425,-0.25363 3.029604,-1.021885 4.160962,-2.029407 1.904555,-1.696087 2.966,-4.54144 2.660657,-7.132261 -0.226978,-1.925886 -0.978445,-3.465008 -2.386931,-4.888804 -1.692937,-1.7113408 -3.523483,-2.4806987 -5.902367,-2.4806987 -2.378884,0 -4.20943,0.7693579 -5.902368,2.4806987 -1.413611,1.428976 -2.142024,2.922437 -2.382387,4.884585 -0.674588,5.506884 4.241153,10.126975 9.752434,9.165887 z"
     id="path4487"
     inkscape:connector-curvature="0" />
</svg>
