<?xml version="1.0" encoding="UTF-8" standalone="no"?>
<!-- Created with Inkscape (http://www.inkscape.org/) -->

<svg
   xmlns:dc="http://purl.org/dc/elements/1.1/"
   xmlns:cc="http://creativecommons.org/ns#"
   xmlns:rdf="http://www.w3.org/1999/02/22-rdf-syntax-ns#"
   xmlns:svg="http://www.w3.org/2000/svg"
   xmlns="http://www.w3.org/2000/svg"
   xmlns:sodipodi="http://sodipodi.sourceforge.net/DTD/sodipodi-0.dtd"
   xmlns:inkscape="http://www.inkscape.org/namespaces/inkscape"
   version="1.1"
   id="svg2"
   width="50"
   height="50"
   viewBox="0 0 50 50"
   sodipodi:docname="phone.svg"
   inkscape:version="0.92.1 r15371">
  <metadata
     id="metadata8">
    <rdf:RDF>
      <cc:Work
         rdf:about="">
        <dc:format>image/svg+xml</dc:format>
        <dc:type
           rdf:resource="http://purl.org/dc/dcmitype/StillImage" />
        <dc:title></dc:title>
      </cc:Work>
    </rdf:RDF>
  </metadata>
  <defs
     id="defs6" />
  <sodipodi:namedview
     pagecolor="#ffffff"
     bordercolor="#666666"
     borderopacity="1"
     objecttolerance="10"
     gridtolerance="10"
     guidetolerance="10"
     inkscape:pageopacity="0"
     inkscape:pageshadow="2"
     inkscape:window-width="1366"
     inkscape:window-height="706"
     id="namedview4"
     showgrid="false"
     inkscape:zoom="3.6203867"
     inkscape:cx="103.6421"
     inkscape:cy="20.472773"
     inkscape:window-x="-8"
     inkscape:window-y="-8"
     inkscape:window-maximized="1"
     inkscape:current-layer="svg2" />
  <g
     id="g4914"
     transform="matrix(1.120797,0,0,1.120797,-1.2478642,-3.1879344)">
    <path
       inkscape:connector-curvature="0"
       id="path4884"
       d="m 25.238669,46.876748 c -5.690095,-0.799783 -10.465005,-3.881631 -13.946425,-9.001374 -1.28009,-1.882485 -3.96175,-6.511062 -5.1332,-8.859971 -0.41019,-0.82248 -0.81296,-1.607575 -0.89505,-1.744655 -0.28628,-0.478097 -0.63953,-1.416594 -0.7505,-1.993891 -0.0615,-0.319853 -0.20343,-0.731093 -0.31545,-0.913866 -0.4434,-0.723454 -0.81443,-4.136376 -0.70969,-6.528173 0.15002,-3.425729 0.84749,-5.8939 2.42114,-8.5678366 0.85075,-1.445579 2.40397,-3.264401 2.78772,-3.264401 0.3001,0 2.27466,4.0605286 3.59557,7.3940116 1.14706,2.894749 2.27717,6.16403 2.27717,6.587597 0,0.21809 -0.22527,0.416311 -0.70853,0.62346 -0.38968,0.16704 -0.81511,0.432144 -0.94539,0.589123 -0.36716,0.442401 -0.26365,1.71449 0.22384,2.750825 0.23644,0.502627 0.43062,1.00848 0.43151,1.124119 8.3e-4,0.115637 0.44234,1.087659 0.98099,2.160048 1.48584,2.95814 3.95724,6.55082 4.96214,7.213475 0.64642,0.426269 1.4145,0.383033 2.00375,-0.112794 0.27152,-0.228467 0.60896,-0.415394 0.74986,-0.415394 0.49017,0 4.866155,5.545723 7.538845,9.55406 1.69882,2.547768 1.75884,2.662666 1.49987,2.870902 -0.59251,0.476425 -4.21311,0.795476 -6.06817,0.534735 z"
       style="fill:#ff0000;stroke-width:0.16615756" />
    <path
       inkscape:connector-curvature="0"
       id="path4882"
       d="m 30.806859,43.662744 c -2.39404,-3.624141 -4.49684,-6.421013 -7.05012,-9.377147 -0.57478,-0.665473 -1.045065,-1.350767 -1.045065,-1.522874 0,-0.418021 1.842845,-1.793113 2.591205,-1.933506 1.11595,-0.209354 1.83577,0.247543 3.525,2.237448 1.88183,2.216773 2.78847,3.412512 4.29835,5.668955 2.26077,3.378596 2.555,4.174536 1.96497,5.315525 -0.30686,0.593409 -1.99941,1.995408 -2.40893,1.995408 -0.20304,0 -0.81222,-0.774324 -1.87541,-2.383809 z"
       style="fill:#ff0000;stroke-width:0.16615756" />
    <path
       inkscape:connector-curvature="0"
       id="path4880"
       d="m 41.184129,30.873967 c -0.42219,-0.449406 -0.44523,-0.97083 -0.10412,-2.357036 0.38503,-1.564693 0.47752,-5.264229 0.17518,-7.007687 -1.1914,-6.870398 -6.04941,-12.5280156 -12.61098,-14.6866896 -1.67652,-0.551555 -2.19444,-1.409595 -1.43422,-2.376062 0.45374,-0.576831 1.23742,-0.577926 2.84426,-0.004 7.15043,2.554083 12.53103,8.9371646 13.83455,16.4121186 0.60951,3.495167 0.0537,9.44719 -0.94764,10.148575 -0.54231,0.379849 -1.33343,0.321656 -1.75703,-0.129244 z"
       style="fill:#ff0000;stroke-width:0.16615756" />
    <path
       inkscape:connector-curvature="0"
       id="path4878"
       d="m 37.127879,29.917101 c -0.61281,-0.357028 -0.64753,-0.707449 -0.37149,-3.749261 0.2453,-2.703084 0.24482,-3.033926 -0.006,-4.27806 -1.0192,-5.050876 -4.70667,-9.235742 -9.53068,-10.816263 -0.49078,-0.160796 -1.03287,-0.4329 -1.20465,-0.604677 -0.41077,-0.410778 -0.39672,-1.1571476 0.0321,-1.7022506 0.46917,-0.596459 1.19557,-0.567913 2.99742,0.117791 5.2251,1.9884466 9.17436,6.7343286 10.35124,12.4392306 0.46389,2.24869 0.2464,6.538122 -0.40387,7.965305 -0.31397,0.68908 -1.22958,0.997684 -1.8638,0.628185 z"
       style="fill:#ff0000;stroke-width:0.16615756" />
    <path
       inkscape:connector-curvature="0"
       id="path4876"
       d="m 32.817159,28.681016 c -0.24504,-0.135202 -0.49257,-0.394037 -0.55006,-0.57519 -0.0575,-0.181154 -0.0191,-1.215408 0.0854,-2.298345 0.2073,-2.149343 0.10864,-3.097528 -0.48828,-4.692675 -0.97317,-2.600587 -3.21194,-4.78348 -5.80353,-5.658674 -0.56434,-0.190581 -1.13749,-0.505572 -1.27366,-0.699983 -0.37278,-0.532226 -0.31054,-1.325557 0.13698,-1.745987 0.50377,-0.473259 1.26681,-0.460072 2.49034,0.04304 3.17916,1.307263 5.66253,3.794321 6.90864,6.918905 0.61553,1.543418 0.83313,2.770714 0.8669,4.88936 0.0331,2.07338 -0.0956,2.738122 -0.65476,3.383988 -0.53412,0.616888 -1.12005,0.765446 -1.71793,0.435563 z"
       style="fill:#ff0000;stroke-width:0.16615756" />
    <path
       inkscape:connector-curvature="0"
       id="path4872"
       d="m 14.741264,17.924386 c -1.16932,-3.410606 -2.76646,-7.332314 -4.19349,-10.2969526 -1.34781,-2.80005 -1.35259,-2.735775 0.24349,-3.27478 1.30704,-0.441393 2.17445,-0.43832 2.90029,0.01027 0.95659,0.591205 3.47189,6.0509356 5.12207,11.1180226 0.7543,2.316166 0.71797,2.906993 -0.23445,3.812729 -0.55954,0.532131 -2.03378,1.164615 -2.71455,1.164615 -0.17961,0 -0.51054,-0.746476 -1.12336,-2.533904 z"
       style="fill:#ff0000;stroke-width:0.16615756" />
  </g>
</svg>
