<?xml version="1.0" encoding="UTF-8" standalone="no"?>
<!-- Created with Inkscape (http://www.inkscape.org/) -->

<svg
   xmlns:dc="http://purl.org/dc/elements/1.1/"
   xmlns:cc="http://creativecommons.org/ns#"
   xmlns:rdf="http://www.w3.org/1999/02/22-rdf-syntax-ns#"
   xmlns:svg="http://www.w3.org/2000/svg"
   xmlns="http://www.w3.org/2000/svg"
   xmlns:sodipodi="http://sodipodi.sourceforge.net/DTD/sodipodi-0.dtd"
   xmlns:inkscape="http://www.inkscape.org/namespaces/inkscape"
   width="50"
   height="50"
   viewBox="0 0 13.229166 13.229167"
   version="1.1"
   id="svg8"
   inkscape:version="0.92.1 r15371"
   sodipodi:docname="post1.svg">
  <defs
     id="defs2" />
  <sodipodi:namedview
     id="base"
     pagecolor="#ffffff"
     bordercolor="#666666"
     borderopacity="1.0"
     inkscape:pageopacity="0.0"
     inkscape:pageshadow="2"
     inkscape:zoom="7.9195959"
     inkscape:cx="22.498023"
     inkscape:cy="22.319387"
     inkscape:document-units="mm"
     inkscape:current-layer="layer1"
     showgrid="false"
     units="px"
     inkscape:window-width="1366"
     inkscape:window-height="706"
     inkscape:window-x="-8"
     inkscape:window-y="-8"
     inkscape:window-maximized="1" />
  <metadata
     id="metadata5">
    <rdf:RDF>
      <cc:Work
         rdf:about="">
        <dc:format>image/svg+xml</dc:format>
        <dc:type
           rdf:resource="http://purl.org/dc/dcmitype/StillImage" />
      </cc:Work>
    </rdf:RDF>
  </metadata>
  <g
     inkscape:label="Layer 1"
     inkscape:groupmode="layer"
     id="layer1"
     transform="translate(0,-283.77082)">
    <path
       style="fill:none;stroke-width:0.8;stroke:#ff0000;stroke-opacity:1;stroke-miterlimit:4;stroke-dasharray:none"
       d="m 1.7763932,296.80713 c -0.072885,-0.0331 -0.1196718,-0.0932 -0.1368874,-0.17572 -0.00792,-0.038 -0.073796,-0.58711 -0.146355,-1.22011 -0.072561,-0.63299 -0.1527609,-1.33143 -0.1782292,-1.55207 -0.026758,-0.23183 -0.043789,-0.43448 -0.040358,-0.48009 0.0048,-0.0631 0.2791945,-0.82981 1.3676608,-3.821 1.7616398,-4.8411 1.7691838,-4.86171 1.8078774,-4.93901 0.1264578,-0.25263 0.3586555,-0.47367 0.6075076,-0.57833 0.1987393,-0.0836 0.4424606,-0.11633 0.6448076,-0.0868 0.1667992,0.0243 1.0632558,0.33888 1.282347,0.44987 0.3569248,0.1808 0.6046171,0.54732 0.634354,0.9387 0.00444,0.0578 0.012749,0.1113 0.018554,0.11873 0.010554,0.0134 -0.035969,0.25715 -0.071122,0.37308 -0.018254,0.0602 -1.2968065,3.57907 -2.5065397,6.89861 -0.395471,1.08518 -0.6446516,1.751 -0.665566,1.77842 -0.03369,0.0441 -0.531875,0.52105 -1.72925,1.65529 -0.4167668,0.39479 -0.6697254,0.62502 -0.7036948,0.64044 -0.067128,0.0305 -0.1178967,0.0305 -0.1851098,-3e-5 z"
       id="path4491" />
    <path
       style="fill:#ff0000;stroke-width:1"
       d="m 6.9297744,293.35787 c -0.05986,-0.0173 -0.1310441,-0.0931 -0.1485955,-0.1583 -0.029468,-0.10938 0.021936,-0.22409 0.1222025,-0.27261 l 0.057629,-0.0279 2.6889582,2.8e-4 c 2.5861404,2.6e-4 2.6909694,0.001 2.7415714,0.0246 0.09266,0.0428 0.138107,0.11298 0.138107,0.21328 0,0.0573 -0.03472,0.13624 -0.07665,0.17415 -0.06912,0.0625 0.04409,0.0601 -2.8038945,0.0595 -1.6228515,-3.6e-4 -2.6934666,-0.006 -2.7193331,-0.0129 z"
       id="path4487" />
    <path
       style="fill:#ff0000;stroke-width:1"
       d="m 7.8634373,290.93777 c -0.1890329,-0.0935 -0.160493,-0.38001 0.042973,-0.43125 0.072393,-0.0182 4.3663487,-0.02 4.4446607,-0.002 0.07098,0.0164 0.114131,0.051 0.148991,0.11922 0.06483,0.12688 0.0095,0.2791 -0.11924,0.32772 -0.02563,0.01 -0.718158,0.014 -2.249191,0.014 l -2.2121633,-2e-5 z"
       id="path4485" />
    <path
       style="fill:#ff0000;stroke-width:1"
       d="m 9.3991976,288.56273 c -0.076723,-0.0133 -0.119348,-0.035 -0.1625872,-0.0829 -0.1028088,-0.11382 -0.067464,-0.28771 0.074228,-0.36517 0.039699,-0.0217 0.1355752,-0.0231 1.5417876,-0.0231 h 1.499462 l 0.05479,0.0293 c 0.08038,0.0429 0.11443,0.0981 0.119563,0.19375 0.0055,0.10183 -0.03081,0.1701 -0.11557,0.21756 l -0.05879,0.0329 -1.460002,0.001 c -0.803,9.2e-4 -1.4747975,-8.9e-4 -1.4928838,-0.004 z"
       id="path4496" />
  </g>
</svg>
