<?xml version="1.0" encoding="UTF-8" standalone="no"?>
<!-- Created with Inkscape (http://www.inkscape.org/) -->

<svg
   xmlns:dc="http://purl.org/dc/elements/1.1/"
   xmlns:cc="http://creativecommons.org/ns#"
   xmlns:rdf="http://www.w3.org/1999/02/22-rdf-syntax-ns#"
   xmlns:svg="http://www.w3.org/2000/svg"
   xmlns="http://www.w3.org/2000/svg"
   xmlns:sodipodi="http://sodipodi.sourceforge.net/DTD/sodipodi-0.dtd"
   xmlns:inkscape="http://www.inkscape.org/namespaces/inkscape"
   width="100mm"
   height="100mm"
   viewBox="0 0 100 100"
   version="1.1"
   id="svg5274"
   inkscape:version="0.92.2 (5c3e80d, 2017-08-06)"
   sodipodi:docname="post3.svg">
  <defs
     id="defs5268">
    <inkscape:path-effect
       is_visible="true"
       id="path-effect5223"
       effect="spiro" />
  </defs>
  <sodipodi:namedview
     id="base"
     pagecolor="#ffffff"
     bordercolor="#666666"
     borderopacity="1.0"
     inkscape:pageopacity="0.0"
     inkscape:pageshadow="2"
     inkscape:zoom="0.7"
     inkscape:cx="193.97834"
     inkscape:cy="83.890365"
     inkscape:document-units="mm"
     inkscape:current-layer="layer1"
     showgrid="false"
     inkscape:window-width="1920"
     inkscape:window-height="1186"
     inkscape:window-x="-11"
     inkscape:window-y="-11"
     inkscape:window-maximized="1"
     inkscape:snap-global="false" />
  <metadata
     id="metadata5271">
    <rdf:RDF>
      <cc:Work
         rdf:about="">
        <dc:format>image/svg+xml</dc:format>
        <dc:type
           rdf:resource="http://purl.org/dc/dcmitype/StillImage" />
        <dc:title></dc:title>
      </cc:Work>
    </rdf:RDF>
  </metadata>
  <g
     inkscape:label="Layer 1"
     inkscape:groupmode="layer"
     id="layer1"
     transform="translate(0,-197)">
    <path
       style="fill:#ff0000;fill-opacity:1;stroke-width:0.49446923"
       d="m 50.436878,197.65152 c -0.606155,-0.004 -1.192422,0.0369 -1.749724,0.12966 l -18.117302,26.3334 -18.117291,26.33342 -0.209187,13.88373 c -0.121228,4.92197 0.171357,10.97902 -0.117979,15.32155 -0.251305,2.87208 0.828939,5.4721 2.704466,7.57706 1.875527,2.10493 4.51713,3.78067 7.603715,5.14653 6.173172,2.73157 14.139864,4.19775 21.407543,4.49984 7.267681,0.30178 13.756188,-0.43208 17.364156,-2.74636 0.901988,-0.57856 1.637734,-1.2891 2.084454,-2.18717 0.446727,-0.89808 0.541457,-1.97636 0.247247,-3.00494 -0.588343,-2.05726 -2.42426,-3.97199 -5.62195,-6.15069 -1.586825,-1.08115 -2.34903,-2.09634 -2.616979,-2.92125 -0.26793,-0.82499 -0.151562,-1.5674 0.403216,-2.49912 1.109516,-1.86336 4.170042,-4.05642 8.079178,-5.93766 7.818283,-3.76236 18.961105,-6.55583 24.138655,-6.98746 1.636295,-0.12967 1.433807,-2.58596 -0.201605,-2.44583 -5.731783,0.47772 -16.803006,3.27389 -25.002105,7.21955 -4.099543,1.97282 -7.486316,4.16668 -9.113797,6.9 -0.813742,1.36667 -1.131463,2.97558 -0.631403,4.51508 0.500089,1.5395 1.700718,2.91454 3.564115,4.18413 2.97706,2.02839 4.345225,3.75419 4.644394,4.80028 0.149571,0.52262 0.114455,0.86137 -0.07214,1.23625 -0.186443,0.37466 -0.576126,0.79585 -1.221002,1.20957 -2.57973,1.65501 -8.934992,2.64596 -15.94535,2.35456 -7.010358,-0.2915 -14.76525,-1.73934 -20.513657,-4.283 -2.874211,-1.27192 -5.233327,-2.81627 -6.770702,-4.54169 -1.537375,-1.72544 -2.273981,-3.55892 -2.084452,-5.72466 -1.164804,-3.18829 10.685083,-5.48706 12.552401,-6.14313 l 11.981833,-4.20693 18.181961,-26.40187 C 74.583541,217.9943 75.45152,216.6241 75.153835,214.93229 73.535074,208.09936 59.528841,197.71176 50.437019,197.65184 Z m 0.121053,2.82432 c 1.457678,-0.25101 8.47476,2.68837 11.826527,4.96866 3.320586,2.25902 8.996062,7.54566 9.924008,9.41903 -0.614473,2.6227 -3.281156,5.99131 -6.390314,9.46404 l -5.899702,-4.89894 c -4.588662,-4.57998 -9.47579,-6.51217 -15.397535,-9.70775 -0.127571,-0.71472 5.187944,-9.11624 5.937016,-9.24504 z m -7.348212,11.18496 c 0.87273,0.0589 5.134948,2.45755 5.412749,2.92125 -8.995581,12.66676 -17.185471,25.69929 -26.417101,37.58878 -1.265111,0.20094 0,0 -5.663787,-3.5908 12.135443,-16.69521 16.818407,-23.9743 26.668139,-36.91923 z m 7.984086,4.70143 c 2.144705,1.22653 4.059277,2.39048 6.299021,4.45421 -9.886717,13.92081 -16.910486,24.64178 -26.660533,37.23117 l -6.258928,-4.41564 c 11.270062,-15.68305 17.206801,-23.99725 26.620436,-37.26974 z m 8.615507,6.13547 c 1.522818,1.14583 4.301522,3.46138 4.773714,4.23734 -8.25378,11.75015 -16.636383,24.59674 -26.763229,37.90448 -0.208972,0.0369 -4.386799,-3.47103 -5.074218,-4.18796 2.146894,-5.20108 22.168278,-31.41364 27.063733,-37.95386 z m -27.571289,43.59335 c 3.389047,3.65966 2.574774,2.94752 -3.292398,5.03009 -7.414962,2.63243 -8.198697,2.21058 -11.559621,-0.1715 l -2.655025,-2.49911 0.152148,-6.36365 c 0.08374,-3.4995 0.269327,-8.01162 0.414626,-8.21993 4.055087,2.05878 14.527942,9.67604 16.94027,12.2241 z"
       id="path4598"
       inkscape:connector-curvature="0"
       sodipodi:nodetypes="ccccccccccccccscccsccccccccccccccccccccccccccccccccccccccccccccc" />
    <path
       inkscape:connector-curvature="0"
       id="path5211"
       d="m 127.19326,282.48999 c -0.13553,-0.16723 0.0813,-5.3463 0.48161,-11.50885 l 0.72784,-11.20461 15.88767,-20.53362 15.88761,-20.53361 1.90681,-0.21515 c 6.29113,-0.71149 18.25964,8.79346 19.06989,15.1445 0.17588,1.37853 -0.5896,2.44915 -15.75565,22.03622 l -15.94045,20.58733 -9.97736,2.91141 c -5.48754,1.60133 -10.44181,3.07117 -11.00949,3.26628 -0.56769,0.19505 -1.143,0.21778 -1.27842,0.0506 z m 14.90798,-8.37231 c 4.52065,-1.35624 4.6508,-1.62097 2.22235,-4.51932 -2.90788,-3.47058 -10.84407,-8.39908 -11.71412,-7.27456 -0.11783,0.15228 -0.3738,2.44231 -0.56875,5.08885 l -0.35456,4.81193 2.13073,1.67457 c 2.45523,1.92952 2.5711,1.93257 8.28435,0.21853 z m 17.15425,-17.46923 c 9.03557,-11.68419 9.4815,-12.34365 8.98102,-13.28144 -0.28974,-0.54273 -0.74985,-1.08829 -1.02275,-1.21233 -0.47652,-0.21654 -17.477,21.18871 -18.91353,23.81448 -0.61166,1.11798 -0.60354,1.23812 0.14348,2.11233 0.4352,0.50988 0.90714,0.91224 1.04805,0.89426 0.14116,-0.018 4.53473,-5.5653 9.76395,-12.32733 z m -4.69947,-5.55563 9.5657,-12.36971 -0.96657,-1.00387 c -0.53172,-0.55213 -1.31441,-1.0111 -1.73958,-1.01998 -0.54488,-0.0115 -3.59269,3.63862 -10.33147,12.37284 l -9.55842,12.38886 1.30514,1.0553 c 0.71786,0.58037 1.49737,1.03073 1.73234,1.00076 0.23525,-0.03 4.73173,-5.62087 9.99286,-12.4242 z m -6.85124,-4.17013 c 6.63092,-8.57478 9.27316,-12.28659 9.04643,-12.70831 -0.17621,-0.32741 -0.8118,-0.6545 -1.41258,-0.72636 -1.00095,-0.11981 -1.87663,0.8825 -10.46203,11.973 -5.15334,6.65699 -9.34201,12.32052 -9.30818,12.5857 0.0711,0.55713 1.28559,1.14759 2.16633,1.05323 0.33174,-0.0365 4.81839,-5.51531 9.97003,-12.17726 z m 29.04715,-14.08361 c -0.63206,-1.45332 -3.74704,-4.79931 -6.17634,-6.6346 -2.45203,-1.85252 -6.36527,-3.73761 -7.47834,-3.60259 -0.57202,0.0697 -5.67624,6.32523 -5.60655,6.87144 0.0177,0.13893 0.90567,0.6248 1.97322,1.08021 2.87798,1.22766 7.35929,4.61609 9.92516,7.50466 l 2.26287,2.54747 2.71952,-3.49363 c 2.11499,-2.71706 2.64415,-3.66683 2.38046,-4.27296 z"
       style="fill:#1a1a1a;fill-opacity:1;stroke-width:0.40257218"
       sodipodi:nodetypes="ccccccscccccccccccccccccccccscccccccscccccccccccccccc" />
    <path
       style="color:#000000;font-style:normal;font-variant:normal;font-weight:normal;font-stretch:normal;font-size:medium;line-height:normal;font-family:sans-serif;font-variant-ligatures:normal;font-variant-position:normal;font-variant-caps:normal;font-variant-numeric:normal;font-variant-alternates:normal;font-feature-settings:normal;text-indent:0;text-align:start;text-decoration:none;text-decoration-line:none;text-decoration-style:solid;text-decoration-color:#000000;letter-spacing:normal;word-spacing:normal;text-transform:none;writing-mode:lr-tb;direction:ltr;text-orientation:mixed;dominant-baseline:auto;baseline-shift:baseline;text-anchor:start;white-space:normal;shape-padding:0;clip-rule:nonzero;display:inline;overflow:visible;visibility:visible;opacity:1;isolation:auto;mix-blend-mode:normal;color-interpolation:sRGB;color-interpolation-filters:linearRGB;solid-color:#000000;solid-opacity:1;vector-effect:none;fill:#1a1a1a;fill-opacity:1;fill-rule:nonzero;stroke:#1a1a1a;stroke-width:0.87312502;stroke-linecap:round;stroke-linejoin:miter;stroke-miterlimit:4;stroke-dasharray:none;stroke-dashoffset:0;stroke-opacity:1;paint-order:normal;color-rendering:auto;image-rendering:auto;shape-rendering:auto;text-rendering:auto;enable-background:accumulate"
       d="m 190.11579,267.74968 c -0.0271,3.8e-4 -0.0543,0.002 -0.0813,0.004 -4.76084,0.39688 -13.87726,2.70338 -20.66199,5.96843 -3.39237,1.63252 -6.21664,3.43609 -7.59071,5.74384 -0.68704,1.15389 -0.96102,2.53299 -0.53431,3.84666 0.4267,1.31367 1.45082,2.46864 3.00453,3.52723 2.44132,1.66335 3.5404,3.08137 3.76922,3.88151 0.11442,0.40006 0.0815,0.63114 -0.0561,0.90793 -0.13768,0.27681 -0.43652,0.60987 -0.95247,0.94086 -2.06377,1.32398 -7.29268,2.15619 -13.05772,1.91656 -5.76504,-0.23964 -12.14387,-1.43159 -16.85792,-3.51756 -2.35702,-1.04298 -4.28792,-2.30983 -5.53477,-3.70921 -1.24686,-1.39936 -3.30779,-4.98825 -1.82405,-5.7414 0.98899,-0.50201 -2.0804,-0.6617 -2.17554,0.93063 -0.34471,2.81297 0.69557,4.59828 2.26308,6.35753 1.56751,1.75925 3.77009,3.15788 6.32849,4.28998 5.11682,2.26419 11.69488,3.46524 17.70392,3.71501 6.00903,0.24978 11.37214,-0.33295 14.41092,-2.28243 0.7597,-0.48738 1.39464,-1.08943 1.77911,-1.86235 0.38446,-0.77292 0.46253,-1.70689 0.21101,-2.58638 -0.50304,-1.75897 -2.04599,-3.35719 -4.69652,-5.16308 -1.29146,-0.8799 -1.89578,-1.68698 -2.1024,-2.32309 -0.20662,-0.63612 -0.1201,-1.19641 0.32136,-1.93785 0.88292,-1.48287 3.38965,-3.29221 6.60146,-4.83785 6.42362,-3.09126 15.60973,-5.39272 19.84503,-5.74578 1.49571,-0.12219 1.38824,-2.34572 -0.11228,-2.32309 z"
       id="path4579"
       inkscape:connector-curvature="0"
       sodipodi:nodetypes="ccccscccccccscscccccccccccc" />
  </g>
</svg>
