<?xml version="1.0" encoding="UTF-8" standalone="no"?>
<!-- Created with Inkscape (http://www.inkscape.org/) -->

<svg
   xmlns:dc="http://purl.org/dc/elements/1.1/"
   xmlns:cc="http://creativecommons.org/ns#"
   xmlns:rdf="http://www.w3.org/1999/02/22-rdf-syntax-ns#"
   xmlns:svg="http://www.w3.org/2000/svg"
   xmlns="http://www.w3.org/2000/svg"
   xmlns:sodipodi="http://sodipodi.sourceforge.net/DTD/sodipodi-0.dtd"
   xmlns:inkscape="http://www.inkscape.org/namespaces/inkscape"
   version="1.1"
   id="svg2"
   width="50"
   height="50"
   viewBox="0 0 50 50"
   sodipodi:docname="title.svg"
   inkscape:version="0.92.1 r15371">
  <metadata
     id="metadata8">
    <rdf:RDF>
      <cc:Work
         rdf:about="">
        <dc:format>image/svg+xml</dc:format>
        <dc:type
           rdf:resource="http://purl.org/dc/dcmitype/StillImage" />
        <dc:title></dc:title>
      </cc:Work>
    </rdf:RDF>
  </metadata>
  <defs
     id="defs6" />
  <sodipodi:namedview
     pagecolor="#ffffff"
     bordercolor="#666666"
     borderopacity="1"
     objecttolerance="10"
     gridtolerance="10"
     guidetolerance="10"
     inkscape:pageopacity="0"
     inkscape:pageshadow="2"
     inkscape:window-width="1366"
     inkscape:window-height="706"
     id="namedview4"
     showgrid="false"
     inkscape:zoom="3.6875"
     inkscape:cx="33.533592"
     inkscape:cy="20.236007"
     inkscape:window-x="-8"
     inkscape:window-y="-8"
     inkscape:window-maximized="1"
     inkscape:current-layer="svg2" />
  <path
     style="fill:#ff0000;stroke-width:1"
     d="m 30.721416,48.932305 c -1.21862,-0.65887 -9.128536,-5.122515 -9.210822,-5.197761 -0.05347,-0.0489 4.806864,-5.071833 11.56501,-11.9519 6.411487,-6.527153 11.667227,-11.887982 11.679423,-11.91295 0.01219,-0.02496 0.04562,-3.75427 0.0743,-8.287337 l 0.05212,-8.2419376 2.0163,7.1424456 2.016302,7.142445 -0.222287,0.444764 c -0.122256,0.244618 -3.632576,6.699953 -7.800706,14.345187 -4.168134,7.645234 -7.886104,14.467019 -8.262155,15.159521 -0.376054,0.692503 -0.737378,1.312774 -0.802944,1.378379 -0.254218,0.254367 -0.607841,0.24769 -1.104534,-0.02086 z M 9.6442968,36.318461 C 2.8794912,29.439447 1.4360542,27.92434 1.3821698,27.646087 1.3170774,27.309953 1.3547398,27.270425 13.812112,14.601848 l 12.495237,-12.7070839 8.14788,-0.028309 c 4.481333,-0.015569 8.24931,-0.00308 8.37328,0.027746 0.123969,0.030829 0.313417,0.1455545 0.420996,0.2549458 0.19166,0.1948911 0.195595,0.3696344 0.195595,8.684753 v 8.485861 L 30.988126,31.986719 c -11.774465,11.972948 -12.475873,12.66696 -12.801981,12.66696 -0.32516,0 -0.816653,-0.479603 -8.5418482,-8.335218 z m 7.9466902,-0.729083 c 0.273851,-0.07773 1.932461,-1.712666 7.893331,-7.780653 6.7712,-6.892882 7.553706,-7.722056 7.615511,-8.06969 0.204782,-1.151839 -0.869896,-2.161671 -1.987437,-1.867514 -0.343804,0.09049 -1.376861,1.099569 -7.807443,7.626199 -4.076164,4.137049 -7.475088,7.644307 -7.553164,7.793906 -0.184895,0.354274 -0.181539,1.120723 0.0066,1.490532 0.08167,0.160585 0.293402,0.403018 0.470525,0.538738 0.470896,0.360824 0.804899,0.426656 1.362151,0.268482 z M 12.418394,30.09504 c 0.473982,-0.19894 14.895622,-14.81557 15.194969,-15.40042 0.673806,-1.316434 -0.78848,-2.771625 -2.133139,-2.122789 -0.421813,0.20354 -14.983043,15.031919 -15.115467,15.392787 -0.5094858,1.388399 0.738059,2.682591 2.053637,2.130422 z"
     id="path4487"
     inkscape:connector-curvature="0" />
</svg>
