<?xml version="1.0" encoding="UTF-8" standalone="no"?>
<!-- Svg Vector Icons : http://www.onlinewebfonts.com/icon -->

<svg
   xmlns:dc="http://purl.org/dc/elements/1.1/"
   xmlns:cc="http://creativecommons.org/ns#"
   xmlns:rdf="http://www.w3.org/1999/02/22-rdf-syntax-ns#"
   xmlns:svg="http://www.w3.org/2000/svg"
   xmlns="http://www.w3.org/2000/svg"
   xmlns:sodipodi="http://sodipodi.sourceforge.net/DTD/sodipodi-0.dtd"
   xmlns:inkscape="http://www.inkscape.org/namespaces/inkscape"
   version="1.1"
   x="0px"
   y="0px"
   viewBox="0 0 1000 1000"
   enable-background="new 0 0 1000 1000"
   xml:space="preserve"
   id="svg14"
   sodipodi:docname="user.svg"
   inkscape:version="0.92.1 r15371"><defs
     id="defs18" /><sodipodi:namedview
     pagecolor="#ffffff"
     bordercolor="#666666"
     borderopacity="1"
     objecttolerance="10"
     gridtolerance="10"
     guidetolerance="10"
     inkscape:pageopacity="0"
     inkscape:pageshadow="2"
     inkscape:window-width="1366"
     inkscape:window-height="706"
     id="namedview16"
     showgrid="false"
     inkscape:zoom="0.236"
     inkscape:cx="769.0678"
     inkscape:cy="105.9322"
     inkscape:window-x="-8"
     inkscape:window-y="-8"
     inkscape:window-maximized="1"
     inkscape:current-layer="svg14" /><metadata
     id="metadata2"><rdf:RDF><cc:Work
         rdf:about=""><dc:format>image/svg+xml</dc:format><dc:type
           rdf:resource="http://purl.org/dc/dcmitype/StillImage" /></cc:Work></rdf:RDF></metadata><g
     id="g12"
     style="fill:#ff0000"
     inkscape:export-xdpi="1.9936604"
     inkscape:export-ydpi="1.9936604"><path
       d="M500.1,596.1c-78.3,0-151.9-30.5-207.2-85.8C237.5,454.9,207,381.4,207,303.1c0-78.3,30.5-151.9,85.8-207.2C348.2,40.5,421.8,10,500.1,10c78.3,0,151.9,30.5,207.2,85.8c55.4,55.4,85.8,128.9,85.8,207.2c0,78.3-30.5,151.9-85.8,207.2C651.9,565.7,578.3,596.1,500.1,596.1z M500.1,75.3c-125.6,0-227.7,102.2-227.7,227.7c0,125.6,102.2,227.7,227.7,227.7c125.6,0,227.7-102.2,227.7-227.7C727.8,177.5,625.6,75.3,500.1,75.3z"
       id="path4"
       style="fill:#ff0000" /><path
       d="M891.4,957.1c0,18.2,14.7,32.9,32.9,32.9c18.2,0,32.9-14.7,32.9-32.9s-14.7-32.9-32.9-32.9C906.2,924.1,891.4,938.9,891.4,957.1z"
       id="path6"
       style="fill:#ff0000" /><path
       d="M42.6,956.9c0,18.3,14.8,33.1,33.1,33.1c18.3,0,33.1-14.8,33.1-33.1s-14.8-33.1-33.1-33.1C57.4,923.9,42.6,938.7,42.6,956.9z"
       id="path8"
       style="fill:#ff0000" /><path
       d="M500.1,597.2c205,0,374.7,158.3,391.3,359.1h66.1c-3.5-50.4-15.2-99.4-34.9-146c-23.1-54.6-56.2-103.6-98.2-145.7c-42.1-42.1-91.1-75.2-145.7-98.3c-56.6-23.9-116.6-36-178.5-36c-61.9,0-121.9,12.1-178.5,36c-54.6,23.1-103.6,56.2-145.7,98.3c-42.1,42.1-75.2,91.1-98.3,145.7c-19.7,46.6-31.4,95.6-34.9,146h66.1C125.3,755.5,295.1,597.2,500.1,597.2z"
       id="path10"
       style="fill:#ff0000" /></g></svg>