<?xml version="1.0" encoding="UTF-8" standalone="no"?>
<!-- Created with Inkscape (http://www.inkscape.org/) -->

<svg
   xmlns:dc="http://purl.org/dc/elements/1.1/"
   xmlns:cc="http://creativecommons.org/ns#"
   xmlns:rdf="http://www.w3.org/1999/02/22-rdf-syntax-ns#"
   xmlns:svg="http://www.w3.org/2000/svg"
   xmlns="http://www.w3.org/2000/svg"
   xmlns:sodipodi="http://sodipodi.sourceforge.net/DTD/sodipodi-0.dtd"
   xmlns:inkscape="http://www.inkscape.org/namespaces/inkscape"
   width="50mm"
   height="50mm"
   viewBox="0 0 50 50"
   version="1.1"
   id="svg8"
   inkscape:version="0.92.1 r15371"
   sodipodi:docname="website.svg">
  <defs
     id="defs2" />
  <sodipodi:namedview
     id="base"
     pagecolor="#ffffff"
     bordercolor="#666666"
     borderopacity="1.0"
     inkscape:pageopacity="0.0"
     inkscape:pageshadow="2"
     inkscape:zoom="0.98994949"
     inkscape:cx="176.43196"
     inkscape:cy="109.20626"
     inkscape:document-units="mm"
     inkscape:current-layer="layer1"
     showgrid="false"
     inkscape:snap-global="false"
     inkscape:window-width="1366"
     inkscape:window-height="706"
     inkscape:window-x="-8"
     inkscape:window-y="-8"
     inkscape:window-maximized="1" />
  <metadata
     id="metadata5">
    <rdf:RDF>
      <cc:Work
         rdf:about="">
        <dc:format>image/svg+xml</dc:format>
        <dc:type
           rdf:resource="http://purl.org/dc/dcmitype/StillImage" />
        <dc:title></dc:title>
      </cc:Work>
    </rdf:RDF>
  </metadata>
  <g
     inkscape:label="Layer 1"
     inkscape:groupmode="layer"
     id="layer1"
     transform="translate(0,-247)">
    <path
       inkscape:connector-curvature="0"
       id="path4526"
       d="m 35.443558,295.23933 c -0.01822,-0.0481 -1.845309,-5.22154 -4.060179,-11.49659 -3.003338,-8.50889 -4.003466,-11.41456 -3.934296,-11.43031 0.08631,-0.0196 21.723812,10.52735 21.977028,10.71251 0.06329,0.0463 0.09754,0.10165 0.07603,0.12317 -0.02143,0.0215 -2.072118,0.44018 -4.557015,0.93051 -2.484898,0.49033 -4.544812,0.91655 -4.577573,0.94719 -0.06836,0.0639 -0.211324,-0.10186 3.330263,3.86065 1.464869,1.63894 2.663399,3.01489 2.663399,3.05766 0,0.0785 -1.475772,1.40463 -1.563238,1.40463 -0.026,0 -1.417213,-1.53435 -3.091607,-3.40965 -1.674385,-1.87529 -3.064127,-3.40963 -3.088305,-3.40963 -0.046,0 -0.90435,2.49115 -2.212609,6.42181 -0.425372,1.27802 -0.80836,2.33532 -0.851097,2.34957 -0.0427,0.0143 -0.09261,-0.0134 -0.110847,-0.0616 z m -14.687387,-4.62456 c -7.562003,-0.67933 -14.1684106,-5.1944 -17.442607,-11.92092 -1.0566638,-2.17082 -1.6983865,-4.35863 -2.0098333,-6.85207 -0.1138813,-0.91173 -0.1138172,-3.74951 1.063e-4,-4.68826 0.4833557,-3.9829 1.9404158,-7.51378 4.4201515,-10.71131 0.6757572,-0.87136 2.4813814,-2.69023 3.3935044,-3.41839 3.9896851,-3.18504 8.9936161,-4.85318 14.0975501,-4.69966 3.891247,0.11706 7.328346,1.12719 10.614488,3.11952 5.389056,3.26727 9.067799,8.79185 9.97933,14.98651 0.347561,2.36197 0.273488,4.98708 -0.20636,7.31313 -0.25357,1.22916 -0.753208,2.88981 -0.880372,2.92608 -0.101886,0.029 -5.622177,-2.36059 -5.618844,-2.43231 0.0016,-0.035 0.292822,-0.16039 0.647091,-0.27873 0.94479,-0.3156 1.677635,-0.61294 1.806336,-0.73287 0.299176,-0.27887 0.568723,-3.13136 0.451381,-4.77696 -0.07959,-1.11672 -0.240143,-2.24275 -0.332951,-2.33554 -0.03341,-0.0334 -0.413193,0.0583 -0.89873,0.21704 -0.986497,0.32247 -2.230761,0.65466 -3.332558,0.88975 -0.432764,0.0923 -0.842953,0.18499 -0.91154,0.20593 -0.11827,0.0361 -0.12254,0.0942 -0.08278,1.12876 0.06406,1.66658 -0.092,4.38266 -0.255334,4.44534 -0.08034,0.0309 -2.552463,-0.9879 -2.684514,-1.10625 -0.04084,-0.0366 -0.06557,-0.77309 -0.06557,-1.95304 0,-1.17614 -0.02481,-1.91875 -0.06557,-1.95879 -0.04304,-0.0422 -0.313701,-0.034 -0.786847,0.0242 -1.185297,0.14577 -3.111566,0.29806 -4.819396,0.38098 l -1.606466,0.078 -0.01696,3.6811 c -0.01342,2.91144 3.29e-4,3.68689 0.06557,3.7088 0.04541,0.0153 0.537066,0.0111 1.092641,-0.009 0.632946,-0.0231 1.039768,-0.0124 1.089483,0.0287 0.121571,0.10042 0.786377,2.7137 0.709839,2.79023 -0.04997,0.05 -2.049315,0.18584 -2.825848,0.19202 l -0.14753,8.5e-4 v 3.24572 c 0,2.16658 0.02228,3.24571 0.067,3.24571 0.141832,0 0.945744,-0.40276 1.379597,-0.69119 0.602649,-0.40063 1.406021,-1.16401 1.975377,-1.87702 0.396668,-0.49675 0.577787,-0.66932 0.577787,-0.55052 0,0.0156 0.413091,1.59412 0.917979,3.5075 0.504887,1.91338 0.917979,3.52092 0.917979,3.5723 0,0.0605 -0.247739,0.17544 -0.704876,0.32678 -1.365663,0.45209 -3.143398,0.8187 -4.63908,0.95667 -0.665928,0.0615 -3.261833,0.0756 -3.868631,0.021 z m -4.927537,-5.34754 c -0.02767,-0.045 -0.250252,-0.32678 -0.494625,-0.62602 -1.139925,-1.39584 -2.271103,-3.47703 -2.965247,-5.45559 -0.482998,-1.37672 -0.391237,-1.22864 -0.812748,-1.31173 -0.959774,-0.18924 -2.8720936,-0.69219 -3.7627172,-0.98962 -0.5417927,-0.18095 -1.0038516,-0.31021 -1.0267983,-0.28726 -0.062368,0.0624 0.6709004,1.45114 1.1692739,2.21456 1.6655556,2.55132 3.9759836,4.61852 6.7372686,6.02799 0.966258,0.49322 1.263303,0.60316 1.155593,0.42767 z m 5.272417,-3.1325 c 0.0095,-1.76663 -0.0086,-3.19635 -0.04073,-3.22853 -0.03176,-0.0317 -0.659066,-0.0853 -1.393999,-0.11885 -1.259294,-0.0576 -3.318098,-0.21169 -4.008221,-0.30002 -0.375304,-0.0481 -0.381673,-0.0222 -0.140812,0.57223 0.887769,2.19084 2.339025,4.2506 3.762101,5.33956 0.460821,0.35263 1.610266,0.97115 1.730387,0.93113 0.0536,-0.0179 0.07898,-0.9065 0.09128,-3.19552 z m -6.6e-5,-9.98334 c 0.0134,-2.89281 -3.28e-4,-3.66307 -0.06556,-3.6846 -0.04538,-0.0149 -0.74641,-0.0591 -1.557838,-0.098 -1.554812,-0.0747 -3.870664,-0.27322 -4.917753,-0.42176 -0.455207,-0.0646 -0.647207,-0.0689 -0.71314,-0.0163 -0.12344,0.0987 -0.06056,3.74481 0.08326,4.82898 0.172013,1.29654 0.384929,2.43406 0.471868,2.52101 0.187178,0.18717 4.122067,0.55097 5.79702,0.53593 l 0.885175,-0.008 0.01694,-3.65737 z m -9.974433,2.23123 c -0.02292,-0.18934 -0.08453,-0.66881 -0.13691,-1.06552 -0.16681,-1.26324 -0.250253,-2.97203 -0.218549,-4.4756 0.02135,-1.01304 0.0088,-1.47636 -0.04097,-1.51485 -0.03946,-0.0305 -0.455323,-0.15026 -0.9241475,-0.26612 -1.0718071,-0.26487 -2.4728313,-0.72074 -3.3694087,-1.09638 -0.3799056,-0.15916 -0.7259084,-0.2759 -0.7688962,-0.25941 -0.090941,0.035 -0.1858855,0.44157 -0.3382317,1.44878 -0.2069958,1.36849 -0.1258189,4.74633 0.1256356,5.22785 0.1568893,0.30041 1.6595635,1.10788 2.9411456,1.58043 0.6599325,0.24333 2.4396169,0.75494 2.6482199,0.76129 0.111171,0.003 0.119534,-0.0313 0.08211,-0.34047 z m 9.974212,-14.81883 c 0.01628,-5.72293 0.01335,-5.88491 -0.106589,-5.88491 -0.417698,0 -1.629333,0.77194 -2.445141,1.5578 -1.892442,1.82297 -3.346724,4.72905 -4.15879,8.31049 -0.256375,1.13068 -0.271542,1.32109 -0.109113,1.36966 0.529723,0.15844 5.468979,0.56821 6.507824,0.53992 l 0.295065,-0.009 z m 6.015697,5.78002 c 1.095121,-0.0681 3.475134,-0.29406 3.786665,-0.35945 0.103237,-0.0217 0.180325,-0.0815 0.180325,-0.13987 0,-0.24315 -0.363097,-1.83627 -0.624456,-2.73986 -1.152502,-3.98451 -3.309157,-7.10702 -5.684958,-8.23097 -0.717637,-0.33949 -0.641015,-1.01639 -0.641015,5.66282 0,3.22166 0.02203,5.87962 0.04894,5.90657 0.05047,0.0505 1.098161,0.0149 2.934456,-0.0992 z m 8.655246,-1.23963 c 1.251082,-0.3114 2.881533,-0.82764 2.976915,-0.94258 0.04928,-0.0594 -0.02735,-0.28965 -0.27693,-0.83182 -1.42328,-3.09209 -3.8191,-5.76029 -6.798115,-7.57101 -0.577265,-0.35087 -2.133557,-1.14445 -2.245775,-1.14514 -0.110378,-6.9e-4 -0.03063,0.13698 0.327853,0.5658 1.864213,2.23015 3.341648,5.53479 4.08391,9.13463 0.108232,0.52491 0.211543,0.99501 0.229578,1.04465 0.04465,0.12298 0.398162,0.0702 1.702564,-0.25453 z m -24.408628,-0.72093 c 0.741191,-3.61197 2.160368,-6.81437 4.048638,-9.13584 0.259004,-0.31842 0.452829,-0.59704 0.430724,-0.61914 -0.06955,-0.0695 -2.136687,1.00492 -2.856317,1.48469 -1.99895,1.33265 -3.738888,3.07331 -5.0225167,5.02458 -0.5467981,0.83118 -1.337775,2.32523 -1.337775,2.52686 0,0.10829 0.1178966,0.19166 0.5599652,0.39589 1.0140742,0.46852 3.4737175,1.25285 3.8324665,1.22213 0.155025,-0.0133 0.172231,-0.0581 0.344815,-0.89917 z"
       style="fill:#ff0000;stroke-width:0.06557002" />
  </g>
</svg>
