<?xml version="1.0" encoding="UTF-8" standalone="no"?>
<!-- Created with Inkscape (http://www.inkscape.org/) -->

<svg
   xmlns:dc="http://purl.org/dc/elements/1.1/"
   xmlns:cc="http://creativecommons.org/ns#"
   xmlns:rdf="http://www.w3.org/1999/02/22-rdf-syntax-ns#"
   xmlns:svg="http://www.w3.org/2000/svg"
   xmlns="http://www.w3.org/2000/svg"
   xmlns:sodipodi="http://sodipodi.sourceforge.net/DTD/sodipodi-0.dtd"
   xmlns:inkscape="http://www.inkscape.org/namespaces/inkscape"
   width="53"
   height="53"
   viewBox="0 0 14.022917 14.022917"
   version="1.1"
   id="svg4534"
   inkscape:version="0.92.1 r15371"
   sodipodi:docname="instagram.svg">
  <defs
     id="defs4528" />
  <sodipodi:namedview
     id="base"
     pagecolor="#ffffff"
     bordercolor="#666666"
     borderopacity="1.0"
     inkscape:pageopacity="0.0"
     inkscape:pageshadow="2"
     inkscape:zoom="3.959798"
     inkscape:cx="53.962316"
     inkscape:cy="34.118868"
     inkscape:document-units="mm"
     inkscape:current-layer="layer1"
     showgrid="false"
     units="px"
     inkscape:window-width="1366"
     inkscape:window-height="706"
     inkscape:window-x="-8"
     inkscape:window-y="-8"
     inkscape:window-maximized="1" />
  <metadata
     id="metadata4531">
    <rdf:RDF>
      <cc:Work
         rdf:about="">
        <dc:format>image/svg+xml</dc:format>
        <dc:type
           rdf:resource="http://purl.org/dc/dcmitype/StillImage" />
        <dc:title></dc:title>
      </cc:Work>
    </rdf:RDF>
  </metadata>
  <g
     inkscape:label="Layer 1"
     inkscape:groupmode="layer"
     id="layer1"
     transform="translate(0,-282.97709)">
    <path
       style="color:#000000;font-style:normal;font-variant:normal;font-weight:normal;font-stretch:normal;font-size:medium;line-height:normal;font-family:Sans;-inkscape-font-specification:Sans;text-indent:0;text-align:start;text-decoration:none;text-decoration-line:none;letter-spacing:normal;word-spacing:normal;text-transform:none;writing-mode:lr-tb;direction:ltr;baseline-shift:baseline;text-anchor:start;display:inline;overflow:visible;visibility:visible;fill:#1a1a1a;fill-opacity:1;stroke:none;stroke-width:9.89541721;marker:none;enable-background:accumulate"
       d="m 4.1817039,283.22289 c -2.183018,0 -3.95827693,1.77624 -3.95827693,3.95926 v 5.72481 c 0,2.18302 1.77525893,3.95828 3.95827693,3.95828 h 5.7590957 c 2.1830194,0 3.9582784,-1.77526 3.9582784,-3.95828 v -5.72481 c 0,-2.18302 -1.775259,-3.95926 -3.9582784,-3.95926 z m 0,1.1728 h 5.7590957 c 1.5536864,0 2.7864734,1.23279 2.7864734,2.78646 v 5.72481 c 0,1.55368 -1.232787,2.78549 -2.7864734,2.78549 H 4.1817039 c -1.553686,0 -2.785491,-1.23181 -2.785491,-2.78549 v -5.72481 c 0,-1.55367 1.231805,-2.78646 2.785491,-2.78646 z m 6.5497721,1.17278 c -0.453028,0 -0.8200691,0.36704 -0.8200691,0.82006 0,0.45304 0.3670411,0.82008 0.8200691,0.82008 0.453027,0 0.820071,-0.36704 0.820071,-0.82008 0,-0.45302 -0.367044,-0.82006 -0.820071,-0.82006 z m -3.6702241,0.96311 c -1.933064,0 -3.512481,1.57942 -3.512481,3.51249 0,1.93306 1.579417,3.51248 3.512481,3.51248 1.933065,0 3.5134611,-1.57942 3.5134611,-3.51248 0,-1.93307 -1.5803961,-3.51249 -3.5134611,-3.51249 z m 0,1.17279 c 1.29935,0 2.340674,1.04035 2.340674,2.3397 0,1.29935 -1.041324,2.33969 -2.340674,2.33969 -1.29935,0 -2.339694,-1.04034 -2.339694,-2.33969 0,-1.29935 1.040344,-2.3397 2.339694,-2.3397 z"
       id="rect3687"
       inkscape:connector-curvature="0" />
  </g>
</svg>
