<?xml version="1.0" encoding="UTF-8" standalone="no"?>
<!-- Created with Inkscape (http://www.inkscape.org/) -->

<svg
   xmlns:dc="http://purl.org/dc/elements/1.1/"
   xmlns:cc="http://creativecommons.org/ns#"
   xmlns:rdf="http://www.w3.org/1999/02/22-rdf-syntax-ns#"
   xmlns:svg="http://www.w3.org/2000/svg"
   xmlns="http://www.w3.org/2000/svg"
   xmlns:sodipodi="http://sodipodi.sourceforge.net/DTD/sodipodi-0.dtd"
   xmlns:inkscape="http://www.inkscape.org/namespaces/inkscape"
   width="53"
   height="53"
   viewBox="0 0 14.022917 14.022917"
   version="1.1"
   id="svg4534"
   inkscape:version="0.92.1 r15371"
   sodipodi:docname="linkedin.svg">
  <defs
     id="defs4528" />
  <sodipodi:namedview
     id="base"
     pagecolor="#ffffff"
     bordercolor="#666666"
     borderopacity="1.0"
     inkscape:pageopacity="0.0"
     inkscape:pageshadow="2"
     inkscape:zoom="3.959798"
     inkscape:cx="53.962316"
     inkscape:cy="34.118868"
     inkscape:document-units="mm"
     inkscape:current-layer="layer1"
     showgrid="false"
     units="px"
     inkscape:window-width="1366"
     inkscape:window-height="706"
     inkscape:window-x="-8"
     inkscape:window-y="-8"
     inkscape:window-maximized="1" />
  <metadata
     id="metadata4531">
    <rdf:RDF>
      <cc:Work
         rdf:about="">
        <dc:format>image/svg+xml</dc:format>
        <dc:type
           rdf:resource="http://purl.org/dc/dcmitype/StillImage" />
        <dc:title></dc:title>
      </cc:Work>
    </rdf:RDF>
  </metadata>
  <g
     inkscape:label="Layer 1"
     inkscape:groupmode="layer"
     id="layer1"
     transform="translate(0,-282.97709)">
    <path
       id="path4157"
       d="m 1.357189,283.15673 c -0.54847904,0 -0.99377304,0.43253 -0.99377304,0.96742 v 11.58642 c 0,0.53507 0.445294,0.96742 0.99377304,0.96742 h 11.450912 c 0.548455,0 0.993767,-0.43235 0.993767,-0.96742 v -11.58642 c 0,-0.53489 -0.445312,-0.96742 -0.993767,-0.96742 z m 2.077879,2.26986 c 0.694385,0 1.119851,0.45477 1.133038,1.05399 0,0.58603 -0.44028,1.054 -1.148099,1.054 h -0.01127 c -0.681164,0 -1.121748,-0.46797 -1.121748,-1.054 0,-0.59922 0.453779,-1.05399 1.148098,-1.05399 z m 5.985187,2.80061 c 1.335428,0 2.333852,0.8722 2.333852,2.74792 v 3.50078 H 9.725161 v -3.26739 c 0,-0.82095 -0.293172,-1.38149 -1.027647,-1.38149 -0.560727,0 -0.895967,0.38066 -1.042705,0.74532 -0.0536,0.13048 -0.06399,0.31061 -0.06399,0.49312 v 3.41044 H 5.558115 c 0,0 0.02664,-5.53264 0,-6.10565 h 2.032704 v 0.86201 c 0.269817,-0.41608 0.753165,-1.00506 1.829435,-1.00506 z m -1.829435,1.00506 c -0.0047,0.007 -0.01048,0.0154 -0.01506,0.0226 h 0.01506 z m -5.183399,-0.86201 h 2.028936 v 6.10565 H 2.407421 Z"
       style="fill:#1a1a1a;fill-opacity:1;fill-rule:nonzero;stroke:none;stroke-width:0.26458332"
       inkscape:connector-curvature="0"
       inkscape:transform-center-x="-6.0135645"
       inkscape:transform-center-y="4.877669" />
  </g>
</svg>
