<?xml version="1.0" encoding="UTF-8" standalone="no"?>
<!-- Created with Inkscape (http://www.inkscape.org/) -->

<svg
   xmlns:dc="http://purl.org/dc/elements/1.1/"
   xmlns:cc="http://creativecommons.org/ns#"
   xmlns:rdf="http://www.w3.org/1999/02/22-rdf-syntax-ns#"
   xmlns:svg="http://www.w3.org/2000/svg"
   xmlns="http://www.w3.org/2000/svg"
   xmlns:xlink="http://www.w3.org/1999/xlink"
   xmlns:sodipodi="http://sodipodi.sourceforge.net/DTD/sodipodi-0.dtd"
   xmlns:inkscape="http://www.inkscape.org/namespaces/inkscape"
   width="56"
   height="52"
   viewBox="0 0 14.816667 13.758334"
   version="1.1"
   id="svg4534"
   inkscape:version="0.92.1 r15371"
   sodipodi:docname="skype-violet.svg">
  <defs
     id="defs4528">
    <linearGradient
       gradientTransform="matrix(0.26458333,0,0,0.26458333,-64.979307,249.34879)"
       inkscape:collect="always"
       xlink:href="#linearGradient5326-4"
       id="linearGradient5328-5"
       x1="246.54266"
       y1="179.29659"
       x2="318.42743"
       y2="113.03313"
       gradientUnits="userSpaceOnUse" />
    <linearGradient
       inkscape:collect="always"
       id="linearGradient5326-4">
      <stop
         style="stop-color:#bb1cff;stop-opacity:1"
         offset="0"
         id="stop5322-9" />
      <stop
         style="stop-color:#425bff;stop-opacity:1"
         offset="1"
         id="stop5324-9" />
    </linearGradient>
  </defs>
  <sodipodi:namedview
     id="base"
     pagecolor="#ffffff"
     bordercolor="#666666"
     borderopacity="1.0"
     inkscape:pageopacity="0.0"
     inkscape:pageshadow="2"
     inkscape:zoom="3.959798"
     inkscape:cx="-48.410641"
     inkscape:cy="35.342739"
     inkscape:document-units="mm"
     inkscape:current-layer="layer1"
     showgrid="false"
     units="px"
     inkscape:window-width="1366"
     inkscape:window-height="706"
     inkscape:window-x="-8"
     inkscape:window-y="-8"
     inkscape:window-maximized="1" />
  <metadata
     id="metadata4531">
    <rdf:RDF>
      <cc:Work
         rdf:about="">
        <dc:format>image/svg+xml</dc:format>
        <dc:type
           rdf:resource="http://purl.org/dc/dcmitype/StillImage" />
        <dc:title />
      </cc:Work>
    </rdf:RDF>
  </metadata>
  <g
     inkscape:label="Layer 1"
     inkscape:groupmode="layer"
     id="layer1"
     transform="translate(0,-283.24167)">
    <path
       inkscape:connector-curvature="0"
       id="path4498-9-1"
       d="m 10.082761,296.84743 c -0.4933662,-0.052 -0.9324026,-0.1771 -1.3960558,-0.3979 l -0.2941289,-0.14007 -0.258938,0.0298 c -0.390384,0.045 -1.282072,0.0367 -1.677045,-0.0155 -0.733722,-0.097 -1.325894,-0.26665 -1.978393,-0.56683 -2.56072,-1.17804 -4.02341603,-3.64316 -3.73646703,-6.29718 l 0.03679,-0.34035 -0.119652,-0.18435 c -0.233392,-0.35959 -0.434946,-0.87308 -0.474372,-1.20853 -0.01016,-0.0863 -0.02787,-0.14172 -0.03939,-0.12308 -0.01156,0.0187 -0.02577,-0.0618 -0.03168,-0.17875 -0.01439,-0.2849 0.0054,-0.68918 0.03158,-0.64676 0.01156,0.0188 0.02943,-0.0373 0.03974,-0.12502 0.06051,-0.51489 0.349367,-1.16653 0.731637,-1.65054 0.56799703,-0.71916 1.54695203,-1.28406 2.49125603,-1.43756 0.936521,-0.15224 1.770766,-0.0419 2.587823,0.34204 l 0.276297,0.12987 0.526314,-0.0368 c 1.0047,-0.0702 1.9145068,0.0373 2.7897485,0.32946 1.7322962,0.57838 3.0923892,1.73057 3.8463962,3.25846 0.486407,0.98563 0.675833,2.09499 0.537678,3.14889 l -0.04322,0.32976 0.129728,0.20814 c 0.223626,0.35879 0.466164,1.05207 0.46768,1.33684 2.65e-4,0.0576 0.0078,0.0701 0.02519,0.0425 0.01566,-0.0248 0.02861,0.0456 0.03523,0.19145 0.01386,0.30539 -0.0045,0.68744 -0.03226,0.6703 -0.01217,-0.007 -0.03127,0.0594 -0.04244,0.14878 -0.0478,0.38259 -0.26757,0.94909 -0.529958,1.36607 -0.790702,1.25658 -2.344541,1.98063 -3.89909,1.81687 z m -1.6975357,-2.64791 c 0.8794067,-0.16102 1.4846807,-0.45494 1.9860427,-0.96444 0.41947,-0.42628 0.599887,-0.84238 0.628541,-1.44961 0.05123,-1.0856 -0.449818,-1.73724 -1.7045886,-2.21693 -0.1494419,-0.0571 -0.7699004,-0.2182 -1.4772401,-0.38348 -1.304552,-0.30483 -1.585291,-0.39023 -1.827303,-0.55589 -0.211547,-0.14481 -0.265388,-0.22683 -0.279815,-0.42628 -0.02529,-0.34953 0.23164,-0.62714 0.717367,-0.77513 0.537298,-0.16371 1.437106,-0.1205 1.77264,0.0851 0.194826,0.11939 0.3809022,0.31244 0.5583291,0.57926 0.3855244,0.57975 0.5947622,0.71959 1.0403708,0.6953 0.3386298,-0.0184 0.5864568,-0.16873 0.7382488,-0.44762 0.0749,-0.13762 0.07968,-0.16532 0.06856,-0.39777 -0.01037,-0.21705 -0.02559,-0.27742 -0.115742,-0.45987 -0.180131,-0.36448 -0.5296508,-0.69805 -0.9851019,-0.94016 -0.6875039,-0.36547 -1.6491508,-0.52528 -2.6802348,-0.44543 -0.543917,0.0422 -0.829638,0.0931 -1.227066,0.21891 -0.558427,0.17678 -0.94714,0.40692 -1.26913,0.75139 -0.320542,0.34292 -0.467963,0.72335 -0.467241,1.20575 7.94e-4,0.55021 0.136237,0.88416 0.510101,1.25803 0.280969,0.28097 0.512554,0.42542 0.967664,0.60362 0.484695,0.18977 0.810569,0.2803 1.655847,0.45997 0.793626,0.16869 1.334167,0.31589 1.5160202,0.41281 0.092763,0.0494 0.2449142,0.1693 0.338111,0.26636 0.1342285,0.13978 0.1794457,0.21085 0.2175431,0.3419 0.1804247,0.62065 -0.3633549,1.18627 -1.2685423,1.3195 -0.295621,0.0436 -0.958252,0.0215 -1.177234,-0.039 -0.501463,-0.1387 -0.764596,-0.39541 -1.109039,-1.08196 -0.20983,-0.41825 -0.321461,-0.55172 -0.559347,-0.66883 -0.172038,-0.0847 -0.196496,-0.0891 -0.431335,-0.0772 -0.276037,0.014 -0.431837,0.0741 -0.598879,0.23145 -0.269875,0.25408 -0.30203,0.68448 -0.0887,1.18734 0.223218,0.52617 0.760682,1.07007 1.347563,1.36371 0.328895,0.16455 0.957074,0.33286 1.48767,0.39857 0.25001,0.0309 1.468655,-0.005 1.715916,-0.0494 z"
       style="fill:url(#linearGradient5328-5);fill-opacity:1;stroke-width:1" />
  </g>
</svg>
