<?xml version="1.0" encoding="UTF-8" standalone="no"?>
<!-- Generator: Adobe Illustrator 15.0.1, SVG Export Plug-In . SVG Version: 6.00 Build 0)  -->

<svg
   xmlns:dc="http://purl.org/dc/elements/1.1/"
   xmlns:cc="http://creativecommons.org/ns#"
   xmlns:rdf="http://www.w3.org/1999/02/22-rdf-syntax-ns#"
   xmlns:svg="http://www.w3.org/2000/svg"
   xmlns="http://www.w3.org/2000/svg"
   xmlns:sodipodi="http://sodipodi.sourceforge.net/DTD/sodipodi-0.dtd"
   xmlns:inkscape="http://www.inkscape.org/namespaces/inkscape"
   version="1.1"
   id="svg2"
   inkscape:version="0.92.1 r15371"
   sodipodi:version="0.32"
   inkscape:output_extension="org.inkscape.output.svg.inkscape"
   sodipodi:docname="Skype_and_shadow_square.svg"
   x="0px"
   y="0px"
   width="256px"
   height="256px"
   viewBox="0 0 256 256"
   enable-background="new 0 0 256 256"
   xml:space="preserve"><metadata
     id="metadata19"><rdf:RDF><cc:Work
         rdf:about=""><dc:format>image/svg+xml</dc:format><dc:type
           rdf:resource="http://purl.org/dc/dcmitype/StillImage" /><dc:title></dc:title></cc:Work></rdf:RDF></metadata><defs
     id="defs3"><inkscape:perspective
       sodipodi:type="inkscape:persp3d"
       inkscape:vp_y="0 : 1000 : 0"
       inkscape:vp_z="256 : 128 : 1"
       inkscape:persp3d-origin="128 : 85.333333 : 1"
       inkscape:vp_x="0 : 128 : 1"
       id="perspective2915" /></defs><sodipodi:namedview
     pagecolor="#ffffff"
     inkscape:current-layer="layer1"
     inkscape:window-height="706"
     inkscape:document-units="px"
     showgrid="false"
     inkscape:zoom="0.49497474"
     inkscape:pageshadow="2"
     inkscape:pageopacity="0.0"
     bordercolor="#666666"
     inkscape:window-width="1366"
     inkscape:window-y="-8"
     id="base"
     inkscape:cx="-176.2263"
     inkscape:cy="306.9224"
     inkscape:window-maximized="1"
     inkscape:window-x="-8"
     borderopacity="1.0" /><g
     id="layer1"
     transform="translate(-373.642,-318.344)"
     inkscape:groupmode="layer"
     inkscape:label="Layer 1"><path
       id="rect1942"
       inkscape:export-filename="C:\Documents and Settings\Molumen\Desktop\path3511111.png"
       inkscape:export-xdpi="7.7063322"
       inkscape:export-ydpi="7.7063322"
       fill="#A8EBFF"
       d="   M583.659,328.849H419.625c-19.599,0-35.487,15.888-35.487,35.487v164.015c0,19.599,15.888,35.486,35.487,35.486h164.033   c19.599,0,35.487-15.888,35.487-35.486V364.337C619.146,344.738,603.257,328.849,583.659,328.849z" /><linearGradient
       id="path1950_1_"
       gradientUnits="userSpaceOnUse"
       x1="-899.778"
       y1="287.9734"
       x2="-951.4744"
       y2="137.2845"
       gradientTransform="matrix(-0.5915 0 0 -0.5915 -88.3092 464.6428)"><stop
         offset="0"
         style="stop-color:#FFFFFF"
         id="stop7" /><stop
         offset="1"
         style="stop-color:#FFFFFF;stop-opacity:0"
         id="stop9" /></linearGradient><path
       id="path1950"
       inkscape:export-filename="C:\Documents and Settings\Molumen\Desktop\path3511111.png"
       inkscape:export-xdpi="7.7063322"
       inkscape:export-ydpi="7.7063322"
       sodipodi:nodetypes="ccccsssc"
       fill="url(#path1950_1_)"
       d="   M557.056,338.895H446.227c-29.336,0-52.955,23.81-52.955,53.385v108.127c0.95,23.086,4.603,8.491,11.555-17.075   c8.081-29.713,34.396-55.682,66.445-75.145c24.461-14.855,51.84-24.341,101.679-25.244   C601.216,382.432,598.721,346.26,557.056,338.895z" /><path
       id="path24965"
       sodipodi:type="arc"
       sodipodi:cx="87.88327"
       sodipodi:rx="46.467018"
       sodipodi:ry="45.961941"
       sodipodi:cy="87.809601"
       fill="#00C3FF"
       d="M 134.35029,87.809601 A 46.467018,45.961941 0 0 1 87.88327,133.77154 46.467018,45.961941 0 0 1 41.416252,87.809601 46.467018,45.961941 0 0 1 87.88327,41.84766 46.467018,45.961941 0 0 1 134.35029,87.809601 Z" /><g
       style="opacity:1"
       id="g4506"
       transform="rotate(180,113.79011,132.40425)"><ellipse
         style="fill:#00c3ff"
         id="path4502"
         cx="87.88327"
         cy="87.809601"
         rx="46.467018"
         ry="45.961941" /><ellipse
         id="path4504"
         style="opacity:0.62900002;fill:#00c3ff"
         cx="113.64217"
         cy="132.25632"
         rx="76.266518"
         ry="85.357887" /></g><g
       id="g4500"
       style="opacity:0.738"><path
         d="M 134.35029,87.809601 A 46.467018,45.961941 0 0 1 87.88327,133.77154 46.467018,45.961941 0 0 1 41.416252,87.809601 46.467018,45.961941 0 0 1 87.88327,41.84766 46.467018,45.961941 0 0 1 134.35029,87.809601 Z"
         fill="#00C3FF"
         sodipodi:cy="87.809601"
         sodipodi:ry="45.961941"
         sodipodi:rx="46.467018"
         sodipodi:cx="87.88327"
         sodipodi:type="arc"
         id="path24965-8"
         style="" /><path
         style="opacity:0.629"
         id="path4496"
         sodipodi:type="arc"
         sodipodi:cx="113.64217"
         sodipodi:rx="76.266518"
         sodipodi:ry="85.357887"
         sodipodi:cy="132.25632"
         fill="#00C3FF"
         d="M 189.90869,132.25632 A 76.266518,85.357887 0 0 1 113.64217,217.6142 76.266518,85.357887 0 0 1 37.375656,132.25632 76.266518,85.357887 0 0 1 113.64217,46.89843 76.266518,85.357887 0 0 1 189.90869,132.25632 Z" /></g><path
       id="path24989"
       sodipodi:type="arc"
       sodipodi:cx="113.64217"
       sodipodi:rx="76.266518"
       sodipodi:ry="85.357887"
       sodipodi:cy="132.25632"
       fill="#00C3FF"
       d="M 189.90869,132.25632 A 76.266518,85.357887 0 0 1 113.64217,217.6142 76.266518,85.357887 0 0 1 37.375656,132.25632 76.266518,85.357887 0 0 1 113.64217,46.89843 76.266518,85.357887 0 0 1 189.90869,132.25632 Z" /><path
       id="path24997"
       sodipodi:nodetypes="ccccccc"
       d="m 141.81211,100.58216 c -9.05,-9.342 -19.685,-14.506 -32.325,-16.163 -11.583997,-0.575 -27.215997,4.729 -28.284997,19.193 -0.916,15.696 8.749,21.047 29.294997,26.264 17.763,4.64 34.399,7.71 33.335,25.253 -0.377,15.747 -15.618,22.79 -32.325,22.224 -16.548997,-0.758 -27.076997,-9.137 -33.334997,-17.173"
       inkscape:connector-curvature="0"
       style="fill:none;stroke:#ffffff;stroke-width:23;stroke-linecap:round" /></g></svg>