<?xml version="1.0" encoding="UTF-8" standalone="no"?>
<!-- Created with Inkscape (http://www.inkscape.org/) -->

<svg
   xmlns:dc="http://purl.org/dc/elements/1.1/"
   xmlns:cc="http://creativecommons.org/ns#"
   xmlns:rdf="http://www.w3.org/1999/02/22-rdf-syntax-ns#"
   xmlns:svg="http://www.w3.org/2000/svg"
   xmlns="http://www.w3.org/2000/svg"
   xmlns:sodipodi="http://sodipodi.sourceforge.net/DTD/sodipodi-0.dtd"
   xmlns:inkscape="http://www.inkscape.org/namespaces/inkscape"
   width="56"
   height="52"
   viewBox="0 0 14.816667 13.758334"
   version="1.1"
   id="svg4534"
   inkscape:version="0.92.1 r15371"
   sodipodi:docname="skype.svg">
  <defs
     id="defs4528" />
  <sodipodi:namedview
     id="base"
     pagecolor="#ffffff"
     bordercolor="#666666"
     borderopacity="1.0"
     inkscape:pageopacity="0.0"
     inkscape:pageshadow="2"
     inkscape:zoom="3.959798"
     inkscape:cx="8.6629773"
     inkscape:cy="38.878273"
     inkscape:document-units="mm"
     inkscape:current-layer="layer1"
     showgrid="false"
     units="px"
     inkscape:window-width="1366"
     inkscape:window-height="706"
     inkscape:window-x="-8"
     inkscape:window-y="-8"
     inkscape:window-maximized="1" />
  <metadata
     id="metadata4531">
    <rdf:RDF>
      <cc:Work
         rdf:about="">
        <dc:format>image/svg+xml</dc:format>
        <dc:type
           rdf:resource="http://purl.org/dc/dcmitype/StillImage" />
        <dc:title />
      </cc:Work>
    </rdf:RDF>
  </metadata>
  <g
     inkscape:label="Layer 1"
     inkscape:groupmode="layer"
     id="layer1"
     transform="translate(0,-283.24167)">
    <g
       id="g4496"
       transform="matrix(1.1677508,0,0,1.1677508,18.737853,-49.073053)"
       style="fill:#1a1a1a;fill-opacity:1;stroke-width:0.85634714">
      <path
         style="fill:#1a1a1a;fill-opacity:1;stroke-width:0.85634714"
         d="m -7.3447347,296.3075 c -0.447676,-0.0537 -0.8912623,-0.17973 -1.2273644,-0.34872 l -0.2035858,-0.10236 -0.4699062,0.0303 c -1.0610899,0.0685 -1.9921089,-0.0935 -2.8960109,-0.50377 -0.714022,-0.3241 -1.255421,-0.69748 -1.777756,-1.22605 -0.800586,-0.81014 -1.320065,-1.84085 -1.490914,-2.95817 -0.05298,-0.34645 -0.06029,-1.04114 -0.01411,-1.33949 l 0.03253,-0.2101 -0.128271,-0.21313 c -0.178113,-0.29594 -0.310646,-0.62893 -0.340572,-0.85569 -0.0424,-0.32131 -0.05318,-0.80576 -0.0236,-1.06121 0.038,-0.3282 0.08443,-0.51074 0.195389,-0.7681 0.552091,-1.28059 1.934161,-2.09659 3.436224,-2.02881 0.542509,0.0245 1.005112,0.13877 1.465153,0.36196 l 0.200395,0.0972 0.31252,-0.031 c 0.3809834,-0.0377 1.1416895,-0.0192 1.5090361,0.0368 0.900277,0.13723 1.7308879,0.45658 2.4682432,0.94899 0.8445738,0.56402 1.476671,1.28085 1.9047437,2.16009 0.2507877,0.5151 0.3900754,0.98276 0.4591595,1.54164 0.033865,0.27397 0.032275,0.84774 -0.00323,1.16709 l -0.028676,0.25788 0.086654,0.14399 c 0.2325171,0.38634 0.3264672,0.65344 0.3749969,1.06611 0.059116,0.5027 0.018237,1.20117 -0.088889,1.51881 -0.1595878,0.47317 -0.4301877,0.8967 -0.8232782,1.28854 -0.5833265,0.58147 -1.2825492,0.9182 -2.1145922,1.01833 -0.193324,0.0233 -0.652158,0.0282 -0.8142829,0.009 z m -1.7113763,-2.3992 c 0.6854787,-0.0862 1.1064228,-0.23014 1.55173,-0.53062 0.4138963,-0.27929 0.6857502,-0.64271 0.8067138,-1.07845 0.070941,-0.25554 0.076458,-0.74197 0.011242,-0.99117 -0.1168835,-0.44663 -0.4488797,-0.81302 -0.9740526,-1.07496 -0.321231,-0.16022 -0.6559855,-0.26005 -1.6515796,-0.49254 -1.2151486,-0.28375 -1.3980366,-0.34259 -1.6459036,-0.52954 -0.147725,-0.11142 -0.212124,-0.24163 -0.212124,-0.42891 0,-0.33374 0.254542,-0.5803 0.745414,-0.72204 0.164779,-0.0476 0.245455,-0.0547 0.6147109,-0.0545 0.6200948,3.6e-4 0.8254719,0.064 1.1241484,0.34823 0.077268,0.0735 0.2138876,0.24367 0.3035992,0.37808 0.2690729,0.40313 0.3940419,0.49738 0.6872735,0.51836 0.2094191,0.015 0.3704829,-0.0378 0.5217746,-0.17096 0.2043057,-0.17984 0.2521527,-0.39405 0.1568981,-0.70245 -0.063656,-0.2061 -0.156687,-0.34112 -0.3859022,-0.56012 -0.5217576,-0.49848 -1.2492048,-0.727 -2.3106398,-0.72586 -0.8353357,9.1e-4 -1.3923057,0.11174 -1.9308907,0.38425 -0.632,0.31977 -0.959374,0.80307 -0.959374,1.41632 0,0.42905 0.139353,0.74604 0.463621,1.05462 0.181122,0.17236 0.25719,0.2249 0.488715,0.33753 0.447784,0.21784 0.786235,0.31778 1.9095234,0.56386 0.338374,0.0741 0.6990498,0.16126 0.8015019,0.19362 0.3392376,0.10717 0.6126957,0.30995 0.7485935,0.55513 0.061707,0.11132 0.069156,0.14837 0.069047,0.34338 -1.457e-4,0.25759 -0.046513,0.38243 -0.2065213,0.55602 -0.3001044,0.32557 -0.7379705,0.47621 -1.3842158,0.47621 -0.5269847,0 -0.7833357,-0.0661 -1.0817187,-0.27905 -0.180532,-0.12882 -0.388105,-0.41798 -0.551936,-0.76885 -0.120442,-0.25795 -0.263454,-0.43353 -0.41687,-0.5118 -0.212496,-0.10841 -0.552004,-0.0747 -0.75913,0.0753 -0.258182,0.18703 -0.287707,0.60326 -0.07342,1.03506 0.462381,0.9317 1.431093,1.40807 2.8839968,1.41821 0.2075623,0.001 0.5026607,-0.0131 0.6557743,-0.0324 z"
         id="path4510"
         inkscape:connector-curvature="0" />
      <path
         style="fill:#1a1a1a;fill-opacity:1;stroke-width:0.85634714"
         d="m -7.4054546,296.28266 c -0.3522144,-0.0364 -0.8166019,-0.17344 -1.1600824,-0.34226 l -0.2249968,-0.11058 -0.2971938,0.0285 c -1.5912614,0.15278 -3.1547654,-0.31443 -4.3801164,-1.30888 -0.427596,-0.34702 -0.912953,-0.90143 -1.200453,-1.37125 -0.601445,-0.98285 -0.880869,-2.22003 -0.74018,-3.27723 l 0.03533,-0.26553 -0.09329,-0.14771 c -0.330287,-0.52298 -0.45779,-1.0074 -0.431852,-1.64073 0.02204,-0.53805 0.07339,-0.76257 0.269921,-1.18006 0.449857,-0.95562 1.367727,-1.64193 2.503981,-1.87227 0.309678,-0.0628 1.125834,-0.0626 1.419381,2.3e-4 0.296442,0.0635 0.634229,0.1759 0.897408,0.29862 l 0.228907,0.10674 0.260924,-0.0273 c 0.3556751,-0.0372 1.2470693,-0.0162 1.588615,0.0375 0.6141024,0.0966 1.1522138,0.26832 1.7487313,0.55811 1.1269146,0.54748 2.0054629,1.40583 2.5501835,2.49157 0.2394042,0.47718 0.3806135,0.92192 0.4626191,1.45701 0.048509,0.31653 0.05404,0.94199 0.011433,1.29294 l -0.03165,0.2607 0.061989,0.0937 c 0.3888156,0.58754 0.532145,1.37159 0.4085122,2.23466 -0.083696,0.58427 -0.4494565,1.23797 -0.9696662,1.73302 -0.5228967,0.4976 -1.1897873,0.81913 -1.9347979,0.93281 -0.1967522,0.03 -0.7654471,0.0402 -0.9836614,0.0177 z m -1.8215951,-2.33973 c 0.5168064,-0.0448 1.0510235,-0.17208 1.3479804,-0.32104 0.4186708,-0.21001 0.8279767,-0.55802 1.0060862,-0.85542 0.196095,-0.32742 0.2875723,-0.77707 0.243922,-1.19898 -0.0553,-0.53452 -0.2711971,-0.8784 -0.7459976,-1.18824 -0.404144,-0.26372 -0.6903503,-0.36612 -1.6455436,-0.58875 -1.5119857,-0.3524 -1.6579127,-0.39678 -1.9054087,-0.57953 -0.16712,-0.1234 -0.231498,-0.24426 -0.229816,-0.43145 0.0032,-0.35185 0.317801,-0.61762 0.861654,-0.72782 0.158693,-0.0322 0.283346,-0.0381 0.5915869,-0.0281 0.3982901,0.0129 0.5513886,0.0418 0.7468797,0.14141 0.1451671,0.0739 0.3761716,0.30565 0.5153793,0.51698 0.2963864,0.44992 0.438723,0.56396 0.7377189,0.59107 0.2312396,0.021 0.396844,-0.0402 0.5656988,-0.2091 0.1955531,-0.19555 0.2325101,-0.34938 0.1554654,-0.6471 -0.1210477,-0.46777 -0.6435478,-0.91905 -1.3345028,-1.15261 -0.4439009,-0.15005 -0.6839646,-0.18159 -1.3847177,-0.18194 -0.7020205,-3.6e-4 -0.9596855,0.0292 -1.4066195,0.16138 -0.789607,0.23351 -1.289676,0.6522 -1.460366,1.22271 -0.03051,0.10198 -0.04357,0.22593 -0.04349,0.4129 1.21e-4,0.30532 0.04442,0.5065 0.159001,0.72215 0.09585,0.1804 0.440278,0.5131 0.655617,0.63328 0.379109,0.21159 0.911926,0.38253 1.755823,0.56329 1.1541794,0.24723 1.3602055,0.31757 1.6274546,0.55563 0.1927068,0.17165 0.2633111,0.31291 0.2746606,0.54949 0.012689,0.26451 -0.053215,0.42745 -0.2519694,0.62295 -0.259313,0.25507 -0.575896,0.38022 -1.0672349,0.42188 -0.4628302,0.0392 -0.8290279,-0.009 -1.1172449,-0.14722 -0.314338,-0.15073 -0.514649,-0.38452 -0.75145,-0.87705 -0.208682,-0.43404 -0.397056,-0.58596 -0.730114,-0.58883 -0.436591,-0.004 -0.701655,0.23524 -0.697576,0.62898 0.0038,0.36581 0.180786,0.7465 0.51926,1.11684 0.591072,0.64673 1.729858,0.97319 3.0078603,0.86227 z"
         id="path4508"
         inkscape:connector-curvature="0" />
      <path
         style="fill:#1a1a1a;fill-opacity:1;stroke-width:0.85634714"
         d="m -7.3668491,296.27421 c -0.4512888,-0.0515 -0.8290267,-0.16178 -1.2129077,-0.35393 l -0.2149291,-0.10758 -0.2101098,0.0265 c -0.3156766,0.0398 -1.1306913,0.0325 -1.4721233,-0.0132 -1.687831,-0.22587 -3.206839,-1.16188 -4.099915,-2.52636 -0.326738,-0.4992 -0.629843,-1.2227 -0.742799,-1.77302 -0.109279,-0.5324 -0.138075,-1.15358 -0.07621,-1.64406 l 0.03275,-0.25965 -0.08736,-0.13158 c -0.564297,-0.84989 -0.6078,-1.9861 -0.11232,-2.93356 0.827475,-1.58232 2.931074,-2.26387 4.630967,-1.50041 0.254457,0.11429 0.300305,0.12721 0.441794,0.12454 1.0559815,-0.02 1.3861094,-0.0148 1.6637232,0.0261 0.6634361,0.0978 1.2424197,0.27754 1.8458831,0.57302 0.9279694,0.45437 1.6589619,1.08626 2.2138291,1.91369 0.2037942,0.30391 0.4927096,0.89286 0.6003618,1.22385 0.2124215,0.6531 0.2840928,1.40342 0.19808,2.07368 l -0.034285,0.26716 0.080786,0.13359 c 0.2242325,0.37078 0.3597471,0.73773 0.4143835,1.1221 0.08311,0.58467 0.014908,1.17841 -0.1916112,1.66808 -0.4558483,1.08086 -1.4368145,1.84724 -2.6310192,2.0555 -0.2591895,0.0452 -0.7921817,0.0634 -1.0369586,0.0355 z m -1.627921,-2.34182 c 0.3170598,-0.042 0.5376742,-0.0905 0.7999576,-0.17566 0.6399594,-0.20789 1.2100196,-0.6792 1.4339581,-1.18556 0.1159571,-0.2622 0.1429119,-0.41374 0.1425937,-0.80164 -2.72e-4,-0.33093 -0.00634,-0.38248 -0.066205,-0.56245 -0.1138407,-0.34222 -0.33751,-0.61599 -0.687667,-0.84168 -0.4086962,-0.26343 -0.7066128,-0.36682 -1.769909,-0.61421 -1.1588063,-0.2696 -1.3284763,-0.31496 -1.5348643,-0.41032 -0.335656,-0.15508 -0.46935,-0.31257 -0.468357,-0.55172 7.09e-4,-0.17085 0.06271,-0.29784 0.214282,-0.43892 0.137955,-0.1284 0.26514,-0.19124 0.53811,-0.26589 0.147827,-0.0404 0.255404,-0.0499 0.5707672,-0.0503 0.6193073,-7.6e-4 0.8470128,0.0715 1.1304627,0.35866 0.081476,0.0825 0.2136836,0.24765 0.2937947,0.3669 0.2672277,0.39777 0.3997056,0.49602 0.6947559,0.51529 0.2157198,0.0141 0.3462272,-0.02 0.4976491,-0.12992 0.2433517,-0.17668 0.3157973,-0.41949 0.2251161,-0.75449 -0.1495743,-0.55258 -0.8668976,-1.06819 -1.7341457,-1.24652 -0.748765,-0.15396 -1.791514,-0.10769 -2.465377,0.1094 -0.456843,0.14717 -0.779393,0.33862 -1.046762,0.62132 -0.2867,0.30313 -0.400751,0.59329 -0.400751,1.01955 0,0.43978 0.138877,0.76671 0.452546,1.06536 0.403055,0.38375 0.926617,0.58803 2.2377768,0.87312 1.0955352,0.2382 1.2659027,0.29858 1.5241556,0.54016 0.2092182,0.19572 0.2659505,0.31694 0.2651895,0.56667 -7.116e-4,0.23315 -0.052208,0.36541 -0.2088983,0.5365 -0.2020861,0.22065 -0.5214127,0.37795 -0.9052787,0.44592 -0.2032237,0.036 -0.7187514,0.0302 -0.9479749,-0.0106 -0.218879,-0.039 -0.483765,-0.15947 -0.634199,-0.28843 -0.138211,-0.11848 -0.326546,-0.39966 -0.474086,-0.70781 -0.202551,-0.42303 -0.37331,-0.56928 -0.688312,-0.58949 -0.262343,-0.0168 -0.424528,0.0378 -0.582949,0.19657 -0.154892,0.15519 -0.197559,0.28255 -0.17521,0.52302 0.02745,0.29538 0.166888,0.6073 0.405875,0.90795 0.416738,0.52426 1.085367,0.85843 1.953711,0.97643 0.331837,0.0451 1.0799268,0.0466 1.4102452,0.003 z"
         id="path4506"
         inkscape:connector-curvature="0" />
      <path
         style="fill:#1a1a1a;fill-opacity:1;stroke-width:0.85634714"
         d="m -7.5592436,296.23687 c -0.379565,-0.0591 -0.8368369,-0.21147 -1.1038789,-0.36797 l -0.1056042,-0.0619 -0.3334262,0.0313 c -0.398472,0.0374 -1.1094111,0.0199 -1.4850211,-0.0365 -0.967194,-0.14531 -1.8928,-0.5354 -2.695961,-1.13619 -0.278997,-0.20869 -0.773297,-0.68729 -0.977172,-0.94612 -0.547777,-0.69544 -0.925429,-1.50951 -1.073572,-2.31422 -0.09172,-0.49822 -0.110908,-1.06969 -0.05096,-1.51786 l 0.03409,-0.25488 -0.0926,-0.14662 c -0.199107,-0.31526 -0.341047,-0.66114 -0.418363,-1.01948 -0.018,-0.0834 -0.03127,-0.30147 -0.03103,-0.51005 5.82e-4,-0.5144 0.0705,-0.82684 0.288521,-1.28935 0.15663,-0.33227 0.332404,-0.57622 0.630725,-0.87536 0.498113,-0.4995 1.086278,-0.81097 1.836667,-0.97265 0.29122,-0.0627 1.131645,-0.063 1.440647,-4.4e-4 0.278382,0.0564 0.6019,0.16538 0.890203,0.29996 l 0.230524,0.10761 0.218802,-0.0269 c 0.280259,-0.0344 1.0769154,-0.0348 1.3603357,-7.8e-4 0.7512399,0.0903 1.3561968,0.2685 2.0236827,0.59601 1.5201704,0.7459 2.6256375,2.11995 2.9308108,3.6429 0.1127244,0.56254 0.1281725,0.99972 0.056888,1.60988 -0.025813,0.22095 -0.025185,0.22661 0.035256,0.31795 0.1781137,0.26914 0.3445086,0.68222 0.4221382,1.04796 0.05366,0.25281 0.059443,0.84675 0.010879,1.11725 -0.1150483,0.64079 -0.432767,1.23352 -0.9247534,1.72519 -0.5142047,0.51387 -1.1605057,0.84721 -1.8816828,0.9705 -0.3386809,0.0579 -0.9016293,0.0628 -1.2361471,0.0108 z m -1.690877,-2.27063 c 0.5271976,-0.0414 1.0683498,-0.1705 1.3953392,-0.33292 0.4088636,-0.20309 0.8205509,-0.56099 1.0055228,-0.87416 0.1986126,-0.33626 0.2803473,-0.73908 0.2410072,-1.18777 -0.060614,-0.69132 -0.4614557,-1.14784 -1.3117693,-1.49398 -0.2455588,-0.1 -0.4838004,-0.16491 -1.331317,-0.3629 -0.5677305,-0.13263 -1.1032793,-0.26432 -1.1901093,-0.29264 -0.499256,-0.16284 -0.735725,-0.3983 -0.695409,-0.69244 0.0299,-0.21815 0.212022,-0.43409 0.453324,-0.53749 0.288869,-0.1238 0.37718,-0.13776 0.8735718,-0.13812 0.4962638,-3.6e-4 0.6318521,0.021 0.8493467,0.13349 0.1542862,0.0798 0.3578337,0.2869 0.5190815,0.52804 0.2230349,0.33355 0.3130341,0.43049 0.4720084,0.50843 0.1180342,0.0579 0.1683734,0.068 0.3333337,0.0671 0.2393423,-0.001 0.3877377,-0.0688 0.5516479,-0.25114 0.1456769,-0.16202 0.1830922,-0.29391 0.1455275,-0.51297 -0.036326,-0.21184 -0.094222,-0.34187 -0.2357421,-0.52948 -0.3027814,-0.40138 -0.8989613,-0.73545 -1.5432306,-0.86477 -0.7683139,-0.15421 -1.8284118,-0.1027 -2.4967298,0.12132 -0.778006,0.26079 -1.246559,0.68999 -1.389994,1.27323 -0.045,0.18297 -0.03856,0.58238 0.01251,0.77548 0.07928,0.29981 0.263679,0.56702 0.539088,0.78116 0.425725,0.33102 0.89695,0.49406 2.345086,0.8114 0.888649,0.19473 1.0568116,0.2599 1.3163452,0.51008 0.1849351,0.17827 0.2212264,0.26807 0.2208519,0.54648 -3.692e-4,0.27544 -0.043412,0.37739 -0.2405856,0.56985 -0.3078707,0.30051 -0.872845,0.45686 -1.4956914,0.41393 -0.7223621,-0.0498 -1.0458291,-0.28539 -1.3982551,-1.0184 -0.212986,-0.44299 -0.412079,-0.604 -0.748837,-0.60557 -0.442878,-0.002 -0.718884,0.2444 -0.718884,0.64195 0,0.3846 0.172687,0.75801 0.52813,1.14201 0.60957,0.65853 1.691394,0.97308 2.9948374,0.87078 z"
         id="path4504"
         inkscape:connector-curvature="0" />
      <path
         style="fill:#1a1a1a;fill-opacity:1;stroke-width:0.85634714"
         d="m -7.4783184,296.24006 c -0.4047863,-0.0585 -0.7015512,-0.14891 -1.0808131,-0.32938 l -0.2428794,-0.11557 -0.1821595,0.0232 c -0.3216177,0.041 -1.1925686,0.0333 -1.5179956,-0.0135 -1.897702,-0.27282 -3.548088,-1.41867 -4.342878,-3.01521 -0.342243,-0.68748 -0.499352,-1.2581 -0.555158,-2.01633 -0.02492,-0.33864 -0.02313,-0.43883 0.01387,-0.77347 l 0.0425,-0.38444 -0.08465,-0.12749 c -0.18092,-0.27249 -0.321616,-0.60102 -0.410147,-0.95772 -0.06745,-0.27174 -0.07199,-0.81458 -0.0093,-1.10818 0.216202,-1.01218 0.835498,-1.80421 1.771479,-2.26559 0.450089,-0.22187 0.77574,-0.3165 1.276473,-0.37093 0.66583,-0.0724 1.355597,0.0447 1.969904,0.33444 l 0.230735,0.10882 0.343522,-0.0304 c 0.7629425,-0.0675 1.6056226,0.0136 2.3160069,0.22295 1.9179918,0.56529 3.4175002,2.06284 3.8516403,3.8466 0.1279534,0.52573 0.1686712,1.25565 0.097954,1.75595 -0.031281,0.2213 -0.030775,0.22785 0.02535,0.32789 0.2354118,0.41962 0.3206299,0.63002 0.42499,1.04931 0.071737,0.28821 0.076619,0.8157 0.010565,1.14153 -0.1330221,0.65616 -0.4362132,1.22447 -0.9086707,1.70325 -0.4751133,0.48146 -1.1782677,0.84642 -1.8682503,0.96967 -0.2988592,0.0534 -0.8873381,0.0657 -1.1721074,0.0246 z m -1.5415586,-2.28442 c 0.5048536,-0.0629 0.9392688,-0.18708 1.2393456,-0.35418 0.6618438,-0.36856 1.0303763,-0.80685 1.1544862,-1.37303 0.047224,-0.21543 0.041925,-0.74072 -0.00938,-0.92978 -0.079126,-0.29159 -0.1784962,-0.45963 -0.4037649,-0.6828 -0.4340004,-0.42994 -0.8147604,-0.58749 -2.2000053,-0.91032 -1.1627186,-0.27097 -1.2077786,-0.28317 -1.4377846,-0.38918 -0.33341,-0.15367 -0.444531,-0.28685 -0.444531,-0.5328 0,-0.31511 0.258515,-0.55629 0.728638,-0.67978 0.384295,-0.10095 1.078795,-0.0663 1.3731946,0.0684 0.1785953,0.0818 0.416706,0.31352 0.5856276,0.57001 0.1675914,0.25447 0.3290573,0.42953 0.4572301,0.4957 0.067031,0.0346 0.1599404,0.0539 0.2956456,0.0613 0.1733824,0.01 0.2143595,0.003 0.3308022,-0.05 0.3781099,-0.1731 0.5116329,-0.48204 0.3846604,-0.89001 -0.065856,-0.21159 -0.1722257,-0.36305 -0.4163899,-0.5929 -0.235534,-0.22172 -0.5770998,-0.42005 -0.9220075,-0.53537 -0.8054059,-0.26927 -2.0890891,-0.26099 -2.9254531,0.0189 -0.927126,0.31024 -1.42155,0.87704 -1.421307,1.62939 1.46e-4,0.42385 0.119927,0.73474 0.394482,1.02377 0.413833,0.43566 0.965315,0.66318 2.2885545,0.94418 0.6595513,0.14005 1.0810531,0.25225 1.2508287,0.33293 0.1040311,0.0494 0.2131055,0.13014 0.3198289,0.23662 0.1346853,0.13439 0.1689284,0.18558 0.2033563,0.30401 0.1171611,0.40302 -0.096392,0.79541 -0.5546461,1.01912 -0.269052,0.13135 -0.4215297,0.16331 -0.8432669,0.17678 -0.5711974,0.0183 -0.8389854,-0.0384 -1.1439584,-0.24207 -0.19349,-0.12921 -0.343569,-0.33221 -0.549687,-0.74354 -0.131057,-0.26153 -0.187217,-0.34684 -0.290475,-0.44121 -0.166625,-0.15229 -0.317671,-0.20395 -0.550669,-0.18835 -0.281957,0.0189 -0.484559,0.14201 -0.604827,0.3676 -0.117441,0.22029 -0.04775,0.65691 0.161417,1.01122 0.431846,0.73152 1.189942,1.15963 2.274211,1.2843 0.3016903,0.0347 0.9627968,0.03 1.2758423,-0.009 z"
         id="path4502"
         inkscape:connector-curvature="0" />
      <path
         style="fill:#1a1a1a;fill-opacity:1;stroke-width:0.85634714"
         d="m -7.5633261,296.21678 c -0.3743245,-0.0617 -0.8370121,-0.21817 -1.0988904,-0.37164 l -0.1046985,-0.0614 -0.3263939,0.0306 c -0.3988973,0.0374 -1.1555201,0.0185 -1.5167061,-0.0377 -0.58458,-0.091 -1.122649,-0.26141 -1.689459,-0.53502 -1.621996,-0.78295 -2.752178,-2.26054 -3.036575,-3.96999 -0.05788,-0.34793 -0.07399,-0.9702 -0.03384,-1.30788 0.0185,-0.15564 0.03131,-0.30154 0.02847,-0.32421 -0.0028,-0.0227 -0.04536,-0.10407 -0.09449,-0.18088 -0.140426,-0.21952 -0.291608,-0.56051 -0.348411,-0.78584 -0.02862,-0.11355 -0.06144,-0.23924 -0.07292,-0.27931 -0.03647,-0.12731 -0.04987,-0.45475 -0.02683,-0.65578 0.08953,-0.78119 0.381931,-1.39341 0.923845,-1.9343 0.482314,-0.4814 1.076547,-0.80065 1.764184,-0.94781 0.231418,-0.0495 0.331392,-0.0567 0.787271,-0.0565 0.417612,1.7e-4 0.563535,0.009 0.728638,0.0453 0.293465,0.0641 0.606522,0.17033 0.871585,0.29589 l 0.228809,0.10839 0.208801,-0.0267 c 0.315626,-0.0404 1.1528281,-0.0329 1.4951017,0.0133 1.270541,0.17171 2.4061815,0.70719 3.3240724,1.5674 0.3595032,0.33691 0.7621544,0.86535 1.0199604,1.33861 0.2449103,0.44958 0.4578538,1.10315 0.5292866,1.62449 0.040922,0.29866 0.040579,0.96711 -6.509e-4,1.26827 l -0.032314,0.23604 0.074151,0.11614 c 0.18616,0.29156 0.3210885,0.6355 0.4314592,1.09979 0.049931,0.21005 0.059765,0.80647 0.01562,0.94737 -0.014625,0.0467 -0.039351,0.14955 -0.054947,0.22859 -0.107019,0.54243 -0.4350312,1.13236 -0.8723629,1.56896 -0.4831142,0.48231 -1.077883,0.80381 -1.7737863,0.95883 -0.2467348,0.055 -1.0773912,0.0716 -1.3479804,0.027 z m -1.4208443,-2.25228 c 0.7977169,-0.10028 1.3984977,-0.36948 1.8598169,-0.83335 0.2233397,-0.22458 0.3660371,-0.44924 0.4637412,-0.73013 0.063516,-0.18261 0.067623,-0.21917 0.068195,-0.6072 5.756e-4,-0.38995 -0.00318,-0.42393 -0.067564,-0.61143 -0.1495468,-0.43551 -0.478226,-0.76416 -1.027067,-1.02698 -0.3385826,-0.16213 -0.5954244,-0.23827 -1.561357,-0.46285 -1.2660357,-0.29436 -1.4967427,-0.36969 -1.7126037,-0.55922 -0.159482,-0.14003 -0.200995,-0.38623 -0.09853,-0.58437 0.111456,-0.21554 0.422833,-0.39512 0.798527,-0.46054 0.221001,-0.0385 0.931351,-0.0165 1.0854191,0.0336 0.2974065,0.0967 0.5005051,0.27456 0.7591162,0.66472 0.2712805,0.40928 0.4438431,0.52763 0.7681451,0.52683 0.267313,-6.6e-4 0.4942298,-0.1134 0.6323748,-0.31419 0.1039569,-0.15109 0.1317921,-0.29068 0.097376,-0.48831 -0.078033,-0.4481 -0.4327656,-0.84421 -1.0090625,-1.12676 -0.5050023,-0.2476 -0.9024945,-0.33506 -1.6151477,-0.35539 -0.772614,-0.022 -1.418459,0.0793 -1.940885,0.30453 -0.341127,0.14707 -0.48005,0.23905 -0.720602,0.47712 -0.237477,0.23502 -0.357706,0.43812 -0.424145,0.71649 -0.04017,0.16829 -0.04015,0.55525 2.4e-5,0.72945 0.04693,0.20346 0.178662,0.45783 0.317296,0.6127 0.406549,0.45416 0.96324,0.68984 2.3311202,0.98692 0.7412328,0.16098 1.0988464,0.25578 1.2590411,0.33374 0.1665373,0.0811 0.4234495,0.32136 0.4895435,0.45789 0.076169,0.15734 0.071957,0.43094 -0.00937,0.60859 -0.1203542,0.26288 -0.442593,0.48857 -0.8527045,0.59721 -0.259877,0.0688 -0.9316933,0.0768 -1.1840373,0.014 -0.46418,-0.11551 -0.722171,-0.36413 -1.020503,-0.98342 -0.207948,-0.43166 -0.415256,-0.59361 -0.759872,-0.59361 -0.324984,0 -0.567744,0.13547 -0.681846,0.38051 -0.101944,0.21893 -0.06337,0.58822 0.09401,0.9 0.154168,0.30542 0.506131,0.69896 0.795564,0.88956 0.434364,0.28603 1.024059,0.47116 1.690231,0.53061 0.2771471,0.0247 0.8745188,0.0112 1.175746,-0.0267 z"
         id="path4500"
         inkscape:connector-curvature="0" />
      <path
         style="fill:#1a1a1a;fill-opacity:1;stroke-width:0.85634714"
         d="m -7.3483305,296.22577 c -0.4224926,-0.0445 -0.7984606,-0.15166 -1.1955098,-0.34074 l -0.2518758,-0.11995 -0.2217389,0.0255 c -0.3343062,0.0385 -1.0979,0.0314 -1.436135,-0.0133 -0.62832,-0.0831 -1.135424,-0.22834 -1.69419,-0.4854 -2.192864,-1.00881 -3.44544,-3.11981 -3.199712,-5.39257 l 0.03151,-0.29146 -0.102466,-0.15787 c -0.199864,-0.30793 -0.372464,-0.74766 -0.406226,-1.03492 -0.0087,-0.0739 -0.02387,-0.12136 -0.03373,-0.1054 -0.0099,0.016 -0.02207,-0.0529 -0.02713,-0.15307 -0.01232,-0.24397 0.0046,-0.59018 0.02704,-0.55385 0.0099,0.0161 0.0252,-0.0319 0.03403,-0.10706 0.05182,-0.44093 0.299181,-0.99896 0.626536,-1.41344 0.486403,-0.61585 1.324729,-1.0996 2.13338,-1.23105 0.801988,-0.13037 1.516391,-0.0359 2.216074,0.29291 l 0.236606,0.11121 0.450709,-0.0315 c 0.8603707,-0.0601 1.6394818,0.0319 2.3889915,0.28213 1.4834459,0.49529 2.648158,1.48197 3.2938494,2.79037 0.4165335,0.84404 0.5787485,1.79404 0.4604412,2.69654 l -0.037017,0.28239 0.1110935,0.17824 c 0.1915,0.30725 0.3991978,0.90094 0.4004959,1.1448 2.624e-4,0.0493 0.00663,0.06 0.021575,0.0364 0.013415,-0.0212 0.024496,0.039 0.030168,0.16394 0.011876,0.26152 -0.00387,0.58869 -0.027627,0.57401 -0.010428,-0.006 -0.026782,0.0509 -0.036342,0.12741 -0.040934,0.32763 -0.2291331,0.81275 -0.4538276,1.16983 -0.6771153,1.07607 -2.0077418,1.69611 -3.3389749,1.55587 z m -1.4536804,-2.26753 c 0.7530774,-0.13789 1.2714021,-0.38959 1.7007414,-0.8259 0.3592122,-0.36504 0.5137126,-0.72137 0.5382512,-1.24137 0.04387,-0.92965 -0.3852011,-1.48768 -1.4597214,-1.89846 -0.1279734,-0.0489 -0.6593024,-0.18685 -1.2650299,-0.32839 -1.1171494,-0.26104 -1.3575594,-0.33417 -1.5648044,-0.47603 -0.181159,-0.12401 -0.227264,-0.19425 -0.239619,-0.36505 -0.02165,-0.29932 0.198363,-0.53705 0.614315,-0.66378 0.460114,-0.14019 1.2306605,-0.10319 1.5179956,0.0729 0.166837,0.10224 0.3261835,0.26756 0.4781218,0.49605 0.3301423,0.49647 0.5093229,0.61622 0.8909184,0.59542 0.2899853,-0.0158 0.5022119,-0.14449 0.632198,-0.38332 0.064143,-0.11785 0.068231,-0.14157 0.058713,-0.34063 -0.00889,-0.18587 -0.021899,-0.23757 -0.099116,-0.39381 -0.1542558,-0.31212 -0.4535646,-0.59777 -0.8435902,-0.8051 -0.5887422,-0.31297 -1.4122446,-0.44982 -2.2952096,-0.38144 -0.465783,0.0361 -0.710458,0.0797 -1.050795,0.18746 -0.478208,0.15138 -0.81108,0.34846 -1.086816,0.64345 -0.274495,0.29366 -0.400739,0.61944 -0.40012,1.03254 7.07e-4,0.47117 0.116667,0.75715 0.436824,1.07731 0.240607,0.24061 0.438923,0.36431 0.828654,0.51691 0.415068,0.16251 0.69413,0.24003 1.4179803,0.39389 0.6796194,0.14446 1.1425115,0.27051 1.2982402,0.35351 0.079438,0.0423 0.2097309,0.14498 0.2895401,0.2281 0.114947,0.1197 0.1536681,0.18056 0.1862921,0.29278 0.1545075,0.53149 -0.3111566,1.01586 -1.0863109,1.12995 -0.2531563,0.0373 -0.8205968,0.0184 -1.0081228,-0.0334 -0.429425,-0.11878 -0.654758,-0.33861 -0.949722,-0.92654 -0.179687,-0.35816 -0.275281,-0.47246 -0.478995,-0.57275 -0.147324,-0.0725 -0.168267,-0.0763 -0.369372,-0.0661 -0.236384,0.012 -0.369802,0.0635 -0.512847,0.1982 -0.231108,0.21758 -0.258643,0.58616 -0.07596,1.01678 0.191153,0.45058 0.651408,0.91635 1.153981,1.16781 0.281649,0.14091 0.819589,0.28504 1.273962,0.34131 0.214096,0.0265 1.257677,-0.004 1.4694201,-0.0423 z"
         id="path4498"
         inkscape:connector-curvature="0" />
    </g>
  </g>
</svg>
