<?xml version="1.0" encoding="UTF-8" standalone="no"?>
<!-- Created with Inkscape (http://www.inkscape.org/) -->

<svg
   xmlns:dc="http://purl.org/dc/elements/1.1/"
   xmlns:cc="http://creativecommons.org/ns#"
   xmlns:rdf="http://www.w3.org/1999/02/22-rdf-syntax-ns#"
   xmlns:svg="http://www.w3.org/2000/svg"
   xmlns="http://www.w3.org/2000/svg"
   xmlns:xlink="http://www.w3.org/1999/xlink"
   xmlns:sodipodi="http://sodipodi.sourceforge.net/DTD/sodipodi-0.dtd"
   xmlns:inkscape="http://www.inkscape.org/namespaces/inkscape"
   width="717.03381"
   height="241.20605"
   id="svg3003"
   version="1.1"
   inkscape:version="0.92.1 r15371"
   sodipodi:docname="SocialMediaIcons - original.svg"
   inkscape:export-filename="/home/nick/Desktop/smip.png"
   inkscape:export-xdpi="90"
   inkscape:export-ydpi="90">
  <defs
     id="defs3005">
    <clipPath
       id="clipPath20"
       clipPathUnits="userSpaceOnUse">
      <path
         inkscape:connector-curvature="0"
         id="path18"
         d="m 0,10.012 h 1366.9 v 1110.9 H 0 z" />
    </clipPath>
    <clipPath
       clipPathUnits="userSpaceOnUse"
       id="clipPath20-2">
      <path
         d="M 0,1567.7 V 0 h 6196 v 1567.7 z"
         id="path18-8"
         inkscape:connector-curvature="0" />
    </clipPath>
    <filter
       id="e"
       color-interpolation-filters="sRGB">
      <feGaussianBlur
         id="feGaussianBlur4016"
         stdDeviation="0.5" />
    </filter>
    <linearGradient
       x1="100"
       y1="-3.5999999"
       x2="100"
       gradientUnits="userSpaceOnUse"
       y2="203.60001"
       id="d">
      <stop
         id="stop4011"
         offset="0"
         stop-color="#00ffbf" />
      <stop
         id="stop4013"
         offset="1"
         stop-color="#444" />
    </linearGradient>
    <linearGradient
       x1="100"
       x2="100"
       gradientUnits="userSpaceOnUse"
       xlink:href="#a"
       y2="200"
       id="b" />
    <linearGradient
       x1="100"
       y1="-3.5999999"
       x2="100"
       gradientUnits="userSpaceOnUse"
       y2="203.60001"
       id="c">
      <stop
         id="stop4005"
         offset="0"
         stop-color="#00ffbf" />
      <stop
         id="stop4007"
         offset="1"
         stop-color="#3d4d48" />
    </linearGradient>
    <linearGradient
       x1="100"
       x2="100"
       gradientUnits="userSpaceOnUse"
       y2="200"
       id="a"
       y1="0"
       spreadMethod="pad">
      <stop
         id="stop4000"
         offset="0"
         stop-color="#00D59F" />
      <stop
         id="stop4002"
         offset="1"
         stop-color="#00AA80" />
    </linearGradient>
  </defs>
  <sodipodi:namedview
     id="base"
     pagecolor="#ffffff"
     bordercolor="#666666"
     borderopacity="1.0"
     inkscape:pageopacity="0.0"
     inkscape:pageshadow="2"
     inkscape:zoom="1"
     inkscape:cx="157.37059"
     inkscape:cy="157.57672"
     inkscape:document-units="px"
     inkscape:current-layer="layer1"
     showgrid="false"
     showborder="true"
     inkscape:showpageshadow="false"
     inkscape:window-width="1366"
     inkscape:window-height="706"
     inkscape:window-x="-8"
     inkscape:window-y="-8"
     inkscape:window-maximized="1"
     inkscape:object-nodes="false"
     borderlayer="true"
     fit-margin-top="0"
     fit-margin-left="0"
     fit-margin-right="0"
     fit-margin-bottom="0" />
  <metadata
     id="metadata3008">
    <rdf:RDF>
      <cc:Work
         rdf:about="">
        <dc:format>image/svg+xml</dc:format>
        <dc:type
           rdf:resource="http://purl.org/dc/dcmitype/StillImage" />
        <dc:title />
      </cc:Work>
    </rdf:RDF>
  </metadata>
  <g
     inkscape:label="Layer 1"
     inkscape:groupmode="layer"
     id="layer1"
     transform="translate(-447.04266,-105.59053)">
    <path
       style="fill:#1a1a1a;fill-rule:nonzero"
       d="m 523.44891,243.02108 0,0.0312 -2.125,0 0,0.0312 -1.625,0 0,0.0625 -1.34375,0 0,0.0312 -1.15625,0 0,0.0312 -1,0 0,0.0312 -0.90625,0 0,0.0312 -0.84375,0 0,0.0625 -0.71875,0 0,0.0312 -0.6875,0 0,0.0312 -0.625,0 0,0.0312 -0.5625,0 0,0.0625 -0.46875,0 0,0.0312 -0.34375,0 0,0.0312 -0.34375,0 0,0.0312 -0.21875,0 0,0.0312 -0.25,0 0,0.0625 -0.15625,0 0,0.0312 -0.125,0 0,0.0312 -0.15625,0 0,0.0312 -0.15625,0 0,0.0625 -0.15625,0 0,0.0312 -0.0937,0 0,0.0312 -0.0937,0 0,0.0312 -0.125,0 0,0.0625 -0.125,0 0,0.0312 -0.0625,0 0,0.0312 -0.125,0 0,0.0312 -0.0625,0 0,0.0312 -0.0937,0 0,0.0625 -0.0625,0 0,0.0312 -0.0937,0 0,0.0312 -0.0625,0 0,0.0312 -0.0625,0 0,0.0625 -0.0937,0 0,0.0312 -0.0625,0 0,0.0312 -0.0625,0 0,0.0312 -0.0625,0 0,0.0312 -0.0312,0 0,0.0625 -0.0937,0 0,0.0312 -0.0312,0 0,0.0312 -0.0625,0 0,0.0312 -0.0625,0 0,0.0625 -0.0625,0 0,0.0312 -0.0312,0 0,0.0312 -0.0937,0 0,0.0312 -0.0312,0 0,0.0312 -0.0312,0 0,0.0625 -0.0937,0 0,0.0312 -0.0312,0 0,0.0312 -0.0312,0 0,0.0312 -0.0312,0 0,0.0625 -0.0312,0 0,0.0312 -0.0625,0 0,0.0312 -0.0312,0 0,0.0312 -0.0312,0 0,0.0625 -0.0937,0 0,0.0312 -0.0312,0 0,0.0312 -0.0312,0 0,0.0312 -0.0312,0 0,0.0312 -0.0312,0 0,0.0625 -0.0625,0 0,0.0312 -0.0312,0 0,0.0312 -0.0312,0 0,0.0312 -0.0312,0 0,0.0312 -0.0625,0 0,0.0625 -0.0312,0 0,0.0312 -0.0312,0 0,0.0312 -0.0312,0 0,0.0312 -0.0625,0 0,0.0625 -0.0312,0 0,0.0312 -0.0312,0 0,0.0625 -0.0312,0 0,0.0625 -0.0312,0 0,0.0312 -0.0625,0 0,0.0625 -0.0312,0 0,0.0312 -0.0312,0 0,0.0937 -0.0312,0 0,0.0312 -0.0625,0 0,0.0937 -0.0312,0 0,0.0312 -0.0312,0 0,0.0625 -0.0312,0 0,0.0937 -0.0312,0 0,0.0312 -0.0625,0 0,0.0625 -0.0312,0 0,0.0937 -0.0312,0 0,0.0625 -0.0312,0 0,0.0937 -0.0625,0 0,0.0625 -0.0312,0 0,0.0937 -0.0312,0 0,0.0625 -0.0312,0 0,0.125 -0.0312,0 0,0.0625 -0.0625,0 0,0.0937 -0.0312,0 0,0.0937 -0.0312,0 0,0.0937 -0.0312,0 0,0.0937 -0.0625,0 0,0.0937 -0.0312,0 0,0.125 -0.0312,0 0,0.0937 -0.0312,0 0,0.125 -0.0625,0 0,0.0937 -0.0312,0 0,0.125 -0.0312,0 0,0.15625 -0.0312,0 0,0.125 -0.0312,0 0,0.0937 -0.0625,0 0,0.15625 -0.0312,0 0,0.15625 -0.0312,0 0,0.15625 -0.0312,0 0,0.15625 -0.0625,0 0,0.15625 -0.0312,0 0,0.1875 -0.0312,0 0,0.1875 -0.0312,0 0,0.1875 -0.0312,0 0,0.25 -0.0625,0 0,0.28125 -0.0312,0 0,0.40625 -0.0312,0 0,0.34375 -0.0312,0 0,0.375 -0.0625,0 0,0.40625 -0.0312,0 0,0.4375 -0.0312,0 0,0.5 -0.0312,0 0,0.5 -0.0312,0 0,0.53125 -0.0625,0 0,0.65625 -0.0312,0 0,0.75 -0.0312,0 0,1 -0.0312,0 0,6.65625 0.0312,0 0,1.03125 0.0312,0 0,0.75 0.0312,0 0,0.625 0.0625,0 0,0.5625 0.0312,0 0,0.5 0.0312,0 0,0.46875 0.0312,0 0,0.40625 0.0312,0 0,0.4375 0.0625,0 0,0.375 0.0312,0 0,0.375 0.0312,0 0,0.34375 0.0312,0 0,0.3125 0.0625,0 0,0.21875 0.0312,0 0,0.1875 0.0312,0 0,0.21875 0.0312,0 0,0.1875 0.0312,0 0,0.15625 0.0625,0 0,0.1875 0.0312,0 0,0.0937 0.0312,0 0,0.15625 0.0312,0 0,0.15625 0.0625,0 0,0.15625 0.0312,0 0,0.125 0.0312,0 0,0.0937 0.0312,0 0,0.125 0.0312,0 0,0.125 0.0625,0 0,0.0937 0.0312,0 0,0.125 0.0312,0 0,0.125 0.0312,0 0,0.0937 0.0625,0 0,0.0937 0.0312,0 0,0.125 0.0312,0 0,0.0625 0.0312,0 0,0.125 0.0625,0 0,0.0625 0.0312,0 0,0.0937 0.0312,0 0,0.0625 0.0312,0 0,0.0937 0.0312,0 0,0.0625 0.0625,0 0,0.0625 0.0312,0 0,0.0937 0.0312,0 0,0.0625 0.0312,0 0,0.0937 0.0625,0 0,0.0625 0.0312,0 0,0.0312 0.0312,0 0,0.0937 0.0312,0 0,0.0625 0.0312,0 0,0.0312 0.0625,0 0,0.0937 0.0312,0 0,0.0312 0.0312,0 0,0.0937 0.0312,0 0,0.0312 0.0625,0 0,0.0312 0.0312,0 0,0.0937 0.0312,0 0,0.0312 0.0312,0 0,0.0312 0.0312,0 0,0.0312 0.0625,0 0,0.0312 0.0312,0 0,0.0937 0.0312,0 0,0.0312 0.0312,0 0,0.0312 0.0625,0 0,0.0625 0.0312,0 0,0.0312 0.0312,0 0,0.0312 0.0312,0 0,0.0312 0.0625,0 0,0.0312 0.0312,0 0,0.0625 0.0312,0 0,0.0312 0.0312,0 0,0.0312 0.0937,0 0,0.0312 0.0312,0 0,0.0625 0.0312,0 0,0.0312 0.0312,0 0,0.0312 0.0625,0 0,0.0312 0.0625,0 0,0.0312 0.0312,0 0,0.0625 0.0312,0 0,0.0312 0.0625,0 0,0.0312 0.0625,0 0,0.0312 0.0312,0 0,0.0625 0.0937,0 0,0.0312 0.0312,0 0,0.0312 0.0625,0 0,0.0312 0.0625,0 0,0.0625 0.0625,0 0,0.0312 0.0312,0 0,0.0312 0.0937,0 0,0.0312 0.0625,0 0,0.0312 0.0937,0 0,0.0625 0.0312,0 0,0.0312 0.0625,0 0,0.0312 0.0937,0 0,0.0312 0.0625,0 0,0.0625 0.125,0 0,0.0312 0.0625,0 0,0.0312 0.0937,0 0,0.0312 0.0937,0 0,0.0312 0.0937,0 0,0.0625 0.125,0 0,0.0312 0.0937,0 0,0.0312 0.0937,0 0,0.0312 0.0937,0 0,0.0625 0.15625,0 0,0.0312 0.125,0 0,0.0312 0.15625,0 0,0.0312 0.1875,0 0,0.0312 0.15625,0 0,0.0625 0.1875,0 0,0.0312 0.21875,0 0,0.0312 0.25,0 0,0.0312 0.25,0 0,0.0625 0.3125,0 0,0.0312 0.3125,0 0,0.0312 0.3125,0 0,0.0312 0.34375,0 0,0.0312 0.4375,0 0,0.0625 0.59375,0 0,0.0312 0.6875,0 0,0.0312 0.75,0 0,0.0312 0.9375,0 0,0.0625 1.0625,0 0,0.0312 1.1875,0 0,0.0312 1.40625,0 0,0.0312 1.59375,0 0,0.0312 1.9375,0 0,0.0625 2.28125,0 0,0.0312 7.1875,0 0,-0.0312 2.1875,0 0,-0.0625 1.6875,0 0,-0.0312 1.40625,0 0,-0.0312 1.1875,0 0,-0.0312 1.0625,0 0,-0.0312 0.96875,0 0,-0.0625 0.78125,0 0,-0.0312 0.8125,0 0,-0.0312 0.6875,0 0,-0.0312 0.65625,0 0,-0.0625 0.625,0 0,-0.0312 0.53125,0 0,-0.0312 0.375,0 0,-0.0312 0.34375,0 0,-0.0312 0.28125,0 0,-0.0625 0.21875,0 0,-0.0312 0.21875,0 0,-0.0312 0.15625,0 0,-0.0312 0.15625,0 0,-0.0625 0.15625,0 0,-0.0312 0.15625,0 0,-0.0312 0.0937,0 0,-0.0312 0.125,0 0,-0.0312 0.0937,0 0,-0.0625 0.0937,0 0,-0.0312 0.125,0 0,-0.0312 0.125,0 0,-0.0312 0.0625,0 0,-0.0625 0.0625,0 0,-0.0312 0.0937,0 0,-0.0312 0.0625,0 0,-0.0312 0.0937,0 0,-0.0312 0.0625,0 0,-0.0625 0.0937,0 0,-0.0312 0.0625,0 0,-0.0312 0.0937,0 0,-0.0312 0.0312,0 0,-0.0625 0.0312,0 0,-0.0312 0.0937,0 0,-0.0312 0.0312,0 0,-0.0312 0.0625,0 0,-0.0312 0.0312,0 0,-0.0625 0.0937,0 0,-0.0312 0.0312,0 0,-0.0312 0.0937,0 0,-0.0312 0.0312,0 0,-0.0625 0.0625,0 0,-0.0312 0.0312,0 0,-0.0312 0.0625,0 0,-0.0312 0.0312,0 0,-0.0625 0.0312,0 0,-0.0312 0.0937,0 0,-0.0312 0.0312,0 0,-0.0312 0.0312,0 0,-0.0312 0.0312,0 0,-0.0625 0.0312,0 0,-0.0312 0.0625,0 0,-0.0312 0.0312,0 0,-0.0312 0.0312,0 0,-0.0625 0.0312,0 0,-0.0312 0.0625,0 0,-0.0312 0.0625,0 0,-0.0312 0.0312,0 0,-0.0312 0.0625,0 0,-0.0625 0.0312,0 0,-0.0312 0.0312,0 0,-0.0312 0.0312,0 0,-0.0937 0.0312,0 0,-0.0312 0.0625,0 0,-0.0312 0.0312,0 0,-0.0312 0.0312,0 0,-0.0312 0.0312,0 0,-0.0937 0.0625,0 0,-0.0312 0.0312,0 0,-0.0312 0.0312,0 0,-0.0937 0.0312,0 0,-0.0312 0.0312,0 0,-0.0937 0.0625,0 0,-0.0312 0.0312,0 0,-0.0625 0.0312,0 0,-0.0937 0.0312,0 0,-0.0312 0.0312,0 0,-0.0625 0.0625,0 0,-0.0937 0.0312,0 0,-0.0625 0.0312,0 0,-0.0937 0.0312,0 0,-0.0625 0.0625,0 0,-0.0625 0.0312,0 0,-0.0937 0.0312,0 0,-0.0625 0.0312,0 0,-0.0937 0.0625,0 0,-0.0625 0.0312,0 0,-0.125 0.0312,0 0,-0.0625 0.0312,0 0,-0.125 0.0312,0 0,-0.0937 0.0625,0 0,-0.0937 0.0312,0 0,-0.125 0.0312,0 0,-0.125 0.0312,0 0,-0.0937 0.0625,0 0,-0.125 0.0312,0 0,-0.125 0.0312,0 0,-0.0937 0.0312,0 0,-0.125 0.0312,0 0,-0.15625 0.0625,0 0,-0.15625 0.0312,0 0,-0.15625 0.0312,0 0,-0.0937 0.0312,0 0,-0.1875 0.0625,0 0,-0.15625 0.0312,0 0,-0.1875 0.0312,0 0,-0.21875 0.0312,0 0,-0.1875 0.0312,0 0,-0.21875 0.0625,0 0,-0.3125 0.0312,0 0,-0.34375 0.0312,0 0,-0.375 0.0312,0 0,-0.375 0.0625,0 0,-0.4375 0.0312,0 0,-0.40625 0.0312,0 0,-0.46875 0.0312,0 0,-0.53125 0.0625,0 0,-0.53125 0.0312,0 0,-0.65625 0.0312,0 0,-0.71875 0.0312,0 0,-1.03125 0.0312,0 0,-6.65625 -0.0312,0 0,-1 -0.0312,0 0,-0.75 -0.0312,0 0,-0.625 -0.0312,0 0,-0.5625 -0.0625,0 0,-0.5 -0.0312,0 0,-0.5 -0.0312,0 0,-0.4375 -0.0312,0 0,-0.40625 -0.0625,0 0,-0.375 -0.0312,0 0,-0.40625 -0.0312,0 0,-0.34375 -0.0312,0 0,-0.28125 -0.0625,0 0,-0.25 -0.0312,0 0,-0.1875 -0.0312,0 0,-0.1875 -0.0312,0 0,-0.1875 -0.0312,0 0,-0.15625 -0.0625,0 0,-0.15625 -0.0312,0 0,-0.15625 -0.0312,0 0,-0.15625 -0.0312,0 0,-0.15625 -0.0625,0 0,-0.0937 -0.0312,0 0,-0.125 -0.0312,0 0,-0.15625 -0.0312,0 0,-0.125 -0.0312,0 0,-0.0937 -0.0625,0 0,-0.125 -0.0312,0 0,-0.0937 -0.0312,0 0,-0.125 -0.0312,0 0,-0.0937 -0.0625,0 0,-0.0937 -0.0312,0 0,-0.0937 -0.0312,0 0,-0.0937 -0.0312,0 0,-0.0937 -0.0312,0 0,-0.0625 -0.0625,0 0,-0.125 -0.0312,0 0,-0.0625 -0.0312,0 0,-0.0937 -0.0312,0 0,-0.0625 -0.0625,0 0,-0.0937 -0.0312,0 0,-0.0625 -0.0312,0 0,-0.0937 -0.0312,0 0,-0.0625 -0.0625,0 0,-0.0312 -0.0312,0 0,-0.0937 -0.0312,0 0,-0.0625 -0.0312,0 0,-0.0312 -0.0312,0 0,-0.0937 -0.0625,0 0,-0.0312 -0.0312,0 0,-0.0937 -0.0312,0 0,-0.0312 -0.0312,0 0,-0.0312 -0.0312,0 0,-0.0625 -0.0625,0 0,-0.0625 -0.0312,0 0,-0.0625 -0.0312,0 0,-0.0312 -0.0312,0 0,-0.0625 -0.0625,0 0,-0.0312 -0.0312,0 0,-0.0312 -0.0312,0 0,-0.0312 -0.0312,0 0,-0.0625 -0.0312,0 0,-0.0312 -0.0625,0 0,-0.0312 -0.0312,0 0,-0.0312 -0.0312,0 0,-0.0312 -0.0312,0 0,-0.0625 -0.0625,0 0,-0.0312 -0.0312,0 0,-0.0312 -0.0312,0 0,-0.0312 -0.0312,0 0,-0.0312 -0.0937,0 0,-0.0625 -0.0312,0 0,-0.0312 -0.0312,0 0,-0.0312 -0.0312,0 0,-0.0312 -0.0625,0 0,-0.0625 -0.0312,0 0,-0.0312 -0.0312,0 0,-0.0312 -0.0312,0 0,-0.0312 -0.0937,0 0,-0.0625 -0.0312,0 0,-0.0312 -0.0312,0 0,-0.0312 -0.0937,0 0,-0.0312 -0.0312,0 0,-0.0312 -0.0625,0 0,-0.0625 -0.0625,0 0,-0.0312 -0.0625,0 0,-0.0312 -0.0312,0 0,-0.0312 -0.0937,0 0,-0.0625 -0.0312,0 0,-0.0312 -0.0625,0 0,-0.0312 -0.0625,0 0,-0.0312 -0.0625,0 0,-0.0312 -0.0937,0 0,-0.0625 -0.0625,0 0,-0.0312 -0.0625,0 0,-0.0312 -0.0937,0 0,-0.0312 -0.0625,0 0,-0.0625 -0.0937,0 0,-0.0312 -0.0625,0 0,-0.0312 -0.125,0 0,-0.0312 -0.0625,0 0,-0.0312 -0.125,0 0,-0.0625 -0.125,0 0,-0.0312 -0.0937,0 0,-0.0312 -0.0937,0 0,-0.0312 -0.15625,0 0,-0.0625 -0.15625,0 0,-0.0312 -0.125,0 0,-0.0312 -0.15625,0 0,-0.0312 -0.15625,0 0,-0.0625 -0.25,0 0,-0.0312 -0.21875,0 0,-0.0312 -0.34375,0 0,-0.0312 -0.34375,0 0,-0.0312 -0.46875,0 0,-0.0625 -0.5625,0 0,-0.0312 -0.625,0 0,-0.0312 -0.6875,0 0,-0.0312 -0.71875,0 0,-0.0625 -0.84375,0 0,-0.0312 -0.90625,0 0,-0.0312 -1,0 0,-0.0312 -1.15625,0 0,-0.0312 -1.3125,0 0,-0.0625 -1.65625,0 0,-0.0312 -2.09375,0 0,-0.0312 -9.75,0 z m -51.1875,5.4375 c 0.6811,2.00277 4,12.75 4,12.75 l 0,8.75 3.1875,0 0,-8.75 3.96875,-12.75 -3.34375,0 -2.21875,8.40625 -2.25,-8.40625 -3.34375,0 z m 36.1875,0.15625 10.03125,0 0,3.03125 -3.5,0 0,18.3125 -3.1875,0 0,-18.3125 -3.34375,0 0,-3.03125 z m 20.375,0 2.875,0 0,6.96875 c 0.93198,-1.14652 2.00126,-1.8125 3.0625,-1.8125 1.14881,0 1.89653,0.68259 2.28125,1.875 0.19274,0.64056 0.40625,1.64796 0.40625,3.15625 l 0,6.375 c 0,1.47273 -0.15101,2.51252 -0.34375,3.1875 -0.38472,1.184 -1.19494,1.8125 -2.34375,1.8125 -1.02567,0 -2.0984,-0.62009 -3.0625,-1.8125 l 0,1.59375 -2.875,0 0,-21.34375 z m -41.75,5.15625 c -1.4429,0 -2.53835,0.43025 -3.34375,1.53125 -0.62029,0.81304 -0.9375,2.12359 -0.9375,3.84375 l 0,5.71875 c 0,1.71021 0.28595,2.91374 0.90625,3.71875 0.80539,1.09718 2.10037,1.65625 3.375,1.65625 1.27463,0 2.59971,-0.55868 3.40625,-1.65625 0.61074,-0.80501 0.90625,-2.00854 0.90625,-3.71875 l 0,-5.71875 c 0,-1.71978 -0.35802,-3.03071 -0.96875,-3.84375 -0.80654,-1.10062 -2.06912,-1.53125 -3.34375,-1.53125 z m 56.6875,0.0312 c 1.44749,0 2.5978,0.56672 3.40625,1.65625 0.60309,0.80539 0.9375,2.07945 0.9375,3.78125 l 0,3.25 -5.71875,0 0,2.84375 c -0.01,1.47043 0.38489,2.21875 1.375,2.21875 0.71055,0 1.14768,-0.38528 1.3125,-1.15625 0.0264,-0.15718 0,-0.8424 0,-2 l 3.03125,0 0,0.4375 c 0,0.92968 -0.0678,1.58589 -0.0937,1.875 -0.0971,0.63942 -0.33681,1.23984 -0.6875,1.75 -0.79812,1.15607 -1.9616,1.71875 -3.46875,1.71875 -1.50906,0 -2.66593,-0.53699 -3.5,-1.625 -0.61265,-0.79659 -1,-1.99526 -1,-3.6875 l 0,-5.5625 c 0,-1.7018 0.3561,-3.03836 0.96875,-3.84375 0.83446,-1.08953 1.96477,-1.65625 3.4375,-1.65625 z m -50.15625,0.0625 0,12.75 c 0,1.10636 0.14718,1.86151 0.34375,2.34375 0.32353,0.79315 0.9758,1.25 1.90625,1.25 1.06085,0 2.03984,-0.68445 3.1875,-2 l 0,1.75 3.03125,0 0,-16.09375 -3.03125,0 0,12.28125 c -0.64056,0.90368 -1.17024,1.40625 -1.75,1.40625 -0.38511,0 -0.5855,-0.14669 -0.65625,-0.59375 l 0,-1.125 0,-11.96875 -3.03125,0 z m 24.40625,0.1875 3,0 0,11.78125 0,1.125 c 0.0707,0.44706 0.27114,0.59375 0.65625,0.59375 0.57976,0 1.10943,-0.50257 1.75,-1.40625 l 0,-12.09375 3.03125,0 0,15.90625 -3.03125,0 0,-1.75 c -1.14767,1.31555 -2.12664,2 -3.1875,2 -0.93044,0 -1.58272,-0.45685 -1.90625,-1.25 -0.19657,-0.48224 -0.3125,-1.23739 -0.3125,-2.34375 l 0,-12.5625 z m 15.1875,2.375 c -0.47536,0 -1.01776,0.27388 -1.5,0.75 l 0,9.65625 c 0.48263,0.48224 1.02464,0.71875 1.5,0.71875 0.83178,0 1.21875,-0.59392 1.21875,-2.1875 l 0,-6.875 c 0,-1.59357 -0.38697,-2.0625 -1.21875,-2.0625 z m 10.5625,0 c -0.96334,0 -1.375,0.41707 -1.375,1.90625 l 0,1.75 2.6875,0 0,-1.71875 c 0,-1.47273 -0.35605,-1.9375 -1.3125,-1.9375 z m -56.6875,0.0625 c 0.94001,0 1.44034,0.71931 1.28125,2.3125 l 0,6.375 c 0.15947,1.59358 -0.34086,2.40625 -1.28125,2.40625 -0.94001,0 -1.40947,-0.81305 -1.25,-2.40625 l 0,-6.375 c -0.15947,-1.59357 0.30999,-2.3125 1.25,-2.3125 z"
       id="path3017"
       inkscape:connector-curvature="0" />
    <path
       style="fill:#1a1a1a"
       d="m 1004.3552,206.59053 c -8.8808,0 -13.5938,5.97336 -13.5938,12.46875 0,3.01589 1.5857,6.77313 4.1563,7.96875 0.3913,0.18212 0.5988,0.0947 0.6875,-0.28125 0.069,-0.28679 0.4074,-1.69222 0.5625,-2.34375 0.051,-0.20798 0.045,-0.38813 -0.125,-0.59375 -0.8461,-1.02707 -1.5313,-2.92004 -1.5313,-4.6875 0,-4.53704 3.4285,-8.9375 9.2813,-8.9375 5.0575,0 8.5937,3.44837 8.5937,8.375 0,5.56708 -2.8093,9.4375 -6.4687,9.4375 -2.0206,0 -3.516,-1.6665 -3.0313,-3.71875 0.5822,-2.44426 1.6875,-5.11339 1.6875,-6.875 0,-1.58284 -0.838,-2.875 -2.5937,-2.875 -2.0641,0 -3.7188,2.13757 -3.7188,5 0,1.822 0.625,3.03125 0.625,3.03125 0,0 -2.065,8.64487 -2.4375,10.25 -0.6354,2.72412 0.093,7.11452 0.1563,7.5 0.032,0.20692 0.2764,0.29899 0.4062,0.125 0.2005,-0.26733 2.6486,-3.95931 3.3438,-6.625 0.2467,-0.96186 1.2812,-4.90625 1.2812,-4.90625 0.6744,1.27982 2.6336,2.375 4.7188,2.375 6.2051,0 10.6875,-5.72363 10.6875,-12.8125 0,-6.79906 -5.5486,-11.875 -12.6875,-11.875 z m 109.875,0.0625 c -5.2903,0 -8.75,3.56423 -8.75,8.5625 0,1.45903 0.5418,3.12997 1.2187,4.1875 -0.2814,-0.0199 -0.5754,-0.0312 -0.875,-0.0312 -4.0219,0 -6.5312,2.19938 -6.5312,5.375 0,2.97953 2.3526,4.13486 4.5625,4.90625 1.9642,0.684 3.75,0.99779 3.75,2.53125 0,1.03418 -0.9915,1.65625 -2.9375,1.65625 -2.3121,0 -3.5856,-1.08768 -3.9063,-1.5 0.2173,-0.17222 0.5625,-0.59835 0.5625,-1.28125 0,-0.95402 -0.6918,-1.71875 -1.9375,-1.71875 -1.0551,0 -1.9318,0.83852 -2.1562,1.96875 -1.6904,1.38438 -3.5397,2.28125 -6.1563,2.28125 -2.5841,0 -3.9375,-1.33435 -3.9375,-4.1875 0.6059,0.1833 2.2096,0.40625 3.25,0.40625 4.3673,0 7.3438,-1.99277 7.3438,-5.96875 0,-2.13634 -1.8823,-4.375 -5.5938,-4.375 l -0.031,0 c -4.8814,0 -7.585,3.09906 -8.7813,6.5 -0.3344,-0.0818 -0.6939,-0.17475 -1.0312,-0.25 0.2691,-0.75313 0.4687,-1.62834 0.4687,-2.59375 0,-1.68274 -1.0287,-3.65625 -3.8125,-3.65625 -1.9391,0 -3.7881,1.28372 -5.0625,3.1875 0.316,-1.24149 0.5149,-2.07158 0.5313,-2.125 0.08,-0.3255 -0.058,-0.6875 -0.5625,-0.6875 l -2.8438,0 c -0.4043,0 -0.695,0.12671 -0.8125,0.59375 -0.076,0.30674 -1.0418,4.15533 -2,7.90625 -0.5986,2.33843 -3.7395,5.25 -7.6562,5.25 -2.5811,0 -3.9063,-1.42555 -3.9063,-4.28125 0.6744,0.26624 2.1825,0.5 3.2188,0.5 4.5459,0 7.3437,-1.99277 7.3437,-5.96875 0,-2.13634 -1.8845,-4.375 -5.5937,-4.375 -5.4948,0 -8.8642,4.28451 -9.4375,9.125 -0.2375,2.01231 -1.94,4.78125 -3.7813,4.78125 -0.8967,0 -1.375,-0.5735 -1.375,-1.53125 0,-0.82544 0.5801,-2.84026 1.2188,-5.375 0.2134,-0.84488 0.5155,-2.12951 0.875,-3.5625 l 3,0 c 0.4417,0 0.7118,-0.17896 0.8125,-0.59375 0.1437,-0.60045 0.394,-1.65308 0.4687,-1.9375 0.099,-0.3736 -0.1152,-0.65625 -0.5312,-0.65625 l -2.9375,0 c 0,0 1.3426,-5.42376 1.375,-5.5625 0.1321,-0.54932 -0.3331,-0.85172 -0.8125,-0.75 0,0 -2.2644,0.44186 -2.6875,0.53125 -0.4214,0.0833 -0.7507,0.32583 -0.9063,0.9375 -0.019,0.0757 -1.1875,4.84375 -1.1875,4.84375 l -2.375,0 c -0.4472,0 -0.7134,0.17838 -0.8125,0.59375 -0.1457,0.5975 -0.3952,1.6531 -0.4687,1.9375 -0.097,0.37371 0.1159,0.65625 0.5312,0.65625 l 2.3125,0 c -0.016,0.0687 -0.8372,3.17796 -1.5,5.96875 -0.3108,1.34432 -1.3509,4.46875 -3.0625,4.46875 -1.0211,0 -1.4375,-0.5192 -1.4375,-1.625 0,-1.74142 1.6875,-6.08596 1.6875,-8.0625 0,-2.64231 -1.4076,-4.1875 -4.3125,-4.1875 -1.8326,0 -3.7256,1.18117 -4.5312,2.21875 0,0 0.2569,-0.82726 0.3437,-1.15625 0.087,-0.34553 -0.1114,-0.6875 -0.5625,-0.6875 l -2.8437,0 c -0.6069,0 -0.7561,0.33316 -0.8438,0.6875 -0.037,0.14391 -1.0818,4.14345 -2.0625,8 -0.6745,2.64166 -2.2867,4.84375 -4.0312,4.84375 -0.9002,0 -1.3125,-0.54117 -1.3125,-1.5 0,-0.82553 0.5475,-2.87151 1.1875,-5.40625 0.7749,-3.07931 1.4566,-5.60713 1.5312,-5.90625 0.095,-0.38012 -0.075,-0.71875 -0.5625,-0.71875 l -2.875,0 c -0.5164,0 -0.7056,0.27791 -0.8125,0.65625 0,0 -0.8049,3.01548 -1.6562,6.40625 -0.6164,2.45942 -1.2813,4.98162 -1.2813,6.15625 0,2.10233 0.9366,3.6875 3.5313,3.6875 1.9988,0 3.5732,-1.01883 4.7812,-2.3125 -0.1769,0.70148 -0.2995,1.14445 -0.3125,1.1875 -0.1034,0.40193 0.027,0.75 0.5,0.75 l 2.9375,0 c 0.5082,0 0.7062,-0.21196 0.8125,-0.65625 0.1011,-0.4219 2.2813,-9 2.2813,-9 0.5785,-2.30791 1.9889,-3.84375 4,-3.84375 0.9509,0 1.7851,0.65278 1.6875,1.875 -0.1063,1.35013 -1.7188,6.18792 -1.7188,8.3125 0,1.60749 0.5985,3.6875 3.625,3.6875 2.0664,0 3.5851,-1.00581 4.6875,-2.28125 0.403,1.35596 1.4722,2.28125 3.4375,2.28125 3.267,0 5.2205,-1.96157 6.375,-3.90625 0.963,2.26072 3.2328,3.90625 6.5313,3.90625 3.3609,0 5.9379,-1.41727 7.7812,-3.34375 -0.3314,1.29839 -0.5426,2.17663 -0.5625,2.25 -0.1056,0.40472 0.085,0.71875 0.5625,0.71875 l 2.875,0 c 0.3938,0 0.6796,-0.20599 0.7813,-0.625 0.05,-0.20216 0.4703,-1.79837 1.0625,-4.09375 1.1287,-4.39093 2.931,-8.96875 5.6562,-8.96875 0.9623,0 1.375,0.55722 1.375,1.40625 0,0.3978 -0.1159,0.71704 -0.2187,0.90625 -1.3207,-0.26379 -2.375,0.39997 -2.375,1.8125 0,0.92014 0.9451,1.75 2.25,1.75 0.9983,0 1.8427,-0.24319 2.5,-0.6875 0.6134,0.12751 1.273,0.28523 1.9375,0.4375 -0.1009,0.66031 -0.1563,1.29396 -0.1563,1.90625 0,3.52712 2.6457,6.53125 7.1563,6.53125 3.5377,0 5.8116,-1.2033 7.9375,-2.96875 1.0076,1.64757 3.5395,3 6.875,3 4.5689,0 7.1562,-2.39134 7.1562,-5.53125 0,-2.8449 -2.3104,-3.8799 -4.7187,-4.75 -1.9567,-0.70622 -3.5938,-1.11673 -3.5938,-2.5 0,-1.13623 0.8776,-1.625 2.4063,-1.625 0.9924,0 1.7543,0.20089 2.1562,0.3125 0.3948,0.98946 1.2006,2.09375 2.5938,2.09375 1.1792,0 1.7187,-0.95232 1.7187,-1.8125 0,-2.44665 -4.0937,-2.68989 -4.0937,-7.9375 0,-3.26025 1.8626,-5.96875 5.6875,-5.96875 2.6558,0 4.375,1.68991 4.375,4.40625 0,2.24146 -1.3438,6.25 -1.3438,6.25 l -2.3125,0 c -0.443,0 -0.7114,0.17838 -0.8125,0.59375 -0.1457,0.59751 -0.4236,1.65309 -0.5,1.9375 -0.095,0.3737 0.143,0.65625 0.5625,0.65625 l 2.25,0 c 0,0 -2.3437,8.59268 -2.3437,10.15625 0,2.10234 1.1902,3.6875 3.7812,3.6875 3.67,0 5.9712,-2.37594 6.9688,-5.84375 0.075,-0.26902 -0.071,-0.5 -0.3438,-0.5 l -1.4062,0 c -0.2792,0 -0.4311,0.16543 -0.5,0.4375 -0.3164,1.23092 -1.114,2.53125 -2.6563,2.53125 -0.8967,0 -1.4062,-0.57349 -1.4062,-1.53125 0,-0.82544 0.5454,-2.75736 1.2187,-5.375 0.3195,-1.24503 0.9063,-3.5625 0.9063,-3.5625 l 3.25,0 c 0.4465,0 0.7151,-0.17896 0.8125,-0.59375 0.1459,-0.60045 0.3934,-1.65307 0.4687,-1.9375 0.096,-0.3736 -0.1187,-0.65625 -0.5312,-0.65625 l -3.2188,0 c 0.231,-0.91875 1.1563,-3.92769 1.1563,-5.875 0,-3.88837 -3.3112,-7.1875 -8,-7.1875 z m -92,5.9375 c -1.4543,0 -2.7066,1.24119 -2.8125,2.75 -0.1041,1.51119 1.0121,2.71875 2.4687,2.71875 1.4577,0 2.7097,-1.20756 2.8125,-2.71875 0.1018,-1.50881 -1.0082,-2.75 -2.4687,-2.75 z m 38.625,10.15625 c 1.4201,0 1.9062,0.8474 1.9062,1.875 0,1.7409 -1.3264,2.8125 -3.4375,2.8125 -0.7561,0 -1.8111,-0.1677 -2.4375,-0.375 0.2621,-1.59998 1.2754,-4.3125 3.9688,-4.3125 z m 30.5,0 c 1.2986,0 1.9375,0.8474 1.9375,1.875 0,1.7409 -1.3596,2.8125 -3.4688,2.8125 -0.7597,0 -1.8152,-0.1677 -2.4375,-0.375 0.2604,-1.59998 1.4106,-4.3125 3.9688,-4.3125 z"
       id="path22-2"
       inkscape:connector-curvature="0" />
    <path
       style="fill:#1a1a1a;fill-opacity:1"
       d="m 806.08372,225.58077 c -10.94598,0 -19.81798,8.87204 -19.81798,19.81798 0,14.73651 15.84807,30.93483 19.81798,30.93483 3.96992,0 19.81798,-16.19797 19.81798,-30.93483 0,-10.94594 -8.87204,-19.81798 -19.81798,-19.81798 z m 0,7.86056 c 6.64134,0 12.02556,5.38424 12.02556,12.02558 3e-5,6.64134 -5.38419,12.02558 -12.02556,12.02558 -6.64133,0 -12.0256,-5.38424 -12.0256,-12.02558 0,-2.63267 0.85233,-5.06226 2.28701,-7.04269 0.1539,2.54333 2.25726,4.55882 4.839,4.55882 2.68255,0 4.86173,-2.17951 4.86173,-4.86173 0,-1.91587 -1.11428,-3.56393 -2.72619,-4.35435 0.88883,-0.20974 1.81138,-0.32563 2.76405,-0.32563 z"
       id="path3884"
       inkscape:connector-curvature="0" />
    <path
       style="fill:#1a1a1a;fill-opacity:1;fill-rule:nonzero;stroke:none"
       d="m 1094.0516,254.86645 c -1.3575,0 -2.4597,1.07058 -2.4597,2.39447 l 0,28.67815 c 0,1.32438 1.1022,2.39451 2.4597,2.39451 l 28.3428,0 c 1.3575,0 2.4597,-1.07013 2.4597,-2.39451 l 0,-28.67815 c 0,-1.32389 -1.1022,-2.39447 -2.4597,-2.39447 l -28.3428,0 z m 5.1431,5.61821 c 1.7187,0 2.7718,1.12565 2.8044,2.6088 0,1.45051 -1.0897,2.6088 -2.8417,2.6088 l -0.028,0 c -1.686,0 -2.7765,-1.15829 -2.7765,-2.6088 0,-1.48315 1.1232,-2.6088 2.8417,-2.6088 z m -82.289,0.0185 c -1.7187,0 -2.8417,1.12612 -2.8417,2.6088 0,1.45142 1.0905,2.6088 2.7765,2.6088 l 0.037,0 c 1.7519,0 2.8417,-1.15738 2.8417,-2.6088 -0.033,-1.48268 -1.0952,-2.6088 -2.8138,-2.6088 z m -18.4293,0.45656 0,21.94185 13.8826,0 0,-4.55608 -8.8607,0 0,-17.38577 -5.0219,0 z m 40.6414,0 0,21.94185 5.0219,0 0,-4.90082 1.2578,-1.58391 3.9319,6.48473 6.1866,0 -6.6152,-9.38236 5.7859,-6.38225 -6.0468,0 c 0,0 -4.1366,5.70508 -4.5002,6.38225 l 0,-12.55949 -5.0219,0 z m 42.393,0 0,7.59346 -0.065,0 c -0.7272,-1.06314 -2.2424,-1.77027 -4.2579,-1.77027 -3.8673,0 -7.2721,3.08891 -7.2394,8.37613 0,4.90119 3.0701,8.09657 6.904,8.09657 2.0822,0 4.0677,-0.90483 5.0592,-2.64606 l 0.1025,0 0.1957,2.29202 4.4629,0 c -0.066,-1.06407 -0.1398,-2.89995 -0.1398,-4.70515 l 0,-17.2367 -5.0219,0 z m -19.6033,5.78592 c -5.5859,0 -8.1618,4.41607 -8.1618,8.4227 0,4.95579 3.1412,8.05933 8.6277,8.05933 2.1815,0 4.1983,-0.32906 5.8511,-1.00625 l -0.6615,-3.31689 c -1.3549,0.44952 -2.7444,0.68013 -4.4629,0.68013 -2.3467,0 -4.3999,-0.96576 -4.5654,-3.01874 l 10.4166,0.028 c 0.066,-0.38821 0.1583,-1.13345 0.1583,-1.97523 0,-3.90738 -1.9803,-7.87298 -7.2021,-7.87298 z m 52.1014,0.67085 c 3.3054,0 5.7767,2.15883 5.7767,6.80149 l 0,8.66495 -5.022,0 0,-8.08728 c 0,-2.03195 -0.7256,-3.41936 -2.5436,-3.41936 -1.3878,0 -2.2176,0.94219 -2.5808,1.84477 -0.1327,0.32293 -0.1584,0.76881 -0.1584,1.22055 l 0,8.44132 -5.0312,0 c 0,0 0.066,-13.69408 0,-15.1124 l 5.0312,0 0,2.13364 c 0.6678,-1.02987 1.8642,-2.48768 4.5281,-2.48768 z m -4.5281,2.48768 c -0.012,0.0179 -0.026,0.0383 -0.037,0.0559 l 0.037,0 0,-0.0559 z m -78.208,-2.46906 c -2.6642,0 -3.8604,1.45781 -4.5281,2.4877 l 0,0.0559 -0.037,0 c 0.011,-0.0177 0.026,-0.0382 0.037,-0.0559 l 0,-2.13364 -5.022,0 c 0.066,1.41832 0,15.1124 0,15.1124 l 5.022,0 0,-8.44134 c 0,-0.45172 0.035,-0.9069 0.1676,-1.22986 0.363,-0.90214 1.1836,-1.83546 2.5715,-1.83546 1.8182,0 2.553,1.38877 2.553,3.41938 l 0,8.08728 5.0219,0 0,-8.66495 c 0,-4.64268 -2.4805,-6.80151 -5.7859,-6.80151 z m 65.3783,0.33542 5.0219,0 0,15.1124 -5.0219,0 0,-15.1124 z m -82.2889,0.0185 0,15.1124 5.0219,0 0,-15.1124 -5.0219,0 z m 47.2844,2.21748 c 2.28,0 2.8045,2.03515 2.8045,3.1958 l -5.9444,0 c 0.1322,-1.28994 0.9916,-3.1958 3.1399,-3.1958 z m 16.864,0.54974 c 1.5533,0 2.6373,1.06349 2.9349,2.38519 0.066,0.29072 0.065,0.61392 0.065,0.90374 l 0,2.05911 c 0,0.38643 -0.027,0.77739 -0.093,1.09941 -0.297,1.38654 -1.4904,2.34793 -2.9443,2.34793 -2.0823,0 -3.438,-1.67003 -3.438,-4.31386 0,-2.48235 1.1621,-4.48152 3.4753,-4.48152 z"
       id="path14"
       inkscape:connector-curvature="0" />
    <path
       style="fill:#1a1a1a"
       inkscape:connector-curvature="0"
       d="m 890.95819,253.12242 c -1.1898,0.27594 -2.33658,0.3942 -3.37229,0.3942 -5.82356,0 -10.31037,-4.06573 -10.31037,-11.13821 0,-3.46618 1.34031,-5.26879 3.2361,-5.26879 1.80262,0 3.00675,1.61698 3.00675,4.89931 0,1.86604 -0.50173,3.91092 -0.87084,5.12078 0,0 1.79542,3.13075 6.70156,2.16995 1.04285,-2.3133 1.60909,-5.30929 1.60909,-7.93759 0,-7.07212 -3.60522,-11.18624 -10.21361,-11.18624 -6.79476,0 -10.77017,5.22364 -10.77017,12.11084 0,6.82269 3.19058,12.67778 8.4479,15.34766 -2.21116,4.42231 -5.02437,8.3214 -7.95908,11.25647 -5.32542,-6.43637 -10.13909,-15.02297 -12.11441,-31.78118 h -7.85554 c 3.62961,27.91076 14.44528,36.7941 17.30508,38.49995 1.61843,0.97477 3.01034,0.9246 4.48971,0.0932 2.32116,-1.31882 9.29509,-8.28916 13.15835,-16.45647 1.62342,-0.004 3.57296,-0.18993 5.51177,-0.62715 v -5.49743 z"
       id="path4026" />
    <path
       style="fill:#1a1a1a"
       inkscape:connector-curvature="0"
       id="path4115"
       d="m 596.2614,227.49284 c -12.783,0 -19.56844,8.57683 -19.56844,17.92628 0,4.34107 2.31054,9.74949 6.01063,11.47046 0.56321,0.26213 0.86086,0.14711 0.98853,-0.39407 0.0991,-0.4128 0.6006,-2.42127 0.82379,-3.35908 0.0736,-0.29936 0.0372,-0.55651 -0.20715,-0.85248 -1.21783,-1.47837 -2.19894,-4.21177 -2.19894,-6.75585 0,-6.5306 4.94577,-12.84997 13.37025,-12.84997 7.27987,0 12.37051,4.95511 12.37051,12.0465 0,8.01324 -4.04011,13.56217 -9.3074,13.56217 -2.90846,0 -5.08534,-2.40021 -4.3878,-5.35421 0.83812,-3.51828 2.45438,-7.32131 2.45438,-9.85696 0,-2.27834 -1.22134,-4.17471 -3.7485,-4.17471 -2.97099,0 -5.36013,3.07526 -5.36013,7.19544 0,2.62258 0.88803,4.39434 0.88803,4.39434 0,0 -2.93388,12.4135 -3.46999,14.72392 -0.91469,3.9211 0.11964,10.27412 0.21092,10.82898 0.0464,0.29784 0.37728,0.39847 0.5642,0.14803 0.28849,-0.38479 3.82671,-5.69099 4.82739,-9.52797 0.35516,-1.38451 1.8403,-7.0406 1.8403,-7.0406 0.97077,1.84216 3.78713,3.39988 6.78856,3.39988 8.93167,0 15.37099,-8.21792 15.37099,-18.42164 0,-9.78655 -7.98427,-17.10817 -18.25995,-17.10817" />
    <path
       id="path4157"
       d="m 714.63917,225.22959 c -2.07299,0 -3.75599,1.63477 -3.75599,3.65639 l 0,43.79121 c 0,2.02231 1.683,3.65639 3.75599,3.65639 l 43.27904,0 c 2.0729,0 3.75597,-1.63408 3.75597,-3.65639 l 0,-43.79121 c 0,-2.02162 -1.68307,-3.65639 -3.75597,-3.65639 l -43.27904,0 z m 7.8534,8.57899 c 2.62445,0 4.23251,1.71883 4.28235,3.9836 0,2.2149 -1.66405,3.98361 -4.33927,3.98361 l -0.0426,0 c -2.57448,0 -4.23968,-1.76871 -4.23968,-3.98361 0,-2.26477 1.71507,-3.9836 4.33927,-3.9836 z m 22.62118,10.585 c 5.04729,0 8.82086,3.29651 8.82086,10.38584 l 0,13.23127 -7.66846,0 0,-12.34919 c 0,-3.10277 -1.10805,-5.22136 -3.88402,-5.22136 -2.11928,0 -3.38633,1.43872 -3.94093,2.81697 -0.20257,0.49312 -0.24185,1.17395 -0.24185,1.86376 l 0,12.88982 -7.68266,0 c 0,0 0.10068,-20.91074 0,-23.07647 l 7.68266,0 0,3.25801 c 1.01978,-1.5726 2.84661,-3.79865 6.9144,-3.79865 z m -6.9144,3.79865 c -0.0179,0.0274 -0.0396,0.0584 -0.0569,0.0854 l 0.0569,0 0,-0.0854 z m -19.5908,-3.25801 7.66842,0 0,23.07647 -7.66842,0 0,-23.07647 z"
       style="fill:#1a1a1a;fill-opacity:1;fill-rule:nonzero;stroke:none"
       inkscape:connector-curvature="0" />
    <path
       style="fill:#1a1a1a;fill-opacity:1;stroke:none"
       d="m 662.70236,229.16731 c -13.02558,0 -23.58923,10.56366 -23.58923,23.58923 0,9.68427 5.84248,17.99476 14.19011,21.6265 -0.12997,-1.80902 -0.15295,-3.95918 0.23163,-5.60777 0.45275,-1.95117 2.92579,-12.43463 2.92579,-12.43463 0,0 -0.75583,-1.5034 -0.75583,-3.7182 0,-3.47953 2.02596,-6.07102 4.53498,-6.07102 2.13421,0 3.15742,1.59907 3.15742,3.52314 0,2.1414 -1.36464,5.35511 -2.07244,8.32633 -0.58908,2.49468 1.24979,4.52279 3.70601,4.52279 4.44828,0 7.86308,-4.6921 7.86308,-11.45937 0,-5.98874 -4.29961,-10.16713 -10.44753,-10.16713 -7.11456,0 -11.2887,5.33467 -11.2887,10.84982 0,2.1485 0.82454,4.4568 1.85301,5.7053 0.20638,0.24995 0.24503,0.46645 0.18286,0.71926 -0.18849,0.79199 -0.61121,2.49185 -0.69488,2.84046 -0.10782,0.45703 -0.36552,0.55053 -0.84116,0.32915 -3.12476,-1.45338 -5.07138,-6.01343 -5.07138,-9.6795 0,-7.89572 5.72319,-15.14099 16.51855,-15.14099 8.67791,0 15.42138,6.18127 15.42138,14.44611 0,8.61713 -5.44033,15.55548 -12.98322,15.55548 -2.53473,0 -4.90985,-1.32131 -5.72968,-2.87704 0,0 -1.24829,4.77989 -1.54823,5.94912 -0.44259,1.69704 -1.47331,3.72496 -2.3894,5.32739 2.16239,0.65333 4.45132,1.01184 6.82686,1.01184 13.02557,0 23.58922,-10.55147 23.58922,-23.57704 0,-13.02557 -10.56365,-23.58923 -23.58922,-23.58923 z"
       id="path4173"
       inkscape:connector-curvature="0" />
    <path
       style="fill:#1a1a1a"
       d="m 479.63059,129.45369 c -1.54845,0 -2.80222,1.25377 -2.80222,2.80222 l 0,45.18656 c 0,1.54805 1.25357,2.80222 2.80222,2.80222 l 24.32696,0 0,-19.6648 -6.62063,0 0,-7.66761 6.62063,0 0,-5.65372 c 0,-6.56017 4.00785,-10.1311 9.86012,-10.1311 2.80325,0 5.21038,0.20837 5.91237,0.30178 l 0,6.85466 -4.0586,0 c -3.18244,0 -3.79993,1.51288 -3.79993,3.73219 l 0,4.89619 7.59371,0 -0.99156,7.66761 -6.60215,0 0,19.6648 12.94564,0 c 1.54786,0 2.80222,-1.25397 2.80222,-2.80222 l 0,-45.18656 c 0,-1.54845 -1.25417,-2.80222 -2.80222,-2.80222 l -45.18656,0 z"
       id="Blue_1_"
       inkscape:connector-curvature="0" />
    <path
       style="fill:#1a1a1a"
       inkscape:connector-curvature="0"
       id="path22"
       d="m 676.62081,143.85568 c -1.86779,0.8289 -3.87641,1.38913 -5.98386,1.64152 2.15092,-1.29014 3.80247,-3.33205 4.5805,-5.76463 -2.01306,1.19454 -4.24238,2.061 -6.61698,2.52804 -1.89974,-2.02459 -4.60799,-3.2901 -7.60493,-3.2901 -5.75498,0 -10.41945,4.66485 -10.41945,10.41945 0,0.81697 0.0913,1.61246 0.26967,2.37459 -8.66015,-0.43397 -16.33791,-4.58347 -21.47722,-10.88686 -0.89697,1.53823 -1.41075,3.32788 -1.41075,5.23778 0,3.6155 1.83878,6.80424 4.63549,8.67351 -1.708,-0.0534 -3.31492,-0.52232 -4.71983,-1.30332 -0.002,0.0439 -0.002,0.0872 -0.002,0.13078 0,5.0494 3.59216,9.25983 8.35844,10.2177 -0.87359,0.23817 -1.79389,0.36412 -2.74429,0.36412 -0.6721,0 -1.32377,-0.0636 -1.96109,-0.18578 1.32685,4.13947 5.17425,7.15239 9.73468,7.23673 -3.56906,2.79519 -8.06121,4.46012 -12.94341,4.46012 -0.84048,0 -1.67053,-0.0495 -2.48635,-0.14528 4.6132,2.95637 10.08951,4.68082 15.97453,4.68082 19.16542,0 29.64469,-15.87682 29.64469,-29.64729 0,-0.45155 -0.0104,-0.90002 -0.0293,-1.34688 2.03499,-1.47027 3.80135,-3.30496 5.19914,-5.39494" />
    <path
       inkscape:connector-curvature="0"
       style="fill:#1a1a1a"
       d="m 824.95956,180.24478 c -0.14394,0 -0.28132,-0.005 -0.38577,-0.0102 -0.0829,0.007 -0.16851,0.0102 -0.25423,0.0102 -3.0243,0 -5.04644,-1.42973 -6.83092,-2.69218 -1.27904,-0.90351 -2.48529,-1.75647 -3.89843,-1.99154 -0.69406,-0.11511 -1.38443,-0.17348 -2.0515,-0.17348 -1.20195,0 -2.15185,0.18642 -2.84532,0.32202 -0.42677,0.0832 -0.79474,0.15474 -1.07917,0.15474 -0.29786,0 -0.65978,-0.066 -0.81062,-0.58109 -0.11956,-0.40625 -0.20529,-0.79985 -0.28803,-1.17888 -0.20705,-0.94717 -0.35722,-1.52529 -0.71186,-1.58015 -3.79313,-0.58527 -6.03433,-1.44739 -6.48075,-2.49149 -0.0468,-0.10971 -0.0729,-0.22011 -0.0788,-0.32929 -0.0174,-0.31123 0.2023,-0.58419 0.5091,-0.635 3.01233,-0.49603 5.69073,-2.08819 7.96132,-4.73373 1.75887,-2.04815 2.62262,-4.00505 2.71533,-4.22112 0.004,-0.01 0.009,-0.0199 0.0137,-0.0292 0.43766,-0.888 0.52473,-1.65536 0.25961,-2.28012 -0.48877,-1.1526 -2.10747,-1.66615 -3.1784,-2.00596 -0.26633,-0.0842 -0.51825,-0.16405 -0.71895,-0.2437 -0.94935,-0.37499 -2.51063,-1.1673 -2.30263,-2.26086 0.15151,-0.79742 1.20623,-1.35276 2.05866,-1.35276 0.2367,0 0.44643,0.0415 0.623,0.12441 0.96323,0.45128 1.82978,0.68003 2.57506,0.68003 0.9268,0 1.37444,-0.35289 1.4827,-0.45317 -0.0267,-0.49442 -0.0593,-1.01714 -0.0909,-1.51155 0,-5.6e-4 -0.002,-0.007 -0.002,-0.007 -0.21754,-3.46076 -0.48886,-7.76761 0.61277,-10.23739 3.29727,-7.39289 10.28984,-7.96777 12.35375,-7.96777 0.055,0 0.89962,-0.008 0.89962,-0.008 0.0381,-6.8e-4 0.0795,-8.3e-4 0.12238,-8.3e-4 2.06957,0 9.0767,0.57556 12.37598,7.97289 1.10164,2.4714 0.83003,6.78188 0.6118,10.24629 l -0.0105,0.16579 c -0.0299,0.47043 -0.0576,0.91564 -0.0809,1.34724 0.10191,0.0938 0.51156,0.41731 1.34494,0.45006 0.7105,-0.0272 1.52691,-0.25488 2.42597,-0.67583 0.27795,-0.13049 0.58568,-0.15757 0.7946,-0.15757 0.31584,0 0.63716,0.0615 0.90501,0.1732 l 0.0144,0.006 c 0.76292,0.27081 1.26257,0.81199 1.27336,1.38054 0.009,0.53 -0.38428,1.32217 -2.32151,2.08724 -0.19843,0.0786 -0.45155,0.15892 -0.71897,0.24371 -1.07185,0.34021 -2.68921,0.85349 -3.17796,2.00542 -0.26556,0.62476 -0.17819,1.39185 0.25961,2.27958 0.005,0.01 0.009,0.0195 0.0136,0.0298 0.1348,0.31595 3.3974,7.75521 10.6767,8.95444 0.30664,0.0511 0.52677,0.32431 0.50923,0.635 -0.007,0.11161 -0.0335,0.22322 -0.0806,0.33226 -0.44332,1.0383 -2.68435,1.89921 -6.47858,2.48528 -0.35613,0.055 -0.50614,0.63056 -0.71129,1.57274 -0.0849,0.38915 -0.17133,0.77061 -0.28927,1.17148 -0.11041,0.377 -0.35599,0.56127 -0.7504,0.56127 h -0.0594 c -0.25679,0 -0.62058,-0.0467 -1.07943,-0.13641 -0.80198,-0.15609 -1.70147,-0.3014 -2.84529,-0.3014 -0.66694,0 -1.35722,0.0585 -2.05206,0.17348 -1.4117,0.23508 -2.6178,1.08669 -3.89452,1.98925 -1.788,1.2642 -3.81081,2.69407 -6.83485,2.69407"
       id="path5" />
    <path
       style="fill:#1a1a1a"
       d="m 974.2196,130.59053 c -0.8758,0 -1.5625,0.71871 -1.5625,1.59375 l 0,46.46875 c 0,0.87665 0.6867,1.59375 1.5625,1.59375 l 47.625,0 c 0.8759,0 1.5938,-0.7175 1.5938,-1.59375 l 0,-46.46875 c 0,-0.87545 -0.7183,-1.59375 -1.5938,-1.59375 l -47.625,0 z m 17.71875,14.1875 c 2.7573,0 5.26595,1.06074 7.15625,2.78125 -2.2267,2.10281 -2.15595,2.21853 -3.03125,3.09375 -1.0933,-0.90419 -2.2793,-1.5625 -4.125,-1.5625 -3.4909,0 -6.21875,2.82165 -6.21875,6.3125 0,3.49086 2.72785,6.34375 6.21875,6.34375 3.4495,0 4.8487,-1.48703 5.75,-4.21875 -1.6644,0 -5.75,0 -5.75,0 l 0,-4.21875 10.21875,0 c 0.7117,5.09875 -1.4353,12.75 -10.21875,12.75 -5.8763,0 -10.65625,-4.78004 -10.65625,-10.65625 0,-5.87631 4.77995,-10.625 10.65625,-10.625 z m 16.53125,5.0625 2.625,0 0,3.6875 3.6875,0 0,2.625 -3.6875,0 0,3.78125 -2.625,0 0,-3.78125 -3.7812,0 0,-2.625 3.7812,0 0,-3.6875 z"
       id="path3805"
       inkscape:connector-curvature="0" />
    <path
       style="fill:#1a1a1a"
       d="m 582.94903,129.45369 c -6.89382,0 -11.61497,4.20646 -11.61497,11.93418 l 0,6.65993 -7.79893,0 0,9.03225 7.79893,0 0,23.16464 9.32245,0 0,-23.16464 7.77716,0 1.16803,-9.03225 -8.94519,0 0,-5.76758 c 0,-2.61429 0.72739,-4.39642 4.47622,-4.39642 l 4.78093,0 0,-8.07462 c -0.82694,-0.11004 -3.66247,-0.35549 -6.96463,-0.35549 z"
       id="path4180"
       inkscape:connector-curvature="0" />
    <path
       style="fill:#1a1a1a;fill-opacity:1;stroke:none"
       d="m 896.90529,129.4537 c -6.06902,0 -10.95492,4.8859 -10.95492,10.95492 l 0,28.88115 c 0,6.06902 4.8859,10.95492 10.95492,10.95492 l 28.88116,0 c 6.06902,0 10.95492,-4.8859 10.95492,-10.95492 l 0,-28.88115 c 0,-6.06902 -4.8859,-10.95492 -10.95492,-10.95492 l -28.88116,0 z m 14.65843,11.52289 c 0.0222,-3.9e-4 0.0451,0 0.07,0 1.20369,0 5.27805,0.33474 7.19696,4.63717 0.64074,1.43741 0.48482,3.94489 0.3579,5.95985 l -0.008,0.10115 c -0.0174,0.2736 -0.0331,0.52702 -0.0467,0.77805 0.0593,0.0546 0.30111,0.24549 0.78584,0.26453 0.41322,-0.0158 0.88538,-0.15197 1.40828,-0.39681 0.16166,-0.0759 0.34528,-0.0855 0.46683,-0.0855 0.18364,0 0.3655,0.0362 0.52128,0.10115 l 0.008,0 c 0.44375,0.15749 0.73286,0.47071 0.73913,0.80139 0.005,0.30825 -0.21929,0.76877 -1.34603,1.21375 -0.1154,0.0457 -0.26461,0.0907 -0.42012,0.14005 -0.62344,0.19787 -1.55973,0.49709 -1.84399,1.16707 -0.15444,0.36337 -0.10678,0.81414 0.14781,1.33046 0.003,0.005 0.005,0.01 0.008,0.0155 0.0784,0.18376 1.97505,4.50764 6.20882,5.20514 0.17835,0.0297 0.30584,0.19276 0.29566,0.37346 -0.004,0.0649 -0.0192,0.1311 -0.0467,0.19451 -0.25784,0.6039 -1.55898,1.09853 -3.76575,1.4394 -0.20715,0.032 -0.29302,0.3701 -0.41236,0.91809 -0.0494,0.22634 -0.1026,0.45154 -0.17119,0.68468 -0.0642,0.21928 -0.2063,0.32679 -0.4357,0.32679 l -0.0312,0 c -0.14931,0 -0.36336,-0.0334 -0.63021,-0.0856 -0.46648,-0.0908 -0.99195,-0.17117 -1.65723,-0.17117 -0.3879,0 -0.78629,0.0343 -1.19043,0.10115 -0.82107,0.13673 -1.52154,0.63435 -2.2641,1.1593 -1.03993,0.73527 -2.21701,1.56387 -3.97585,1.56387 -0.0837,0 -0.16489,-0.004 -0.22561,-0.008 -0.0482,0.004 -0.098,0.008 -0.14784,0.008 -1.759,0 -2.93794,-0.82961 -3.97585,-1.56387 -0.74391,-0.52551 -1.44219,-1.02257 -2.2641,-1.1593 -0.40367,-0.067 -0.80243,-0.10115 -1.19043,-0.10115 -0.69907,0 -1.25389,0.10787 -1.65723,0.18674 -0.24823,0.0484 -0.46477,0.0856 -0.63021,0.0856 -0.17324,0 -0.37914,-0.035 -0.46683,-0.33456 -0.0696,-0.23628 -0.12304,-0.46423 -0.17119,-0.68468 -0.12041,-0.5509 -0.20608,-0.88618 -0.41235,-0.91809 -2.20617,-0.34041 -3.50611,-0.83991 -3.76576,-1.44718 -0.0272,-0.0638 -0.0433,-0.131 -0.0467,-0.19451 -0.0102,-0.18102 0.11722,-0.34391 0.29565,-0.37346 1.75202,-0.28851 3.30877,-1.20781 4.62941,-2.74652 1.02296,-1.19123 1.5255,-2.33296 1.57942,-2.45862 0.003,-0.005 0.005,-0.0102 0.008,-0.0155 0.25454,-0.51648 0.302,-0.96709 0.14781,-1.33046 -0.28428,-0.67038 -1.2211,-0.96943 -1.84398,-1.16707 -0.15492,-0.049 -0.30344,-0.0937 -0.42012,-0.14005 -0.55216,-0.2181 -1.4592,-0.67887 -1.33825,-1.3149 0.0882,-0.4638 0.70239,-0.78583 1.19817,-0.78583 0.13766,0 0.25522,0.0218 0.35792,0.07 0.56023,0.26247 1.06816,0.39681 1.50163,0.39681 0.53906,0 0.8007,-0.20621 0.86365,-0.26454 -0.0154,-0.28756 -0.0362,-0.59163 -0.0545,-0.87919 0,-3.3e-4 -0.008,0 -0.008,0 -0.12653,-2.01284 -0.28284,-4.51561 0.35787,-5.95207 1.91778,-4.29984 5.98876,-4.63717 7.18917,-4.63717 0.0321,0 0.5213,-0.008 0.5213,-0.008 z"
       id="rect4197"
       inkscape:connector-curvature="0" />
    <text
       xml:space="preserve"
       style="font-style:normal;font-variant:normal;font-weight:bold;font-stretch:normal;line-height:0%;font-family:'TeX Gyre Adventor';-inkscape-font-specification:'TeX Gyre Adventor Bold';text-align:center;letter-spacing:0.15803081px;word-spacing:0px;text-anchor:middle;fill:#000000;fill-opacity:1;stroke:none"
       x="805.77228"
       y="317.85437"
       id="text4202"><tspan
         sodipodi:role="line"
         id="tspan4204"
         x="805.85132"
         y="317.85437"
         style="font-size:6.32123184px;line-height:1.25">THESE ICONS ARE ALL PROPERTY AND REGISTERED TRADEMARKS OF THEIR RESPECTIVE OWNERS.</tspan><tspan
         sodipodi:role="line"
         x="807.01062"
         y="325.75592"
         id="tspan4206"
         style="font-size:6.32123184px;line-height:1.25">MAKE SURE TO CHECK EACH BRAND'S GUIDELINES FOR USING </tspan><tspan
         sodipodi:role="line"
         x="805.85132"
         y="333.65744"
         id="tspan4208"
         style="font-size:6.32123184px;line-height:1.25">THEIR TRADEMARK BEOFRE IMPLEMENTING THEM INTO YOUR DESIGN WORK</tspan></text>
    <path
       style="fill:#1a1a1a;fill-opacity:1;fill-rule:evenodd;stroke:none"
       d="m 917.54977,229.30383 -2,7.9998 0,35.9814 8.9953,0 0,5.0043 5.0044,0 4.9954,-5.0043 7.9999,0 15.99069,-15.9907 0,-27.9905 -40.98569,0 z m 3.9999,3.9999 32.98589,0 0,21.9906 -6.99539,6.9953 -10.9953,0 -5.9999,5.9999 0,-5.9999 -8.9953,0 0,-28.9859 z m 10.9953,7.9909 0,11.9997 3.9999,0 0,-11.9997 -3.9999,0 z m 10.9953,0 0,11.9997 3.9999,0 0,-11.9997 -3.9999,0 z"
       id="path2997"
       inkscape:connector-curvature="0" />
    <path
       inkscape:connector-curvature="0"
       id="path14-2"
       style="fill:#1a1a1a;fill-opacity:1;fill-rule:nonzero;stroke:none"
       d="m 1117.645,151.71006 0,-7.20912 -5.1494,0 0,7.20912 -7.4151,0 0,5.14937 7.4151,0 0,7.4151 5.1494,0 0,-7.4151 7.2091,0 0,-5.14937 -7.2091,0 z m -37.4875,-0.41195 0,8.23899 c 0,0 7.9927,-0.0107 11.2471,-0.0107 -1.7623,5.34112 -4.5026,8.24971 -11.2471,8.24971 -6.8254,0 -12.1525,-5.53308 -12.1525,-12.35849 0,-6.82539 5.3271,-12.35849 12.1525,-12.35849 3.6088,0 5.9393,1.26839 8.0772,3.03628 1.7112,-1.71125 1.5683,-1.95512 5.9219,-6.06659 -3.6958,-3.36398 -8.6078,-5.41467 -13.9991,-5.41467 -11.4894,0 -20.8034,9.31399 -20.8034,20.80347 0,11.4893 9.314,20.80347 20.8034,20.80347 17.1736,0 21.3712,-14.95379 19.9796,-24.92297 -4.0656,0 -19.9796,0 -19.9796,0" />
    <path
       style="font-size:medium;font-style:normal;font-variant:normal;font-weight:normal;font-stretch:normal;text-indent:0;text-align:start;text-decoration:none;line-height:normal;letter-spacing:normal;word-spacing:normal;text-transform:none;direction:ltr;block-progression:tb;writing-mode:lr-tb;text-anchor:start;baseline-shift:baseline;color:#000000;fill:#1a1a1a;fill-opacity:1;stroke:none;stroke-width:37.40000152999999727;marker:none;visibility:visible;display:inline;overflow:visible;enable-background:accumulate;font-family:Sans;-inkscape-font-specification:Sans"
       d="m 727.04867,129.06846 c -8.25078,0 -14.96042,6.71335 -14.96042,14.96414 l 0,21.63707 c 0,8.25077 6.70964,14.96041 14.96042,14.96041 l 21.76666,0 c 8.25078,0 14.96042,-6.70964 14.96042,-14.96041 l 0,-21.63707 c 0,-8.25079 -6.70964,-14.96414 -14.96042,-14.96414 l -21.76666,0 z m 0,4.43262 21.76666,0 c 5.8722,0 10.53155,4.65936 10.53155,10.53152 l 0,21.63707 c 0,5.87218 -4.65935,10.52783 -10.53155,10.52783 l -21.76666,0 c -5.8722,0 -10.52784,-4.65565 -10.52784,-10.52783 l 0,-21.63707 c 0,-5.87216 4.65564,-10.53152 10.52784,-10.53152 z m 24.75504,4.43256 c -1.71223,0 -3.09947,1.38724 -3.09947,3.09945 0,1.71228 1.38724,3.0995 3.09947,3.0995 1.71223,0 3.09948,-1.38722 3.09948,-3.0995 0,-1.71221 -1.38725,-3.09945 -3.09948,-3.09945 z m -13.87171,3.64009 c -7.30607,0 -13.27552,5.96949 -13.27552,13.27555 0,7.30607 5.96945,13.27552 13.27552,13.27552 7.30607,0 13.27922,-5.96945 13.27922,-13.27552 0,-7.30606 -5.97315,-13.27555 -13.27922,-13.27555 z m 0,4.43262 c 4.91093,0 8.84664,3.93201 8.84664,8.84293 0,4.91093 -3.93571,8.84294 -8.84664,8.84294 -4.91093,0 -8.84294,-3.93201 -8.84294,-8.84294 0,-4.91092 3.93201,-8.84293 8.84294,-8.84293 z"
       id="rect3687"
       inkscape:connector-curvature="0" />
    <g
       id="g4528"
       transform="matrix(0.91998754,0,0,0.91998754,360.01286,-7.85467)"
       style="fill:#1a1a1a;fill-opacity:1;stroke-width:4.10823822">
      <path
         style="fill:#1a1a1a;fill-opacity:1;stroke-width:4.10823822"
         d="m 71.461013,204.19047 c -0.610729,-0.12909 -1.860886,-0.56226 -2.778125,-0.96261 -1.567431,-0.68413 -1.922864,-0.7311 -5.911037,-0.78107 -6.043868,-0.0757 -9.212382,-0.79274 -13.900519,-3.14555 -5.343645,-2.68179 -10.008545,-7.58616 -12.380402,-13.01594 -1.563354,-3.57892 -2.379763,-8.59948 -1.950585,-11.99527 0.195752,-1.54885 0.156633,-1.81864 -0.393563,-2.71426 -1.688415,-2.74845 -2.355643,-6.76662 -1.671087,-10.06357 1.169108,-5.63064 6.394287,-10.59324 12.609733,-11.97604 3.138124,-0.69817 6.968406,-0.43212 9.891208,0.68704 2.17751,0.83378 2.387652,0.86285 6.614583,0.91521 3.317626,0.0411 4.946354,0.18626 6.784747,0.60474 10.127269,2.30526 17.983886,9.50655 20.530479,18.81801 0.433774,1.58606 0.557911,2.87257 0.589576,6.11012 0.03812,3.897 0.07564,4.16993 0.754235,5.48566 1.495179,2.89902 1.937721,7.02344 1.099076,10.24321 -1.323837,5.08255 -5.708028,9.59733 -10.972696,11.29953 -1.925357,0.62251 -6.97687,0.90059 -8.915623,0.49079 z m -5.208098,-11.25524 c 4.323038,-0.74476 8.005078,-3.07718 9.58586,-6.07225 0.622935,-1.18026 0.701019,-1.62278 0.701199,-3.97399 2.35e-4,-3.07429 -0.410975,-4.12903 -2.261635,-5.80099 -1.865863,-1.6857 -4.373996,-2.6662 -10.481633,-4.09757 -7.190677,-1.68519 -8.83068,-2.48983 -8.810695,-4.32279 0.0183,-1.67857 1.114036,-2.79339 3.418076,-3.47762 1.672041,-0.49654 3.666263,-0.54362 5.586181,-0.13187 1.574485,0.33767 3.001581,1.48504 4.364743,3.50922 1.05686,1.56935 2.067965,2.27901 3.250388,2.28134 1.974361,0.004 3.47957,-1.36681 3.47957,-3.16862 0,-2.91239 -3.828603,-5.99822 -8.740558,-7.04482 -1.480524,-0.31546 -2.836312,-0.38611 -5.41465,-0.28213 -5.052206,0.20373 -8.231004,1.21351 -10.550365,3.35142 -1.68078,1.54929 -2.328618,3.00874 -2.328618,5.2459 0,2.10478 0.500806,3.49962 1.713746,4.77311 2.049817,2.15215 4.252609,3.0049 12.752737,4.93687 3.568623,0.8111 4.679635,1.28854 5.897803,2.53451 2.077765,2.12519 0.977799,5.0889 -2.45822,6.62334 -1.07478,0.47997 -1.819188,0.59294 -3.96875,0.60231 -2.308749,0.0101 -2.834836,-0.0763 -4.129343,-0.67756 -1.62547,-0.75502 -2.395005,-1.61811 -3.620175,-4.0603 -0.43802,-0.87312 -1.094287,-1.86515 -1.458372,-2.2045 -1.334139,-1.24351 -4.099539,-0.91591 -5.09515,0.60359 -0.573942,0.87594 -0.397703,3.05566 0.368497,4.55753 1.758344,3.44664 5.545518,5.71654 10.891835,6.52819 1.643001,0.24943 5.160182,0.13761 7.307529,-0.23232 z"
         id="path4542"
         inkscape:connector-curvature="0" />
      <path
         style="fill:#1a1a1a;fill-opacity:1;stroke-width:4.10823822"
         d="m 71.137589,204.02799 c -0.93413,-0.20428 -2.36288,-0.68038 -3.175,-1.05801 -1.394888,-0.64861 -1.696148,-0.68493 -5.445328,-0.65655 -2.974973,0.0225 -4.565017,-0.0955 -6.35,-0.4713 -10.991464,-2.31408 -19.479332,-10.75853 -21.311102,-21.2021 -0.165905,-0.94588 -0.260809,-3.15351 -0.210897,-4.90584 0.08995,-3.15788 0.08322,-3.20018 -0.760894,-4.78405 -2.819748,-5.2909 -1.977847,-11.58813 2.15986,-16.15527 4.96903,-5.48473 13.182133,-7.17174 20.052754,-4.11892 1.536947,0.68291 1.812057,0.72268 3.774445,0.54556 2.342076,-0.21138 6.426767,0.10584 8.976191,0.69709 9.306203,2.15825 17.052761,9.12556 19.707114,17.72471 0.762516,2.47028 1.171575,6.43959 0.901507,8.74776 -0.210413,1.79833 -0.188751,1.90784 0.746305,3.77274 1.208944,2.41117 1.666883,4.76172 1.474292,7.56742 -0.664061,9.6742 -10.468771,16.49897 -20.539247,14.29676 z m -3.328662,-11.33521 c 3.697626,-0.98414 6.801041,-3.23761 8.104397,-5.88479 0.532746,-1.08203 0.626853,-1.67037 0.626853,-3.919 0,-3.06154 -0.322569,-3.94736 -2.070486,-5.68586 -1.789663,-1.78002 -4.230537,-2.76936 -10.423401,-4.22483 -6.394981,-1.50297 -7.503425,-1.89459 -8.409181,-2.97102 -0.896657,-1.06562 -0.850167,-2.09737 0.145606,-3.23149 1.178553,-1.3423 2.808716,-1.87278 5.67599,-1.84705 3.585369,0.0322 4.778759,0.6661 6.784652,3.60399 1.15279,1.68841 2.112431,2.31772 3.53432,2.31772 1.949561,0 3.307292,-1.23899 3.307292,-3.01804 0,-3.13735 -3.500197,-6.13963 -8.357542,-7.16865 -2.366433,-0.50133 -7.177863,-0.50334 -9.78721,-0.004 -2.279062,0.43606 -4.941346,1.57846 -6.434567,2.76112 -0.53899,0.42688 -1.331074,1.40999 -1.760186,2.18468 -0.671136,1.21162 -0.779611,1.68593 -0.775955,3.3929 0.005,2.33669 0.425953,3.36269 2.056501,5.01242 1.914069,1.93659 3.741918,2.65871 11.078881,4.3769 5.301872,1.24162 6.040758,1.52097 7.172269,2.71166 1.618211,1.70285 1.466604,3.88952 -0.379208,5.46946 -1.538317,1.31674 -3.164793,1.78637 -6.165501,1.78021 -3.915991,-0.008 -5.665834,-1.07365 -7.337358,-4.46832 -1.356409,-2.7547 -2.352213,-3.44913 -4.527668,-3.1574 -3.385761,0.45403 -3.404215,4.77028 -0.03579,8.37139 1.948417,2.08302 4.080244,3.15939 7.658544,3.86684 2.362981,0.46718 8.116777,0.31732 10.31875,-0.26875 z"
         id="path4540"
         inkscape:connector-curvature="0" />
      <path
         style="fill:#1a1a1a;fill-opacity:1;stroke-width:4.10823822"
         d="m 72.111949,204.17927 c -1.438955,-0.2423 -3.698568,-0.94947 -4.777872,-1.49529 -0.535392,-0.27075 -2.068597,-0.39657 -5.55625,-0.45595 -5.600053,-0.0953 -7.830382,-0.58183 -12.184774,-2.65778 -9.577611,-4.56611 -15.244109,-13.63823 -14.956409,-23.94536 l 0.08526,-3.05465 -0.986789,-1.98437 c -1.205164,-2.42352 -1.620493,-4.52008 -1.421295,-7.17463 0.454996,-6.06337 4.686436,-11.13013 11.155976,-13.35827 3.844679,-1.32413 9.676083,-0.94529 13.15866,0.85486 0.53103,0.27449 2.057457,0.39732 5.68854,0.45773 4.166576,0.0693 5.30234,0.17779 7.079427,0.67606 8.121132,2.27703 14.394289,7.29069 17.740498,14.17862 1.898616,3.90817 2.658801,7.99208 2.247358,12.07342 -0.198358,1.96763 -0.167378,2.2855 0.284625,2.92028 0.957249,1.34433 1.847853,4.21071 1.995035,6.42095 0.302115,4.53694 -1.149374,8.28144 -4.529087,11.68399 -1.678794,1.69013 -2.602762,2.37535 -4.37697,3.24595 -3.362452,1.64996 -7.083629,2.21427 -10.645937,1.61444 z m -4.038438,-11.5052 c 3.424203,-0.94511 6.548665,-3.22706 7.822935,-5.71348 0.656709,-1.28141 0.965655,-4.13375 0.664938,-6.13907 -0.251415,-1.67656 -1.50876,-3.4222 -3.35103,-4.65243 -2.13123,-1.42317 -3.579596,-1.92437 -9.666259,-3.34495 -2.86581,-0.66885 -5.730392,-1.46045 -6.36574,-1.75909 -1.593706,-0.74913 -2.289589,-1.68729 -2.103258,-2.83551 0.340912,-2.10079 2.662599,-3.26248 6.495966,-3.25034 3.505779,0.0111 4.679352,0.63467 6.663584,3.5407 1.354013,1.98304 1.895039,2.33055 3.628361,2.33055 1.265301,0 1.52237,-0.0996 2.322378,-0.89958 0.764545,-0.76455 0.899583,-1.08387 0.899583,-2.12721 0,-3.20466 -3.339703,-6.05697 -8.413718,-7.18583 -2.981719,-0.66337 -8.997614,-0.41276 -11.759159,0.48987 -3.647448,1.19218 -5.771794,2.96973 -6.650518,5.56481 -0.87836,2.594 -0.305646,5.27135 1.532079,7.16223 2.013598,2.07184 4.43422,3.03689 11.683663,4.65802 4.773604,1.06748 5.929101,1.5476 7.114191,2.956 0.501054,0.59547 0.672629,1.10125 0.672629,1.98284 0,3.10117 -2.662542,4.86135 -7.353541,4.86135 -4.03269,0 -5.528697,-0.90384 -7.471939,-4.51429 -1.449778,-2.69362 -2.183385,-3.23155 -4.202821,-3.08175 -1.206779,0.0895 -1.552022,0.23896 -2.182813,0.94494 -0.62294,0.69719 -0.748323,1.07216 -0.743492,2.2235 0.0077,1.8239 0.708154,3.30141 2.426777,5.1186 2.027982,2.14429 3.84066,3.10194 7.489287,3.95662 2.120538,0.49673 8.633389,0.32472 10.847917,-0.2865 z"
         id="path4538"
         inkscape:connector-curvature="0" />
      <path
         style="fill:#1a1a1a;fill-opacity:1;stroke-width:4.10823822"
         d="m 72.319343,204.17133 c -1.880894,-0.2894 -3.043317,-0.64853 -4.642707,-1.43436 -1.084263,-0.53273 -1.479098,-0.5739 -4.419823,-0.46086 -5.226045,0.20088 -9.502707,-0.68276 -13.907384,-2.87354 -5.492258,-2.73171 -9.545967,-6.68208 -12.058493,-11.75108 -2.100061,-4.23686 -2.814255,-7.54266 -2.624568,-12.1484 0.124451,-3.02178 0.09916,-3.23179 -0.497818,-4.13388 -0.345912,-0.52271 -0.860648,-1.60966 -1.143858,-2.41544 -2.78882,-7.9347 2.469776,-16.79297 11.36861,-19.1508 3.540341,-0.93804 8.419333,-0.5402 11.773959,0.96007 1.191283,0.53277 1.691491,0.58599 5.027083,0.53489 4.303712,-0.0659 7.124351,0.35546 10.615396,1.58593 4.379393,1.54358 7.204823,3.34374 10.551271,6.72254 2.848454,2.87599 4.575095,5.63465 5.917763,9.45481 0.936062,2.66329 0.955199,2.79887 0.999509,7.08091 l 0.04517,4.36562 0.945933,1.98438 c 3.933992,8.25269 -0.706345,18.10952 -9.892752,21.01382 -2.297221,0.72627 -5.788073,1.01455 -8.057293,0.66539 z m -5.38761,-11.23466 c 2.513536,-0.52381 5.427234,-1.91379 6.945638,-3.31341 0.685308,-0.63169 1.567889,-1.84494 2.040557,-2.80506 0.725508,-1.47372 0.834712,-1.97537 0.846814,-3.89 0.01185,-1.87621 -0.0923,-2.41515 -0.711255,-3.68024 -1.60523,-3.28098 -4.070721,-4.50458 -13.478309,-6.68919 -4.65502,-1.08097 -6.750586,-1.97675 -7.2916,-3.11689 -0.705034,-1.4858 0.40656,-3.19969 2.582803,-3.98226 1.084915,-0.39013 1.914694,-0.46888 4.091479,-0.3883 2.434026,0.0901 2.848277,0.17898 3.814516,0.81841 0.596178,0.39453 1.551708,1.4042 2.123398,2.24371 1.283605,1.88494 1.843815,2.39808 2.970959,2.72134 1.727877,0.49555 3.898458,-0.70214 4.304427,-2.37511 0.282461,-1.16401 -0.354706,-2.86803 -1.583423,-4.23466 -2.802935,-3.11754 -7.824901,-4.51027 -14.253472,-3.95289 -5.195136,0.45043 -8.908215,2.27103 -10.639998,5.21701 -0.642683,1.09329 -0.72909,1.50927 -0.72909,3.50999 0,2.06546 0.07218,2.38645 0.802114,3.56709 1.707009,2.76102 4.530702,4.12032 12.030178,5.79121 6.569168,1.46362 8.466667,2.65262 8.466667,5.30532 0,1.56716 -0.868664,2.72864 -2.766698,3.69933 -1.471226,0.75241 -1.738524,0.79859 -4.622927,0.79859 -2.650641,0 -3.207832,-0.0783 -4.152614,-0.58371 -1.386012,-0.74142 -2.279137,-1.80742 -3.431514,-4.09574 -1.068365,-2.12148 -2.0403,-2.8587 -3.770841,-2.86019 -1.438474,-0.001 -2.554508,0.64134 -3.096083,1.78263 -0.34962,0.73677 -0.368989,1.1168 -0.118429,2.32374 0.355262,1.71129 1.963852,4.24988 3.427516,5.40912 1.405226,1.11296 4.048824,2.30728 6.098381,2.7551 2.354523,0.51446 7.68892,0.52769 10.100806,0.0251 z"
         id="path4536"
         inkscape:connector-curvature="0" />
      <path
         style="fill:#1a1a1a;fill-opacity:1;stroke-width:4.10823822"
         d="m 73.497469,204.28024 c -1.790449,-0.16966 -3.851111,-0.69455 -5.291667,-1.34788 -1.352055,-0.6132 -1.783421,-0.66419 -6.085416,-0.71938 -4.023248,-0.0516 -4.96684,-0.14911 -7.198205,-0.7438 -5.99203,-1.59695 -11.680539,-5.24984 -15.003182,-9.63432 -1.75916,-2.32135 -3.842805,-6.51713 -4.573951,-9.21045 -0.460524,-1.69643 -0.58303,-2.93089 -0.61704,-6.21771 l -0.04243,-4.10104 -0.968315,-1.9915 c -1.841994,-3.78836 -1.857109,-7.87117 -0.0438,-11.83195 2.5251,-5.51555 8.334265,-9.05931 14.95318,-9.12187 3.064146,-0.029 4.944666,0.32169 7.14375,1.33207 1.356348,0.62319 1.697863,0.66447 5.027083,0.60765 4.121303,-0.0703 6.628471,0.2358 9.781373,1.19439 8.006202,2.43417 14.314858,8.06365 17.255855,15.39814 1.167197,2.91085 1.58481,5.49147 1.506255,9.30786 -0.06684,3.24726 -0.05266,3.33896 0.781103,5.05197 2.879783,5.91666 1.712343,12.32835 -3.128203,17.18037 -2.966138,2.97318 -6.480128,4.53484 -10.85055,4.82215 -0.945885,0.0622 -2.13651,0.0736 -2.645833,0.0253 z m -5.309682,-11.59725 c 1.994387,-0.48875 4.364498,-1.7676 5.801553,-3.13036 2.862757,-2.71477 3.691967,-6.97753 2.021472,-10.3919 -1.486244,-3.03777 -4.084127,-4.39923 -11.886311,-6.22921 -8.034357,-1.88444 -9.721393,-2.87951 -8.834142,-5.21068 0.73875,-1.941 2.970509,-2.80139 6.861369,-2.64519 2.222635,0.0892 2.680946,0.19221 3.619426,0.81327 0.591,0.3911 1.457627,1.28049 1.925839,1.97642 1.322496,1.96568 2.117016,2.70571 3.225408,3.00417 1.277985,0.34412 2.482646,-0.0123 3.438597,-1.01736 2.734836,-2.87536 -1.098381,-7.68059 -7.362915,-9.22999 -2.655756,-0.65685 -8.284126,-0.58949 -11.00389,0.13168 -3.655125,0.96919 -5.958467,2.47348 -7.311525,4.77509 -0.628268,1.06871 -0.717491,1.50015 -0.717491,3.46944 0,2.73544 0.599903,4.01361 2.677223,5.70418 1.798429,1.46359 3.974765,2.25621 10.131415,3.68981 5.543614,1.29086 6.934256,1.8722 7.908348,3.30601 0.509194,0.7495 0.60646,1.16939 0.510204,2.20252 -0.1545,1.65832 -0.81843,2.51133 -2.71332,3.48602 -1.452822,0.7473 -1.722268,0.79375 -4.604536,0.79375 -2.650641,0 -3.207832,-0.0783 -4.152614,-0.58371 -1.380577,-0.73851 -2.278885,-1.80692 -3.41339,-4.05975 -1.162797,-2.309 -1.907884,-2.89746 -3.667032,-2.89618 -3.884527,0.003 -4.65299,3.52078 -1.65784,7.5894 1.408249,1.91297 3.39543,3.2756 6.101889,4.18413 3.492611,1.17243 8.956639,1.28438 13.102263,0.26844 z"
         id="path4534"
         inkscape:connector-curvature="0" />
      <path
         style="fill:#1a1a1a;fill-opacity:1;stroke-width:4.10823822"
         d="m 70.615873,203.76953 c -0.784513,-0.21097 -1.975138,-0.63547 -2.645833,-0.94332 -1.073277,-0.49264 -1.774447,-0.56697 -5.849654,-0.62009 -5.552587,-0.0724 -8.174738,-0.64707 -12.499097,-2.7394 -7.181866,-3.47492 -12.170322,-9.37394 -14.242541,-16.84231 -0.474383,-1.7097 -0.597092,-2.90518 -0.638213,-6.21771 l -0.05091,-4.10104 -0.95955,-1.98438 c -3.814643,-7.88878 0.480497,-16.91941 9.592166,-20.16775 1.015501,-0.36202 2.446507,-0.56596 4.642935,-0.66166 3.522187,-0.15347 5.200188,0.098 7.672917,1.15004 1.478327,0.62895 1.915019,0.67997 6.35,0.74191 4.207304,0.0588 5.070943,0.14938 7.408333,0.77732 7.629459,2.04966 14.04203,7.07328 17.452668,13.67246 1.927961,3.73037 2.329945,5.50154 2.399676,10.5731 0.05678,4.12958 0.09637,4.43 0.73225,5.55625 1.615147,2.86068 2.095037,7.39962 1.132938,10.71562 -1.565415,5.39543 -6.250572,9.78884 -11.845475,11.10786 -2.117918,0.4993 -6.766872,0.49023 -8.65261,-0.0169 z m -3.336112,-10.84819 c 2.684145,-0.53789 5.011523,-1.77575 6.923688,-3.6825 1.418756,-1.41473 1.70861,-1.87955 2.218134,-3.55705 1.249945,-4.11517 0.0527,-7.55448 -3.401319,-9.77091 -1.861317,-1.19441 -4.128442,-1.95357 -9.576962,-3.20691 -5.679577,-1.3065 -7.565895,-2.0674 -8.064421,-3.25305 -1.108791,-2.63704 1.918551,-4.60277 6.733964,-4.37254 2.751841,0.13157 4.243628,0.85795 5.435169,2.64649 2.100138,3.15238 3.629464,3.92004 5.757328,2.88996 2.631077,-1.27368 2.680655,-3.85526 0.12591,-6.55653 -2.946858,-3.11586 -8.608383,-4.5928 -14.621404,-3.81433 -3.866675,0.50061 -6.632382,1.58999 -8.64673,3.40586 -3.152761,2.84211 -3.130314,7.87503 0.0479,10.74036 2.008374,1.81065 4.495687,2.70651 12.570824,4.52768 4.653984,1.0496 6.478791,2.34264 6.481302,4.59259 0.0032,2.85312 -3.007431,4.80249 -7.416982,4.80249 -3.657852,0 -5.758829,-1.26056 -7.278755,-4.36718 -0.412506,-0.84314 -1.033656,-1.87006 -1.380332,-2.28206 -1.476707,-1.75497 -4.73148,-1.40784 -5.77818,0.61626 -1.323396,2.55916 1.628483,7.41314 5.715804,9.39889 3.746293,1.82007 8.980275,2.27949 14.15506,1.24248 z"
         id="path4532"
         inkscape:connector-curvature="0" />
      <path
         style="fill:#1a1a1a;fill-opacity:1;stroke-width:4.10823822"
         d="m 70.829509,203.78516 c -0.812533,-0.19728 -2.181749,-0.67022 -3.042701,-1.05098 -1.437785,-0.63585 -1.750412,-0.6778 -3.835868,-0.51466 -4.391544,0.34355 -9.698933,-0.62873 -13.972059,-2.55959 -5.681627,-2.56729 -10.991933,-7.92774 -13.266692,-13.39196 -1.521579,-3.655 -1.902219,-5.62158 -1.959895,-10.12585 -0.04978,-3.88737 -0.08838,-4.16308 -0.740934,-5.29167 -2.692303,-4.65634 -1.913911,-11.29557 1.83395,-15.64252 3.308415,-3.83726 7.69469,-5.78091 13.045909,-5.78091 2.802623,0 5.014831,0.43615 7.269297,1.43318 1.402999,0.62048 1.701751,0.65596 4.223695,0.50165 14.155483,-0.86611 26.8526,8.69975 28.747334,21.65791 0.186602,1.27618 0.249764,3.23102 0.154773,4.79021 -0.14913,2.44785 -0.116038,2.71129 0.46782,3.72431 1.98433,3.44291 2.355856,8.23206 0.950072,12.24694 -0.75446,2.15473 -2.727299,4.93555 -4.622853,6.51617 -1.907405,1.59051 -5.226463,3.20533 -7.406961,3.60372 -2.102545,0.38415 -6.023906,0.32619 -7.844887,-0.11595 z m -2.9898,-10.98217 c 2.564469,-0.65588 4.406982,-1.63224 6.097638,-3.23119 3.58513,-3.39067 4.033118,-8.69437 1.017677,-12.04827 -1.829996,-2.03539 -4.511783,-3.21755 -10.321097,-4.54963 -5.94928,-1.36417 -7.750784,-1.9453 -8.66858,-2.79633 -1.53541,-1.42371 -0.587934,-3.80408 1.855311,-4.66114 1.078119,-0.37819 5.572281,-0.47968 6.742271,-0.15226 1.014079,0.28379 2.450484,1.61374 3.648895,3.37848 1.521577,2.24062 3.226316,2.87221 5.210749,1.93054 3.564681,-1.69155 1.858571,-6.46056 -3.206882,-8.96404 -4.520065,-2.23394 -12.507637,-2.20629 -17.297915,0.0599 -3.209163,1.51817 -5.078757,4.12968 -5.08083,7.09704 -0.0016,2.30309 0.416521,3.47846 1.741257,4.89471 2.08483,2.22885 4.607814,3.25966 12.013016,4.90812 4.707927,1.04802 5.244859,1.25238 6.536949,2.48804 1.597078,1.52733 1.48554,3.48325 -0.295979,5.19025 -1.341143,1.28504 -3.422986,1.96576 -6.011867,1.96576 -3.712178,0 -5.682597,-1.22539 -7.315244,-4.54929 -1.395769,-2.84164 -3.01601,-3.79794 -5.207312,-3.07346 -1.496834,0.49488 -2.341817,1.81149 -2.19253,3.41629 0.326206,3.50664 3.697453,7.02583 8.049312,8.40255 3.681255,1.16457 8.815844,1.28356 12.685161,0.29395 z"
         id="path4530"
         inkscape:connector-curvature="0" />
    </g>
  </g>
</svg>
