<?xml version="1.0" encoding="UTF-8" standalone="no"?>
<!-- Created with Inkscape (http://www.inkscape.org/) -->

<svg
   xmlns:dc="http://purl.org/dc/elements/1.1/"
   xmlns:cc="http://creativecommons.org/ns#"
   xmlns:rdf="http://www.w3.org/1999/02/22-rdf-syntax-ns#"
   xmlns:svg="http://www.w3.org/2000/svg"
   xmlns="http://www.w3.org/2000/svg"
   xmlns:sodipodi="http://sodipodi.sourceforge.net/DTD/sodipodi-0.dtd"
   xmlns:inkscape="http://www.inkscape.org/namespaces/inkscape"
   width="80mm"
   height="80mm"
   viewBox="0 0 80 80"
   version="1.1"
   id="svg5274"
   inkscape:version="0.92.1 r15371"
   sodipodi:docname="bazarjibi-blog.svg">
  <defs
     id="defs5268" />
  <sodipodi:namedview
     id="base"
     pagecolor="#ffffff"
     bordercolor="#666666"
     borderopacity="1.0"
     inkscape:pageopacity="0.0"
     inkscape:pageshadow="2"
     inkscape:zoom="0.7"
     inkscape:cx="109.36858"
     inkscape:cy="244.31633"
     inkscape:document-units="mm"
     inkscape:current-layer="layer1"
     showgrid="false"
     inkscape:window-width="1366"
     inkscape:window-height="706"
     inkscape:window-x="-8"
     inkscape:window-y="-8"
     inkscape:window-maximized="1" />
  <metadata
     id="metadata5271">
    <rdf:RDF>
      <cc:Work
         rdf:about="">
        <dc:format>image/svg+xml</dc:format>
        <dc:type
           rdf:resource="http://purl.org/dc/dcmitype/StillImage" />
        <dc:title></dc:title>
      </cc:Work>
    </rdf:RDF>
  </metadata>
  <g
     inkscape:label="Layer 1"
     inkscape:groupmode="layer"
     id="layer1"
     transform="translate(0,-217)">
    <path
       inkscape:connector-curvature="0"
       style="fill:#ff0000;fill-opacity:1;stroke:none;stroke-width:1.03033221px;stroke-linecap:butt;stroke-linejoin:miter;stroke-opacity:1"
       d="m 69.916223,217.27544 c -18.023668,11.68297 -37.540036,18.88633 -59.483589,18.80962 l -0.5956562,35.53036 c 0.3645322,7.16999 -0.80234,12.05892 5.1516622,17.29428 18.937528,12.007 34.762225,8.27526 46.733211,1.47106 4.757973,-3.92329 8.680206,-8.84709 8.42981,-16.83349 z m -26.879199,18.62648 c 4.810004,0.0313 12.219945,5.52722 13.076358,9.14218 0.157482,0.89505 -0.301719,1.61994 -9.452094,14.90964 l -9.619107,13.96784 -6.338968,2.22568 c -3.398651,1.19348 -6.239031,2.37793 -6.717278,2.57381 -0.08996,1.13192 0.297203,2.11028 1.102774,3.03267 0.813446,0.9314 2.064556,1.76873 3.58202,2.47115 3.034906,1.4049 7.124244,2.25402 10.822508,2.48729 3.698273,0.23325 7.054827,-0.21457 8.403648,-1.03434 0.337235,-0.20483 0.530806,-0.41141 0.623834,-0.59365 0.09314,-0.18226 0.117136,-0.34854 0.03816,-0.61579 -0.157792,-0.53423 -0.886488,-1.44326 -2.463131,-2.51748 -0.985832,-0.6717 -1.623043,-1.39913 -1.887602,-2.21358 -0.264532,-0.81446 -0.09447,-1.66365 0.336068,-2.38667 0.861008,-1.44613 2.660823,-2.60874 4.829684,-3.65245 4.336855,-2.08709 10.184338,-3.56431 13.217226,-3.81746 0.865211,-0.074 0.972333,1.22542 0.106659,1.29395 -2.739166,0.2282 -8.6262,1.70418 -12.762434,3.69471 -2.068127,0.9952 -3.687295,2.15543 -4.274276,3.14131 -0.293502,0.49289 -0.361104,0.88767 -0.219357,1.3241 0.141747,0.43646 0.551032,0.9715 1.390548,1.54349 1.690074,1.15152 2.657525,2.15352 2.974281,3.22585 0.158376,0.5362 0.109663,1.09882 -0.128779,1.56562 -0.23844,0.46684 -0.633955,0.82914 -1.110836,1.11887 -1.907504,1.15969 -5.325786,1.45931 -9.158279,1.21747 -3.832497,-0.24183 -8.030442,-1.09523 -11.285353,-2.60196 -1.627462,-0.75337 -3.021532,-1.66893 -4.008643,-2.79921 -1.028631,-1.50736 -1.507035,-2.83616 -1.336209,-4.31455 8.56e-4,-0.0817 -10e-4,-0.15887 0.01403,-0.26168 -0.09283,-0.10438 -0.02258,-2.81058 0.03816,-6.85007 l 0.110666,-7.34516 9.584906,-13.93161 9.584912,-13.93163 c 0.294828,-0.0491 0.604999,-0.0705 0.925692,-0.0685 z m 0.203237,1.07662 c -0.396298,0.0681 -3.347642,4.93048 -3.280156,5.30862 3.132877,1.69065 6.553603,3.40882 8.981189,5.83184 l 2.28606,2.24379 c 1.644862,-1.83721 3.055708,-3.96737 3.380766,-5.3549 -0.4909,-0.9911 -3.493515,-3.99677 -5.250263,-5.19191 -1.773242,-1.20637 -5.346414,-2.97023 -6.117596,-2.83744 z m -4.026747,6.33491 c -5.210973,6.84845 -7.688483,10.69951 -14.10871,19.53206 0.07543,0.42626 2.327109,2.00596 2.996414,1.89967 4.883971,-6.2901 9.216818,-13.18488 13.975902,-19.88622 -0.146967,-0.24532 -2.401893,-1.51436 -2.863606,-1.54551 z m 4.223963,2.48733 c -4.980256,7.02169 -8.554819,11.39991 -14.517228,19.69702 l 2.014384,1.39457 c 0.570853,0.40866 1.552134,0.99306 1.730638,0.9619 5.158236,-6.66039 8.874137,-12.33228 14.104681,-19.69701 -1.184935,-1.09181 -2.197823,-1.70763 -3.332475,-2.35648 z m 4.558012,3.24594 c -2.589922,3.46005 -13.18219,17.32777 -14.318,20.07939 0.363678,0.37929 2.573946,2.2351 2.684501,2.21563 5.357581,-7.04042 9.792379,-13.83691 14.159019,-20.05326 -0.249811,-0.41053 -1.719871,-1.63555 -2.52552,-2.24176 z m -23.369622,16.4994 c -0.08303,0.0156 -0.143655,0.0455 -0.179092,0.0965 -0.07687,0.1102 -0.175043,2.49729 -0.219358,4.3487 l -0.08045,3.3667 1.404631,1.32212 c 1.778085,1.26007 2.192721,1.48324 6.115585,0.0908 3.104012,-1.10176 4.300383,-1.62974 2.50741,-3.56589 -2.012776,-2.17349 -8.302821,-5.87528 -9.548679,-5.65876 z"
       id="path5973" />
  </g>
</svg>
