<?xml version="1.0" encoding="UTF-8" standalone="no"?>
<!-- Created with Inkscape (http://www.inkscape.org/) -->

<svg
   xmlns:dc="http://purl.org/dc/elements/1.1/"
   xmlns:cc="http://creativecommons.org/ns#"
   xmlns:rdf="http://www.w3.org/1999/02/22-rdf-syntax-ns#"
   xmlns:svg="http://www.w3.org/2000/svg"
   xmlns="http://www.w3.org/2000/svg"
   xmlns:sodipodi="http://sodipodi.sourceforge.net/DTD/sodipodi-0.dtd"
   xmlns:inkscape="http://www.inkscape.org/namespaces/inkscape"
   width="35"
   height="35"
   viewBox="0 0 9.2604159 9.2604174"
   version="1.1"
   id="svg8"
   inkscape:version="0.92.1 r15371"
   sodipodi:docname="change1.svg">
  <defs
     id="defs2" />
  <sodipodi:namedview
     id="base"
     pagecolor="#ffffff"
     bordercolor="#666666"
     borderopacity="1.0"
     inkscape:pageopacity="0.0"
     inkscape:pageshadow="2"
     inkscape:zoom="5.6"
     inkscape:cx="18.107637"
     inkscape:cy="26.40156"
     inkscape:document-units="mm"
     inkscape:current-layer="layer1"
     showgrid="false"
     showborder="true"
     inkscape:window-width="1366"
     inkscape:window-height="706"
     inkscape:window-x="-8"
     inkscape:window-y="-8"
     inkscape:window-maximized="1"
     units="px" />
  <metadata
     id="metadata5">
    <rdf:RDF>
      <cc:Work
         rdf:about="">
        <dc:format>image/svg+xml</dc:format>
        <dc:type
           rdf:resource="http://purl.org/dc/dcmitype/StillImage" />
        <dc:title></dc:title>
      </cc:Work>
    </rdf:RDF>
  </metadata>
  <g
     inkscape:label="Layer 1"
     inkscape:groupmode="layer"
     id="layer1"
     transform="translate(0,-287.73956)">
    <g
       id="g4562"
       transform="matrix(0.11593012,0,0,0.11327868,0.30296112,263.39204)"
       style="stroke-width:6.76701164">
      <g
         transform="translate(-97.139881,27.592262)"
         style="fill:#ff0000;stroke-width:6.76701164"
         id="g4540">
        <path
           inkscape:connector-curvature="0"
           style="fill:#ff0000;fill-opacity:1;stroke-width:6.76701164"
           d="m 121.85954,265.79833 c 0,-1.1645 -0.12227,-2.18017 -0.27372,-2.27377 -0.15055,-0.0931 -1.44338,-0.27923 -2.87297,-0.41374 -12.6125,-1.18674 -19.515243,-9.00859 -20.317053,-23.02229 l -0.16503,-2.88437 h 0.66881 c 0.71509,0 0.99954,0.70741 0.99954,2.48579 0,1.35347 1.023533,4.64663 2.053193,6.60607 2.85905,5.4408 8.60299,8.77267 16.70598,9.69058 3.12653,0.35418 3.20125,0.301 3.20125,-2.27838 0,-1.07358 0.0645,-1.95197 0.14341,-1.95197 0.0789,0 2.60895,1.19723 5.62239,2.66051 3.01344,1.46328 6.63985,3.21367 8.05868,3.88974 1.41883,0.67607 2.57968,1.32592 2.57968,1.4441 0,0.17994 -12.82427,6.59765 -15.54427,7.77889 l -0.85989,0.37344 z"
           id="path4536" />
        <path
           inkscape:connector-curvature="0"
           style="fill:#ff0000;fill-opacity:1;stroke-width:6.76701164"
           d="m 169.3621,217.69114 c -0.91774,-8.6982 -5.90462,-14.30661 -14.73709,-16.57384 -0.82393,-0.2115 -2.64657,-0.52168 -4.05031,-0.68928 -3.23849,-0.38667 -3.31516,-0.33393 -3.31516,2.28042 0,1.07358 -0.0573,1.95197 -0.1273,1.95197 -0.13894,0 -3.84879,-1.77042 -11.64666,-5.55805 l -5.02708,-2.44178 7.8052,-3.82794 c 4.29287,-2.10537 8.0731,-3.93386 8.40052,-4.06332 0.58705,-0.23212 0.59532,-0.20632 0.59532,1.85911 0,1.15198 0.0935,2.15227 0.2077,2.22287 0.11424,0.0706 1.43151,0.26304 2.92726,0.42763 10.19259,1.12156 16.17633,5.80992 18.92766,14.83012 0.81853,2.68355 1.48158,6.8473 1.48373,9.31751 0.002,1.71493 -0.024,1.78594 -0.64086,1.78594 -0.58707,0 -0.65624,-0.13106 -0.80293,-1.52136 z"
           id="path4509" />
      </g>
      <g
         transform="translate(-97.139652,27.325142)"
         id="g4554"
         style="stroke-width:6.76701164">
        <path
           inkscape:connector-curvature="0"
           style="fill:#ff0000;stroke-width:25.57610703"
           d="m 428.69727,788.93164 -3.83008,3.83008 -3.83008,3.83008 v 67.23632 67.23438 l 3.83008,3.83008 3.83008,3.83008 h 79.71875 79.71875 l 3.83007,-3.83008 3.82813,-3.83008 V 863.82812 796.5918 l -3.82813,-3.83008 -3.83007,-3.83008 h -79.71875 z m 79.71875,12.33398 c 35.83765,0 71.6758,0.67386 73.02343,2.02149 2.25483,2.25479 2.73215,101.10937 0.48828,101.10937 -0.76066,0 -9.96779,-9.12886 -20.46093,-20.28515 -10.49311,-11.1563 -20.2547,-20.28321 -21.69141,-20.28321 -1.43671,0 -5.04247,2.07754 -8.01367,4.61719 -2.9712,2.53966 -6.89121,4.64763 -8.71094,4.68164 -2.18411,0.0419 -7.83798,-4.71046 -16.63672,-13.98047 C 493.54405,845.58716 491.14564,844.04495 486,846.01953 c -1.31301,0.50389 -13.04329,13.845 -26.06641,29.64649 -13.02308,15.80148 -23.82595,28.73046 -24.00586,28.73046 -1.98308,0 -2.40625,-8.93369 -2.40625,-50.6582 0,-35.7024 0.49501,-49.07508 1.8711,-50.45117 1.34763,-1.34763 37.18579,-2.02149 73.02344,-2.02149 z"
           id="path4548"
           transform="scale(0.26458333)" />
        <path
           inkscape:connector-curvature="0"
           style="fill:#ff0000;stroke-width:6.76701117"
           d="m 144.21998,224.87901 c -1.83759,-0.8071 -2.88984,-2.48445 -2.88984,-4.60661 0,-1.73432 0.19258,-2.21555 1.34965,-3.37262 1.16162,-1.16162 1.63502,-1.34965 3.39795,-1.34965 2.95265,0 4.74759,1.79494 4.74759,4.74759 0,1.73918 -0.19273,2.24102 -1.27705,3.32535 -1.36309,1.36309 -3.78473,1.9339 -5.3283,1.25594 z"
           id="path4542" />
      </g>
    </g>
  </g>
</svg>
