<?xml version="1.0" encoding="UTF-8" standalone="no"?>
<!-- Created with Inkscape (http://www.inkscape.org/) -->

<svg
   xmlns:dc="http://purl.org/dc/elements/1.1/"
   xmlns:cc="http://creativecommons.org/ns#"
   xmlns:rdf="http://www.w3.org/1999/02/22-rdf-syntax-ns#"
   xmlns:svg="http://www.w3.org/2000/svg"
   xmlns="http://www.w3.org/2000/svg"
   xmlns:sodipodi="http://sodipodi.sourceforge.net/DTD/sodipodi-0.dtd"
   xmlns:inkscape="http://www.inkscape.org/namespaces/inkscape"
   version="1.1"
   id="svg2"
   width="256"
   height="256"
   viewBox="0 0 256 256"
   sodipodi:docname="edit.svg"
   inkscape:version="0.92.1 r15371">
  <metadata
     id="metadata8">
    <rdf:RDF>
      <cc:Work
         rdf:about="">
        <dc:format>image/svg+xml</dc:format>
        <dc:type
           rdf:resource="http://purl.org/dc/dcmitype/StillImage" />
        <dc:title></dc:title>
      </cc:Work>
    </rdf:RDF>
  </metadata>
  <defs
     id="defs6" />
  <sodipodi:namedview
     pagecolor="#ffffff"
     bordercolor="#666666"
     borderopacity="1"
     objecttolerance="10"
     gridtolerance="10"
     guidetolerance="10"
     inkscape:pageopacity="0"
     inkscape:pageshadow="2"
     inkscape:window-width="1366"
     inkscape:window-height="706"
     id="namedview4"
     showgrid="false"
     inkscape:zoom="0.65186406"
     inkscape:cx="154.06414"
     inkscape:cy="13.078383"
     inkscape:window-x="-8"
     inkscape:window-y="-8"
     inkscape:window-maximized="1"
     inkscape:current-layer="svg2" />
  <path
     style="fill:#ff0000;stroke-width:1"
     d="m 320.96377,139.12008 c -1.20698,-1.20699 -1.32035,-1.64063 -1.05915,-4.05141 0.16088,-1.48487 2.32316,-9.63944 4.80508,-18.12127 2.48192,-8.48183 5.09652,-17.42109 5.81022,-19.865 l 1.29764,-4.44349 29.12162,-28.87113 c 16.01689,-15.87912 29.3649,-28.87632 29.66224,-28.88267 0.81953,-0.0175 5.99392,5.40063 5.99392,6.27625 0,0.42124 -12.49314,13.26067 -27.76254,28.53206 l -27.76254,27.76618 -3.33487,11.18149 c -1.83417,6.14983 -3.33802,11.68084 -3.34187,12.29114 -0.008,1.3114 4.33122,5.52186 5.3305,5.172 0.37085,-0.12983 5.49676,-1.65915 11.39092,-3.39846 l 10.71664,-3.1624 28.231,-28.22029 c 15.52705,-15.52116 28.47223,-28.22029 28.76708,-28.22029 0.6811,0 7.04042,6.38924 7.04042,7.07354 0,0.47353 -39.50946,40.03734 -52.53771,52.60998 l -5.75039,5.54931 -6.01178,1.86397 c -14.9451,4.63379 -35.37747,10.27215 -37.22434,10.27215 -1.48669,0 -2.39238,-0.36196 -3.38209,-1.35166 z m 34.16305,-27.26962 c -0.12757,-0.21564 -0.39816,-1.39652 -0.60132,-2.62418 -0.46808,-2.82854 -1.22648,-3.56862 -4.09822,-3.99926 -5.18586,-0.77767 -6.58539,0.94746 24.20212,-29.8326 l 28.22934,-28.22253 4.44837,4.42526 c 2.4466,2.43389 4.44836,4.6687 4.44836,4.96623 0,0.75225 -55.03197,55.67915 -55.78565,55.67915 -0.33609,0 -0.71544,-0.17643 -0.843,-0.39207 z m 58.45671,-65.47771 -17.7698,-17.77556 3.63848,-3.39635 c 2.00117,-1.86799 4.00488,-3.39634 4.45269,-3.39634 0.4478,0 8.69014,7.8958 18.3163,17.54624 l 17.5021,17.54623 -3.78675,3.62567 c -2.08271,1.99412 -3.96596,3.62568 -4.18499,3.62568 -0.21903,0 -8.39465,-7.99901 -18.16803,-17.77557 z m 13.19832,-12.93979 c -9.12707,-9.13041 -16.59467,-16.85615 -16.59467,-17.16832 0,-0.9611 6.62441,-6.9881497 8.57788,-7.8043597 2.40373,-1.00434 7.1504,-0.98383 9.60493,0.0415 2.71666,1.13483 22.20977,20.7130497 23.32789,23.4297497 1.13287,2.75251 1.07473,7.47471 -0.12091,9.81989 -1.30759,2.56476 -6.41525,8.28228 -7.39885,8.28228 -0.44088,0 -8.2692,-7.47033 -17.39627,-16.60074 z"
     id="path4531"
     inkscape:connector-curvature="0" />
  <path
     style="fill:#ff0000"
     d="m 434.56964,202.53484 c -0.14274,-2.11948 2.11265,-11.87461 5.3754,-23.25 l 5.62131,-19.5984 29.16387,-29.25 c 16.04012,-16.0875 29.62321,-29.25 30.18464,-29.25 0.90956,0 19.559,18.51775 29.97918,29.76749 l 3.95281,4.2675 -14.97003,15.0512 c -8.23352,8.27816 -21.60337,21.36819 -29.7108,29.08895 l -14.74076,14.03775 -20.12909,5.77027 c -11.07101,3.17365 -19.51266,6.01522 -18.75924,6.31461 0.75342,0.29938 -0.22567,0.57986 -2.17575,0.62328 -3.38503,0.0754 -3.55675,-0.0864 -3.79154,-3.57265 z"
     id="path4527" />
  <path
     style="fill:#ff0000"
     d="m 529.64542,109.9254 c -8.93124,-8.94357 -16.23863,-16.740127 -16.23863,-17.325677 0,-0.58556 1.14172,-2.13724 2.53716,-3.44819 l 2.53715,-2.38353 17.17207,17.172057 17.17206,17.17207 -2.38353,2.53715 c -1.31095,1.39544 -2.87271,2.53716 -3.47059,2.53716 -0.59788,0 -8.39444,-7.31747 -17.32569,-16.26104 z"
     id="path4523" />
  <path
     style="fill:#ff0000"
     d="m 543.40479,96.653323 c -8.7989,-8.73703 -15.998,-16.46349 -15.998,-17.16992 0,-1.99812 7.98788,-7.29696 11,-7.29696 1.48496,0 4.45494,1.29061 6.59996,2.86801 5.10634,3.75511 20.40004,19.55019 20.40004,21.06882 0,0.64966 0.45,0.90309 1,0.56317 0.61153,-0.37794 1,1.17595 1,3.999997 0,2.58519 -0.4085,4.36557 -0.928,4.0445 -0.51041,-0.31545 -1.19314,0.26182 -1.51719,1.28281 -0.32405,1.021 -1.70735,2.90682 -3.07399,4.19071 l -2.48481,2.33436 z"
     id="path4500" />
  <path
     style="fill:#ff0000"
     d="m -238.58769,326.51272 c -0.92281,-1.61559 -1.25121,-7.04334 -1.16471,-19.25 0.13556,-19.13014 2.8585,-36.605 8.29709,-53.24773 3.9529,-12.09633 4.66398,-13.44866 39.83165,-75.75227 38.0403,-67.39278 34.10132,-60.94337 36.11452,-59.13145 2.22717,2.0045 53.59033,32.3234 56.118153,33.1257 1.10996,0.35229 2.01812,0.98601 2.01812,1.40828 0,1.08305 -66.178653,118.01871 -70.076103,123.82234 -4.97558,7.40905 -28.42787,30.06829 -38.4265,37.12709 -17.87123,12.61667 -29.81945,16.96246 -32.71222,11.89804 z m 25.98078,-15.91249 c 9.95509,-5.87855 38.68668,-35.78487 36.48981,-37.98174 -2.29152,-2.29152 -41.81158,-24.89477 -43.08951,-24.64477 -1.69346,0.33129 -3.82172,6.08081 -8.80581,23.789 -4.06673,14.4489 -5.62034,31.54414 -3.36216,36.99586 2.89327,6.98499 9.03673,7.58784 18.76767,1.84165 z M -96.568097,144.94912 c -2.59148,-2.57798 -53.368713,-32.1864 -55.198363,-32.1864 -0.88353,0 -1.60641,-0.50897 -1.60641,-1.13105 0,-1.63035 13.72299,-25.386293 16.72729,-28.956701 1.39328,-1.655817 4.79718,-4.157806 7.56423,-5.559975 4.35327,-2.20597 6.05328,-2.502245 12.61974,-2.199347 7.17227,0.330843 8.13753,0.670707 17.588743,6.192937 13.59888,7.945666 15.6124,9.607339 18.85018,15.556196 3.33744,6.13198 4.42446,14.28584 2.70919,20.32199 -1.36147,4.79111 -15.0039,29.01192 -16.55937,29.39954 -0.55,0.13706 -1.76285,-0.50967 -2.69523,-1.43719 z"
     id="path4544"
     inkscape:connector-curvature="0" />
  <path
     style="fill:#ff0000"
     d="m 306.57861,299.86121 c -0.74285,-2.34053 0.28556,-5.14088 1.88797,-5.14088 1.82711,0 5.87562,4.69215 5.11307,5.92597 -1.14895,1.85905 -6.34682,1.27616 -7.00104,-0.78509 z"
     id="path4569" />
  <path
     style="fill:#ff0000"
     d="m 313.2839,295.8006 c -4.6341,-4.31167 -5.24107,-5.33612 -5.17392,-8.73249 0.0957,-4.84032 2.06811,-10.40536 4.15437,-11.72134 1.278,-0.80614 3.36245,0.65586 10.43331,7.31777 10.44426,9.8402 12.2289,12.27528 10.5123,14.34365 -1.02229,1.23179 -10.28028,3.74818 -13.59284,3.69463 -0.59577,-0.01 -3.44572,-2.21563 -6.33322,-4.90222 z"
     id="path4567" />
  <path
     style="fill:#ff0000"
     d="M 352.70898 234.7207 C 352.23609 234.7207 343.9062 242.5876 334.19727 252.20312 L 316.54492 269.68555 L 319.03906 272.20312 C 320.41103 273.58816 325.1332 278.50298 329.5332 283.12305 C 333.9332 287.74312 337.76419 291.56669 338.04492 291.62109 C 338.32565 291.67547 346.64281 283.62255 356.5293 273.72461 L 374.50586 255.72852 L 364.03711 245.22461 C 358.27972 239.44755 353.18186 234.7207 352.70898 234.7207 z M 352.9707 246.69727 C 353.01187 246.7078 353.0332 246.73809 353.0332 246.79102 C 353.0332 247.63785 347.92805 253.36832 341.6875 259.52539 C 335.44695 265.68247 330.04695 270.7207 329.6875 270.7207 C 327.90213 270.7207 329.99278 268.23236 341.0332 257.2207 C 347.2207 251.04933 352.35327 246.53921 352.9707 246.69727 z M 361.9707 255.66211 C 362.01187 255.67134 362.0332 255.70037 362.0332 255.75195 C 362.0332 256.57732 356.96369 262.3078 350.76758 268.48633 C 344.57148 274.66485 339.17148 279.7207 338.76758 279.7207 C 336.89388 279.7207 338.85906 277.36573 350.0332 266.2207 C 356.2207 260.04933 361.35327 255.52365 361.9707 255.66211 z "
     id="path4565" />
  <path
     style="fill:#ff0000"
     d="m 366.76514,241.95244 c -5.35218,-5.37234 -9.73124,-10.23406 -9.73124,-10.80383 0,-1.54036 6.16499,-7.10681 8.72415,-7.87715 3.24554,-0.97695 8.46876,1.87862 13.73569,7.50939 5.15058,5.50639 6.66884,8.64701 5.84086,12.08216 -0.633,2.6262 -6.09612,8.85732 -7.76563,8.85732 -0.58993,0 -5.45165,-4.39555 -10.80383,-9.76789 z"
     id="path4557" />
  <g
     id="g4617"
     transform="rotate(-10,-348.27881,198.05815)">
    <path
       inkscape:connector-curvature="0"
       id="path4609"
       d="m -448.76878,296.38792 c -1.56497,-2.53216 5.52991,-33.47538 8.3888,-36.58644 2.23304,-2.43002 28.87505,22.71387 28.87505,27.2514 0,4.23002 -35.00006,12.99796 -37.26385,9.33504 z"
       style="fill:#ff0000;stroke-width:1" />
    <path
       inkscape:connector-curvature="0"
       id="path4607"
       d="m -420.24597,266.51682 c -11.62459,-12.10581 -13.56907,-15.21705 -11.6968,-18.71542 3.27958,-6.12797 130.65703,-130.63864 133.64649,-130.63864 3.08743,0 30.46134,27.30089 30.46134,30.38006 0,3.73869 -131.13166,133.49354 -134.91003,133.49354 -1.95725,0 -9.83268,-6.5338 -17.501,-14.51954 z"
       style="fill:#ff0000;stroke-width:1" />
    <path
       inkscape:connector-curvature="0"
       id="path4605"
       d="m -319.47187,213.12983 c -0.002,-1.54333 11.36149,-13.72428 25.2545,-27.06879 13.89302,-13.3445 28.51077,-27.40131 32.48394,-31.23734 6.37744,-6.15736 7.40143,-6.51205 8.73884,-3.02684 1.15584,3.01211 -5.60358,11.08098 -28.51877,34.04342 -27.31734,27.37369 -37.94333,35.01305 -37.95851,27.28955 z"
       style="fill:#ff0000;stroke-width:1" />
    <path
       inkscape:connector-curvature="0"
       id="path4601"
       d="m -277.78645,124.89894 -15.56363,-14.66924 6.07405,-6.07406 c 4.82765,-4.827617 8.1764,-6.074047 16.31921,-6.074047 8.43482,0 11.19963,1.10967 15.64685,6.279857 2.97096,3.45394 6.01448,8.72126 6.7634,11.7052 1.63032,6.49575 -5.40978,22.17659 -10.309,22.96183 -1.85199,0.29682 -10.37088,-6.06146 -18.93088,-14.12954 z"
       style="fill:#ff0000;stroke-width:1" />
  </g>
</svg>
