<?xml version="1.0" encoding="UTF-8" standalone="no"?>
<!-- Created with Inkscape (http://www.inkscape.org/) -->

<svg
   xmlns:dc="http://purl.org/dc/elements/1.1/"
   xmlns:cc="http://creativecommons.org/ns#"
   xmlns:rdf="http://www.w3.org/1999/02/22-rdf-syntax-ns#"
   xmlns:svg="http://www.w3.org/2000/svg"
   xmlns="http://www.w3.org/2000/svg"
   xmlns:sodipodi="http://sodipodi.sourceforge.net/DTD/sodipodi-0.dtd"
   xmlns:inkscape="http://www.inkscape.org/namespaces/inkscape"
   width="140"
   height="140"
   viewBox="0 0 37.041665 37.041668"
   version="1.1"
   id="svg4634"
   inkscape:version="0.92.1 r15371"
   sodipodi:docname="pencil.svg">
  <defs
     id="defs4628" />
  <sodipodi:namedview
     id="base"
     pagecolor="#ffffff"
     bordercolor="#666666"
     borderopacity="1.0"
     inkscape:pageopacity="0.0"
     inkscape:pageshadow="2"
     inkscape:zoom="1.979899"
     inkscape:cx="179.39697"
     inkscape:cy="62.279221"
     inkscape:document-units="mm"
     inkscape:current-layer="layer1"
     showgrid="false"
     units="px"
     inkscape:window-width="1366"
     inkscape:window-height="706"
     inkscape:window-x="-8"
     inkscape:window-y="-8"
     inkscape:window-maximized="1" />
  <metadata
     id="metadata4631">
    <rdf:RDF>
      <cc:Work
         rdf:about="">
        <dc:format>image/svg+xml</dc:format>
        <dc:type
           rdf:resource="http://purl.org/dc/dcmitype/StillImage" />
        <dc:title></dc:title>
      </cc:Work>
    </rdf:RDF>
  </metadata>
  <g
     inkscape:label="Layer 1"
     inkscape:groupmode="layer"
     id="layer1"
     transform="translate(0,-259.95831)">
    <path
       style="fill:#ff0000;stroke-width:0.26458332"
       d="m 1.2505865,296.01957 c -0.31934699,-0.31935 -0.34934299,-0.43408 -0.28023399,-1.07193 0.04257,-0.39287 0.61466999,-2.55044 1.27134499,-4.79459 0.656674,-2.24415 1.348454,-4.60933 1.537287,-5.25594 l 0.343334,-1.17568 7.7050955,-7.63882 c 4.237802,-4.20135 7.769463,-7.64019 7.848134,-7.64187 0.216834,-0.005 1.585892,1.42892 1.585892,1.66059 0,0.11145 -3.305477,3.50855 -7.345506,7.54911 l -7.3455055,7.34647 -0.882351,2.95843 c -0.485291,1.62714 -0.883184,3.09056 -0.884203,3.25203 -0.0021,0.34698 1.145969,1.46099 1.410362,1.36843 0.09812,-0.0344 1.454351,-0.43899 3.013847,-0.89918 l 2.8354445,-0.83672 7.469452,-7.46661 c 4.108199,-4.10664 7.533278,-7.46662 7.61129,-7.46662 0.180208,0 1.862779,1.69048 1.862779,1.87154 0,0.12529 -10.453546,10.59321 -13.900603,13.91972 l -1.521458,1.46826 -1.590617,0.49317 c -3.9542245,1.22602 -9.3602885,2.71784 -9.8489395,2.71784 -0.393354,0 -0.632984,-0.0958 -0.894845,-0.35763 z m 9.0389745,-7.21508 c -0.03375,-0.0571 -0.105347,-0.3695 -0.1591,-0.69432 -0.123846,-0.74838 -0.3245063,-0.94419 -1.0843205,-1.05813 -1.372092,-0.20576 -1.742385,0.25068 6.4034775,-7.89321 l 7.469013,-7.46721 1.176965,1.17085 c 0.647329,0.64396 1.176962,1.23526 1.176962,1.31398 0,0.19903 -14.560542,14.73177 -14.759954,14.73177 -0.08892,0 -0.189293,-0.0467 -0.223043,-0.10373 z m 15.466671,-17.32431 -4.701593,-4.70312 0.962681,-0.89862 c 0.529476,-0.49424 1.059624,-0.89861 1.178108,-0.89861 0.11848,0 2.299266,2.0891 4.846188,4.64244 l 4.630764,4.64244 -1.001911,0.95929 c -0.55105,0.52761 -1.049327,0.9593 -1.107279,0.9593 -0.05795,0 -2.221084,-2.11641 -4.806958,-4.70312 z m 3.492056,-3.42366 c -2.414871,-2.41575 -4.390674,-4.45985 -4.390674,-4.54245 0,-0.25429 1.752709,-1.84894 2.269564,-2.0649 0.635988,-0.26573 1.891878,-0.2603 2.541305,0.011 0.718783,0.30026 5.876335,5.48033 6.172171,6.19912 0.299739,0.72827 0.284356,1.97769 -0.03199,2.59818 -0.345967,0.67859 -1.697369,2.19135 -1.957613,2.19135 -0.116649,0 -2.187892,-1.97652 -4.602763,-4.39228 z"
       id="path4531"
       inkscape:connector-curvature="0" />
  </g>
</svg>
