<?xml version="1.0" encoding="UTF-8" standalone="no"?>
<!-- Created with Inkscape (http://www.inkscape.org/) -->

<svg
   xmlns:dc="http://purl.org/dc/elements/1.1/"
   xmlns:cc="http://creativecommons.org/ns#"
   xmlns:rdf="http://www.w3.org/1999/02/22-rdf-syntax-ns#"
   xmlns:svg="http://www.w3.org/2000/svg"
   xmlns="http://www.w3.org/2000/svg"
   xmlns:sodipodi="http://sodipodi.sourceforge.net/DTD/sodipodi-0.dtd"
   xmlns:inkscape="http://www.inkscape.org/namespaces/inkscape"
   width="95"
   height="123.51969"
   viewBox="0 0 25.135417 32.681253"
   version="1.1"
   id="svg8"
   inkscape:version="0.92.1 r15371"
   sodipodi:docname="recycle.svg">
  <defs
     id="defs2" />
  <sodipodi:namedview
     id="base"
     pagecolor="#ffffff"
     bordercolor="#666666"
     borderopacity="1.0"
     inkscape:pageopacity="0.0"
     inkscape:pageshadow="2"
     inkscape:zoom="1.979899"
     inkscape:cx="155.62269"
     inkscape:cy="60.57339"
     inkscape:document-units="mm"
     inkscape:current-layer="layer1"
     showgrid="false"
     units="px"
     inkscape:window-width="1366"
     inkscape:window-height="706"
     inkscape:window-x="-8"
     inkscape:window-y="-8"
     inkscape:window-maximized="1" />
  <metadata
     id="metadata5">
    <rdf:RDF>
      <cc:Work
         rdf:about="">
        <dc:format>image/svg+xml</dc:format>
        <dc:type
           rdf:resource="http://purl.org/dc/dcmitype/StillImage" />
        <dc:title></dc:title>
      </cc:Work>
    </rdf:RDF>
  </metadata>
  <g
     inkscape:label="Layer 1"
     inkscape:groupmode="layer"
     id="layer1"
     transform="translate(0,-264.3187)">
    <g
       id="g4727"
       transform="matrix(0.20930793,0,0,0.20930793,-11.809377,240.09663)"
       style="stroke-width:4.77764988">
      <path
         inkscape:connector-curvature="0"
         id="path4712"
         d="m 116.17085,161.66566 c -47.855502,0 -48.982918,0.0116 -50.526127,0.51728 -1.993079,0.65305 -3.930491,2.4315 -4.344961,3.9889 -0.34454,1.29469 -0.376158,1.03318 2.629826,21.68756 0.317659,2.18283 0.66855,4.80219 0.779807,5.82084 0.111231,1.01864 0.56634,4.29286 1.010788,7.27604 0.44442,2.98317 1.180332,8.10286 1.635548,11.37708 0.455242,3.27422 1.170887,8.33439 1.590093,11.24479 0.930857,6.46295 2.397548,16.83432 3.311948,23.41563 2.644114,19.03125 2.65475,19.08361 4.190418,20.83748 1.08749,1.24198 2.208054,1.97567 3.591004,2.35181 0.937551,0.25497 9.323811,0.31718 37.586866,0.27749 l 36.38021,-0.0511 1.10948,-0.59325 c 1.2529,-0.66969 2.85795,-2.22152 3.42201,-3.30936 0.48967,-0.94437 0.73266,-2.27581 1.41232,-7.73906 0.30774,-2.47388 0.85823,-6.81966 1.2237,-9.65729 0.36547,-2.83767 0.82851,-6.58814 1.02888,-8.33439 0.20035,-1.74625 0.60907,-5.08 0.90795,-7.40833 0.29887,-2.32834 0.72813,-5.72162 0.95395,-7.54063 0.2258,-1.81901 0.64836,-5.21229 0.93949,-7.54062 0.29109,-2.32834 0.81904,-6.55506 1.17305,-9.39271 0.35399,-2.83766 1.07109,-8.55266 1.59316,-12.7 0.52211,-4.14735 1.23391,-9.80282 1.58184,-12.56771 0.3479,-2.7649 0.9548,-7.55966 1.34874,-10.65516 0.61672,-4.84625 0.66995,-5.78361 0.385,-6.74688 -0.48033,-1.62367 -2.39665,-3.38848 -4.38836,-4.04109 -1.54323,-0.50565 -2.67115,-0.51728 -50.52663,-0.51728 z m -0.19484,14.79082 c 1.84074,-0.0519 3.71221,0.83615 5.07723,2.71664 0.40454,0.55728 0.87495,1.44549 1.04542,1.97352 0.22899,0.70947 0.3243,9.86 0.36586,35.05729 0.0545,33.04366 0.0407,34.12576 -0.44598,35.0232 -0.93736,1.72831 -1.78631,2.61831 -3.14296,3.29435 -1.66425,0.82934 -3.34732,0.8658 -4.82139,0.1044 -2.29683,-1.18639 -3.65586,-3.04977 -3.9269,-5.38313 -0.0845,-0.7276 -0.18806,-16.21331 -0.22997,-34.4129 l -0.0765,-33.09049 0.79685,-1.55856 c 1.22565,-2.39887 3.27218,-3.66547 5.35831,-3.72432 z m 32.5541,0.39895 c 1.98757,-0.0187 3.9334,0.99648 5.15472,2.97191 1.3272,2.14669 1.31818,2.46558 -0.49919,17.82165 -0.49946,4.22011 -1.19939,10.17322 -1.55546,13.22916 -0.35608,3.05594 -1.06701,9.06859 -1.57975,13.36146 -0.51276,4.29286 -1.23648,10.42459 -1.60816,13.62604 -1.33827,11.52617 -1.40952,11.98255 -2.08309,13.29893 -1.54422,3.01786 -4.60656,4.60462 -7.30343,3.78428 -2.16403,-0.65828 -3.69197,-2.30246 -4.40026,-4.73512 -0.37264,-1.27989 -0.3705,-1.75707 0.0191,-5.15938 0.60206,-5.2575 2.12061,-18.07308 4.12843,-34.83766 0.28757,-2.40109 0.6347,-5.4372 0.77152,-6.74688 0.13684,-1.30969 0.54663,-4.70296 0.91054,-7.54062 0.36393,-2.83765 0.85783,-6.94532 1.09762,-9.12813 0.52777,-4.80471 1.05934,-6.46793 2.55487,-7.99176 1.27511,-1.29922 2.8466,-1.93931 4.39251,-1.95388 z m -64.426572,0.0145 c 0.547344,0.0124 1.109477,0.093 1.676903,0.24649 2.304124,0.62341 4.385971,3.60941 4.723236,6.77426 0.183382,1.72093 0.923342,7.99669 2.386938,20.24063 1.456664,12.18583 2.240201,18.81247 2.377625,20.10833 0.06951,0.65485 0.479452,4.04813 0.910537,7.54063 0.431112,3.4925 0.914347,7.77875 1.074367,9.525 0.16002,1.74625 0.40431,3.81973 0.542581,4.60799 0.728504,4.15298 -0.546364,7.24652 -3.566186,8.6527 -1.641898,0.76454 -3.080491,0.78938 -4.649311,0.0801 -0.654844,-0.29607 -1.588109,-0.91866 -2.073778,-1.38338 -1.698175,-1.62478 -2.038218,-2.75336 -2.809134,-9.31157 -0.222382,-1.89177 -0.816557,-6.8924 -1.319821,-11.1125 -0.503264,-4.2201 -1.224359,-10.35182 -1.602475,-13.62604 -0.724721,-6.27565 -2.00205,-17.04211 -3.202411,-26.9875 -0.980705,-8.12568 -0.9838,-10.00782 -0.0186,-11.97343 1.080717,-2.2008 3.177804,-3.43527 5.549529,-3.3817 z"
         style="fill:#ff0000;stroke-width:4.7776494" />
      <path
         sodipodi:nodetypes="cccssszzcccccccscccccccsccc"
         inkscape:connector-curvature="0"
         id="path4704"
         d="m 166.8387,156.22165 c 2.29379,-0.5234 4.10417,-2.3682 4.80114,-4.89241 0.65216,-2.36194 -0.65929,-5.37818 -2.94905,-6.78262 -1.21394,-0.74457 -3.50262,-1.2147 -17.06563,-3.50557 -2.32833,-0.39327 -6.49552,-1.11192 -9.26042,-1.59701 -2.76489,-0.48509 -6.96184,-1.21018 -9.32656,-1.6113 -3.11459,-0.52832 0.35542,-0.13311 -4.29948,-1.0926 -4.6549,-0.95949 -17.71948,-2.79148 -23.78161,-3.78179 -6.062128,-0.99031 -7.836818,-1.27129 -12.598558,-2.11282 -1.60073,-0.28289 -4.75588,-0.82619 -7.01146,-1.20732 -2.25557,-0.38114 -6.42276,-1.0943 -9.26041,-1.58481 -10.99529,-1.9006 -11.01841,-1.90151 -13.38003,-0.52067 -4.13056,2.41513 -3.85596,8.99233 0.46232,11.07375 1.36925,0.65997 2.50808,0.89909 11.59479,2.43452 2.25557,0.38113 6.42276,1.09471 9.26042,1.58571 2.83765,0.49102 7.00484,1.2018 9.26041,1.57953 2.25558,0.37773 6.42276,1.09381 9.260418,1.59129 2.83765,0.49747 5.99281,1.03763 7.01146,1.20036 1.01864,0.16272 2.38786,0.41335 3.04271,0.55695 0.65484,0.14361 1.96453,0.36292 2.91041,0.48737 0.94589,0.12445 3.80339,0.59491 6.35,1.04546 2.54661,0.45056 6.41614,1.12342 8.59896,1.49524 2.18281,0.37183 6.32023,1.08279 9.19427,1.57992 l 10.45104,1.80771 c 5.98128,1.03458 12.85221,2.20751 13.82448,2.35995 1.18713,0.18614 1.70209,0.16688 2.91041,-0.10884 z"
         style="fill:#ff0000;stroke-width:4.7776494" />
      <circle
         r="9.7553377"
         cy="128.80571"
         cx="118.31382"
         id="path4722"
         style="opacity:1;fill:#ff0000;fill-opacity:1;stroke:none;stroke-width:2.40429258;stroke-linecap:round;stroke-linejoin:miter;stroke-miterlimit:4;stroke-dasharray:28.85151094, 28.85151094;stroke-dashoffset:1.14119995;stroke-opacity:1" />
    </g>
  </g>
</svg>
