<?xml version="1.0" encoding="UTF-8" standalone="no"?>
<!-- Created with Inkscape (http://www.inkscape.org/) -->

<svg
   xmlns:dc="http://purl.org/dc/elements/1.1/"
   xmlns:cc="http://creativecommons.org/ns#"
   xmlns:rdf="http://www.w3.org/1999/02/22-rdf-syntax-ns#"
   xmlns:svg="http://www.w3.org/2000/svg"
   xmlns="http://www.w3.org/2000/svg"
   xmlns:sodipodi="http://sodipodi.sourceforge.net/DTD/sodipodi-0.dtd"
   xmlns:inkscape="http://www.inkscape.org/namespaces/inkscape"
   width="100.56693"
   height="100"
   viewBox="0 0 26.608335 26.458334"
   version="1.1"
   id="svg4496"
   inkscape:version="0.92.1 r15371"
   sodipodi:docname="search.svg">
  <defs
     id="defs4490" />
  <sodipodi:namedview
     id="base"
     pagecolor="#ffffff"
     bordercolor="#666666"
     borderopacity="1.0"
     inkscape:pageopacity="0.0"
     inkscape:pageshadow="2"
     inkscape:zoom="1.4"
     inkscape:cx="-17.005619"
     inkscape:cy="50.891208"
     inkscape:document-units="mm"
     inkscape:current-layer="layer1"
     showgrid="false"
     units="px"
     inkscape:window-width="1366"
     inkscape:window-height="706"
     inkscape:window-x="-8"
     inkscape:window-y="-8"
     inkscape:window-maximized="1" />
  <metadata
     id="metadata4493">
    <rdf:RDF>
      <cc:Work
         rdf:about="">
        <dc:format>image/svg+xml</dc:format>
        <dc:type
           rdf:resource="http://purl.org/dc/dcmitype/StillImage" />
        <dc:title />
      </cc:Work>
    </rdf:RDF>
  </metadata>
  <g
     inkscape:label="Layer 1"
     inkscape:groupmode="layer"
     id="layer1"
     transform="translate(0,-270.54166)">
    <g
       id="g5090"
       transform="matrix(0.19083161,0,0,0.19083161,-47.230317,251.26015)">
      <rect
         y="99.3797"
         x="20.106731"
         height="125.83722"
         width="125.83722"
         id="rect1493"
         style="display:inline;fill:none;fill-opacity:0.27027025;stroke:none;stroke-width:10.48643398;stroke-linecap:round;stroke-linejoin:round;stroke-miterlimit:4;stroke-dasharray:none;stroke-opacity:1" />
      <circle
         transform="scale(-1,1)"
         id="path3244"
         style="display:inline;fill:#ffffff;fill-opacity:1;stroke:none;stroke-width:10.48643398;stroke-linecap:round;stroke-linejoin:round;stroke-miterlimit:4;stroke-dasharray:none;stroke-opacity:1"
         cx="-93.544647"
         cy="151.81192"
         r="52.432171" />
      <path
         style="color:#000000;display:inline;overflow:visible;visibility:visible;fill:#ffffff;fill-opacity:1;fill-rule:nonzero;stroke:#ffffff;stroke-width:20.97286797;stroke-linecap:round;stroke-linejoin:round;stroke-miterlimit:4;stroke-dasharray:none;stroke-dashoffset:0;stroke-opacity:1;marker:none;marker-start:none;marker-mid:none;marker-end:none"
         d="m 68.639361,176.71721 -5.24321,17.04044 -18.35127,19.66212 c -1.26485,1.35517 -7.16284,3.32358 -11.79724,-1.31089 -3.932411,-3.93236 -2.70899,-10.49225 -1.3108,-11.79719 l 19.66207,-18.35123 z"
         id="path2682"
         sodipodi:nodetypes="cczzzcc"
         inkscape:connector-curvature="0" />
      <circle
         transform="scale(-1,1)"
         id="path4119"
         style="display:inline;fill:#000000;fill-opacity:1;stroke:none;stroke-width:10.48643398;stroke-linecap:round;stroke-linejoin:round;stroke-miterlimit:4;stroke-dasharray:none;stroke-opacity:1"
         cx="-93.544647"
         cy="151.81192"
         r="41.945736" />
      <circle
         transform="scale(-1,1)"
         id="path4994"
         style="display:inline;fill:#ffffff;fill-opacity:1;stroke:none;stroke-width:10.48643398;stroke-linecap:round;stroke-linejoin:round;stroke-miterlimit:4;stroke-dasharray:none;stroke-opacity:1"
         cx="-93.544647"
         cy="151.81192"
         r="31.459305" />
      <path
         sodipodi:nodetypes="cczzzcc"
         id="path15511"
         d="m 68.639361,176.71721 -5.24321,17.04044 -18.35127,19.66212 c -1.26485,1.35517 -7.16284,3.32358 -11.79724,-1.31089 -3.932411,-3.93236 -2.70899,-10.49225 -1.3108,-11.79719 l 19.66207,-18.35123 z"
         style="color:#000000;display:inline;overflow:visible;visibility:visible;fill:#000000;fill-opacity:1;fill-rule:nonzero;stroke:none;stroke-width:20.97286797;stroke-linecap:round;stroke-linejoin:round;stroke-miterlimit:4;stroke-dasharray:none;stroke-dashoffset:0;stroke-opacity:1;marker:none;marker-start:none;marker-mid:none;marker-end:none"
         inkscape:connector-curvature="0" />
    </g>
    <path
       style="fill:#ff0000;stroke-width:0.11265576"
       d="m 4.3242711,295.84389 c 0.4471216,-0.4802 1.7491228,-1.90982 2.8933321,-3.17692 l 2.0803853,-2.30384 -0.4313176,-0.21341 c -0.5183303,-0.25644 -1.6454656,-1.44305 -1.7441286,-1.83614 -0.038789,-0.15451 -0.1116027,-0.26604 -0.1618369,-0.24785 -0.075939,0.0275 -4.446006,3.96841 -5.880699,5.3032 -0.54504807,0.5071 -0.56806173,1.00634 -0.0852,1.84827 0.36054249,0.62864 0.83827809,1.05254 1.49584429,1.32729 0.7676829,0.32077 0.9460572,0.25261 1.8336204,-0.7006 z m 13.5311319,-5.25647 c 2.145299,-0.41025 3.94446,-1.36776 5.339244,-2.84154 1.12493,-1.18865 1.818433,-2.40419 2.318368,-4.06357 0.2576,-0.85504 0.299218,-1.19963 0.303326,-2.51184 0.0035,-1.06567 -0.0525,-1.75271 -0.186558,-2.29551 -0.84105,-3.40538 -3.387129,-6.05488 -6.791837,-7.0677 -1.012523,-0.3012 -3.149907,-0.40932 -4.250967,-0.21502 -3.923841,0.69239 -7.0001048,3.71339 -7.7957319,7.65567 -0.1460785,0.72381 -0.1767862,1.27401 -0.1288938,2.30945 0.070382,1.52167 0.2558076,2.3186 0.827395,3.55607 0.3624158,0.78461 0.3809972,0.87815 0.2603551,1.31073 -0.1125735,0.40363 -0.099212,0.53523 0.1001067,0.98581 0.3084859,0.69739 1.2636205,1.68631 1.9674587,2.03704 0.6361782,0.31703 0.9119382,0.34576 1.2921832,0.13466 0.224671,-0.12473 0.357085,-0.095 1.053901,0.23693 1.633632,0.77813 3.983296,1.09551 5.69165,0.76882 z m -3.317781,-1.48151 c -1.092817,-0.22121 -2.694448,-0.99207 -3.540549,-1.70405 -0.84363,-0.70992 -1.6812614,-1.77254 -2.1171395,-2.68584 -0.1926463,-0.40366 -0.3972831,-0.70487 -0.4547429,-0.66936 -0.05746,0.0355 -0.075003,-0.0122 -0.039002,-0.1061 0.036021,-0.0938 -0.022609,-0.51473 -0.1302903,-0.93525 -0.2745125,-1.07212 -0.252346,-2.86353 0.049608,-4.00915 1.0320764,-3.91574 4.9674767,-6.5897 8.9049337,-6.05059 2.883974,0.39487 5.129374,2.00338 6.370544,4.56359 0.669024,1.38002 0.892689,2.46746 0.820548,3.98948 -0.09299,1.96194 -0.781985,3.63425 -2.098075,5.09244 -1.944133,2.15402 -4.869054,3.10121 -7.765852,2.51483 z"
       id="path5082"
       inkscape:connector-curvature="0"
       inkscape:export-xdpi="20.140615"
       inkscape:export-ydpi="20.140615" />
  </g>
</svg>
