<?xml version="1.0" encoding="UTF-8" standalone="no"?>
<!-- Created with Inkscape (http://www.inkscape.org/) -->

<svg
   xmlns:dc="http://purl.org/dc/elements/1.1/"
   xmlns:cc="http://creativecommons.org/ns#"
   xmlns:rdf="http://www.w3.org/1999/02/22-rdf-syntax-ns#"
   xmlns:svg="http://www.w3.org/2000/svg"
   xmlns="http://www.w3.org/2000/svg"
   xmlns:sodipodi="http://sodipodi.sourceforge.net/DTD/sodipodi-0.dtd"
   xmlns:inkscape="http://www.inkscape.org/namespaces/inkscape"
   width="100"
   height="145"
   viewBox="0 0 26.458331 38.364584"
   version="1.1"
   id="svg4760"
   inkscape:version="0.92.1 r15371"
   sodipodi:docname="karostan-logo-new.svg"
   inkscape:export-filename="C:\xampp\htdocs\adv\images\karostan-logo-new.png"
   inkscape:export-xdpi="90"
   inkscape:export-ydpi="90">
  <defs
     id="defs4754" />
  <sodipodi:namedview
     id="base"
     pagecolor="#ffffff"
     bordercolor="#666666"
     borderopacity="1.0"
     inkscape:pageopacity="0.0"
     inkscape:pageshadow="2"
     inkscape:zoom="1.979899"
     inkscape:cx="-35.132922"
     inkscape:cy="64.406025"
     inkscape:document-units="mm"
     inkscape:current-layer="layer1"
     showgrid="false"
     units="px"
     inkscape:window-width="1366"
     inkscape:window-height="706"
     inkscape:window-x="-8"
     inkscape:window-y="-8"
     inkscape:window-maximized="1" />
  <metadata
     id="metadata4757">
    <rdf:RDF>
      <cc:Work
         rdf:about="">
        <dc:format>image/svg+xml</dc:format>
        <dc:type
           rdf:resource="http://purl.org/dc/dcmitype/StillImage" />
        <dc:title />
      </cc:Work>
    </rdf:RDF>
  </metadata>
  <g
     inkscape:label="Layer 1"
     inkscape:groupmode="layer"
     id="layer1"
     transform="translate(0,-258.63541)">
    <path
       sodipodi:nodetypes="cccc"
       inkscape:connector-curvature="0"
       id="path4624"
       d="m 25.463635,268.81016 -24.90294488,2.84232 c 1.00660008,8.24618 1.46167008,16.49236 0.72761008,24.73854 4.8201004,-1.13475 19.8702448,-9.58957 24.1753348,-27.58086 z"
       style="fill:#007af4;fill-opacity:1;stroke:none;stroke-width:0.26458332px;stroke-linecap:butt;stroke-linejoin:miter;stroke-opacity:1"
       inkscape:export-xdpi="90"
       inkscape:export-ydpi="90" />
    <path
       inkscape:transform-center-y="-39.181541"
       inkscape:transform-center-x="7.7580653"
       style="fill:#007af4;fill-opacity:1;stroke:none;stroke-width:0.26458332px;stroke-linecap:butt;stroke-linejoin:miter;stroke-opacity:1"
       d="m 11.480691,259.07464 c -0.12077,0.006 -0.24036,0.0155 -0.35932,0.0276 -0.94859,0.12229 -1.9154205,0.41589 -2.9041405,0.91819 0,0 0.14364,2.81534 -0.0643,2.54409 -0.20785,-0.27125 -0.95597,-1.66056 -0.95597,-1.66056 -2.31944,2.36913 -3.53221,4.9932 -3.00793,7.50949 -0.45106,0.0486 -1.2098804,0.20075 -1.2098804,0.20075 0.2203,1.20961 0.03,0.5951 0.2204,1.20956 l 9.0279009,-1.01385 9.024547,-1.04318 c 0.0469,-0.64145 -1.2e-4,1.4e-4 -0.0576,-1.22803 0,0 -0.77366,0.0226 -1.2241,0.0768 -0.0552,-2.56971 -1.826957,-4.85392 -4.619887,-6.64057 0,0 -0.41674,1.52217 -0.55827,1.83323 -0.14151,0.31105 -0.63468,-2.46443 -0.63468,-2.46443 -0.94182,-0.23365 -1.83134,-0.3153 -2.67665,-0.26901 z"
       id="path4656"
       inkscape:connector-curvature="0"
       inkscape:export-xdpi="90"
       inkscape:export-ydpi="90" />
    <path
       style="opacity:1;fill:#ffffff;fill-opacity:1;stroke:none;stroke-width:0.10858258px;stroke-linecap:butt;stroke-linejoin:miter;stroke-opacity:1"
       d="m 12.187644,270.66331 c -2.620728,0.003 -4.768798,1.93467 -4.859819,4.37073 -0.02441,0.0212 0.0021,-0.039 0,0 0.269983,3.30452 0.546048,7.02959 0.291447,9.90449 1.632763,-0.36568 6.054134,-2.63258 8.661403,-7.25962 h -0.02933 c 0.523596,-0.73827 0.803278,-1.60299 0.804517,-2.4874 3e-6,-2.50075 -2.179623,-4.52802 -4.868321,-4.52801 z"
       id="path4597-2"
       inkscape:connector-curvature="0"
       sodipodi:nodetypes="ccccccccc"
       inkscape:export-xdpi="90"
       inkscape:export-ydpi="90" />
    <ellipse
       style="opacity:1;fill:#007af4;fill-opacity:1;stroke:none;stroke-width:0.17757243;stroke-linecap:butt;stroke-linejoin:miter;stroke-miterlimit:4;stroke-dasharray:none;stroke-opacity:1;paint-order:markers fill stroke"
       id="circle4679"
       cx="12.186646"
       cy="275.31638"
       rx="2.518014"
       ry="2.3955364"
       inkscape:export-xdpi="90"
       inkscape:export-ydpi="90" />
  </g>
</svg>
